<?xml version="1.0" encoding="UTF-8"?>
<svg id="Layer_1" xmlns="http://www.w3.org/2000/svg" version="1.1" viewBox="0 0 620.9 664.3">
  <!-- Generator: Adobe Illustrator 29.0.0, SVG Export Plug-In . SVG Version: 2.1.0 Build 186)  -->
  <defs>
    <style>
      .st0 {
        fill: #ff2020;
      }

      .st1 {
        fill: #f6ecf3;
      }

      .st2 {
        fill: #fdfdff;
      }

      .st3 {
        fill: #f3f5f2;
      }

      .st4 {
        fill: #fcfbfd;
      }

      .st5 {
        fill: #fdcc02;
      }

      .st6 {
        fill: #80510d;
      }

      .st7 {
        fill: #fafcfe;
      }

      .st8 {
        fill: #f2ecf4;
      }

      .st9 {
        fill: #f8fbfe;
      }

      .st10 {
        fill: #1c9f07;
      }

      .st11 {
        fill: #fcfdfe;
      }

      .st12 {
        fill: #fbfcfe;
      }

      .st13 {
        fill: #fdfeff;
      }

      .st14 {
        fill: #ebf0f1;
      }

      .st15 {
        fill: #1b3967;
      }

      .st16 {
        fill: #fff;
      }

      .st17 {
        fill: #ffcc01;
      }

      .st18 {
        fill: #fece02;
      }

      .st19 {
        fill: #f4f1f7;
      }

      .st20 {
        fill: #ef3e31;
      }

      .st21 {
        fill: #f22;
      }
    </style>
  </defs>
  <path class="st16" d="M382.3,650.7H13.7V21.5h595.3c0,94.8,0,189.7,0,284.7,0,.2-.2.2-.2,0-.1-11.2-1.4-22.1-3.2-33-2.1-13.1-5.2-26-8.8-38.7-7.5-26.2-18.3-51-33-74-13.7-21.4-29.9-40.7-48.1-58.3-20.6-19.9-43.5-36.5-69.1-49.4-29-14.6-59.8-23.4-91.8-27.9-10.9-1.5-21.9-2.4-32.9-2.8-17-.6-34,.3-50.8,2.4-13.8,1.8-27.3,4.5-40.8,8.1-33.2,8.8-63.8,23.3-91.6,43.6-20.8,15.2-39.2,33-55.7,52.7-18.2,21.7-33.2,45.3-44.2,71.5-7.3,17.3-12.8,35.3-17,53.6-3.7,16.1-6.2,32.4-6.9,48.9-.6,12.6-.2,25.1,1.2,37.6,1.6,13.6,4.2,26.9,7.9,40,6.2,22.1,15.2,43,25.9,63.2.2.4.5.7.8,1.2,27-15.4,53.8-30.7,80.8-46.1-.3-.7-.5-1.3-.8-1.8-5.6-12.3-10.5-25-14.2-38.1-6.1-21.7-8.9-43.7-7-66.2.9-11.1,2.9-21.9,5.9-32.6,6.2-22.1,16.4-42.3,29.7-60.9,22.4-31.1,50.8-55,86.1-70.4,26.2-11.4,53.5-17.4,82.1-17.1,11.2,0,22.2,1.1,33.2,3.2,20.4,3.8,39.8,10.5,58.2,20,21.8,11.3,40.9,26,57.6,44,16.4,17.6,29.4,37.5,38.8,59.6,10.8,25.5,15.2,52,13.5,79.6-.7,11.7-2.7,23.2-5.5,34.6-3.8,15.2-9.3,29.8-15.7,44-.3.7-.6,1.3-.9,2.1,27,15.4,53.9,30.8,80.9,46.2.8-1.6,1.6-3,2.3-4.4,12.1-23.3,21.8-47.4,27.6-73.1,2.4-10.6,4.2-21.4,5.1-32.2.4-4.5.5-9.1.9-13.6,0,0,.2,0,.2,0v329c-73.6,0-147.2,0-220.9,0-.2,0-.2-.2,0-.3,3.2-.7,5-2.7,6-5.5.6-1.8,1-3.6,1.4-5.4.8-4.6,2.1-8.9,4.4-13,4.9-8.6,11.7-15.4,19.7-20.8,15.7-10.6,32.6-18.5,50.5-24.7,11.1-3.9,22.5-6.8,33.9-9.7,23.3-5.9,45.1-15.2,65.8-27.1,6.8-3.9,12.2-9.3,15.1-16.7,3.5-8.8,3.6-17.8,1.6-27-1-4.5-3.2-8.5-5.4-12.4-6.8-11.7-13.7-23.3-20.4-34.9-1.3-2.2-2.9-4.2-4.7-6-5.7-5.9-12.6-8.8-20.8-8.1-1,0-2.1.1-3.1.4-3.2,1-6.2,2.5-9,4.4-6.2,4.2-9.4,10.1-9.7,17.6-.3,5.7,1.2,10.9,4.1,15.8,3.9,6.7,7.8,13.3,11.6,20,.3.5.5.9.7,1.5-.5.3-1,.6-1.4.8-11.3,6.3-23.1,11.3-35.6,14.6-10.5,2.7-21,5.1-31.6,7.5-18.1,4.1-35.4,10.2-51.6,19.4-9.3,5.3-18.4,10.9-26.6,17.9-1.5,1.3-3,2.9-4.1,4.5-1.8,2.6-2.3,5.5-1.4,8.6,1,3.3,2.7,6.1,5.3,8.4,3.6,3.2,7.2,6.3,10.8,9.5.5.4.9.9,1.4,1.3-.7.2-1.1,0-1.6,0-15.5-4.4-31.3-7.2-47.3-8.6-8.2-.7-16.4-1.2-24.6-1.4-17.3-.6-34.5.3-51.6,2.4-13.2,1.6-26.3,4.1-39.1,7.9-.3,0-.5,0-1.1,0,.7-.6,1.1-1,1.6-1.4,3.5-3,6.9-6,10.4-9.1,1.2-1.1,2.3-2.3,3.2-3.6,4.7-6.7,3.8-12.6-2.4-17.9-7.5-6.4-15.6-11.7-24.1-16.6-13.8-8-28.2-14.5-43.7-18.4-10.7-2.7-21.4-5.1-32.1-7.6-12.8-3-25.3-6.8-37.2-12.7-3.5-1.7-6.8-3.5-10.4-5.3.4-.7.7-1.3,1-1.8,2.3-3.9,4.6-7.8,6.9-11.8,2.1-3.6,4.3-7.2,6.1-10.9,3-6,3.4-12.3,1.5-18.7-2.2-7.6-7.8-12-14.8-15-2.8-1.2-5.8-1.8-8.9-1.7-9.7.2-16.7,5.2-21.9,13-3.6,5.4-6.7,11.1-9.9,16.7-4.4,7.6-8.8,15.2-13.1,22.8-5.1,9-5.8,18.8-4.2,28.8,1.7,10.6,7.8,18.4,16.9,23.9,2.1,1.3,4.3,2.5,6.5,3.6,15.9,8.5,32.4,15.9,49.8,20.9,9.9,2.8,19.8,5.3,29.7,8.1,19.9,5.6,38.9,13.4,56.6,24.1,6.3,3.8,12.4,7.9,17.6,13.1,7.3,7.3,12.8,15.5,14.4,26,.3,2.2,1,4.5,2,6.6,1.2,2.8,3.6,4.2,6.7,4.3,3.3,0,6.6-.2,9.8-1,11.4-2.5,22.9-4.5,34.6-5.8,5.9-.7,11.9-1.3,17.8-1.7,4.5-.3,9-.6,13.4-.5,9.6.2,19.3.9,28.8,2.2,8.1,1.1,16.2,2.4,24.3,3.7,5.3.9,10.6,2.1,15.9,3.2,0,0,0,.2,0,.2M189.2,239.8c-16.3,0-32.7,0-49.3,0,0,1.5,0,2.7,0,4,0,11.2,0,22.4.3,33.6.4,10.3,1.1,20.5,2,30.7,1.1,11.9,2.8,23.7,5,35.4,3.7,19.5,8.8,38.6,15.8,57.3,16.6,44.2,42.6,81.9,78.1,113,21.2,18.6,44.7,33.8,69.7,46.9,1,.5,1.7.3,2.6-.1,24-12.8,46.5-27.7,67-45.6,23-20,42.5-43,58.1-69.1,18.9-31.7,31-65.9,37.7-102.1,3.4-18,5.4-36.2,6.2-54.4.8-15.5.7-31.1,0-46.6,0-.9-.2-1.8-.2-2.8-.9,0-1.5,0-2.2,0-14.6,0-29.1,0-43.7,0-.7,0-1.5,0-2.2-.4-.1-1.1-.2-2.2-.4-3.3-1.7-14.7-6.1-28.5-12.9-41.6-20-38.3-58.7-63.4-101.2-66-12.6-.8-25,.3-37.2,3.3-38.8,9.7-70.3,37.2-85,74.4-4.3,10.8-7,22-8.3,33.7Z"/>
  <path class="st14" d="M607.5,302.8s.1,0,.2,0c0,5,0,10,0,15.1s-.1.2-.2,0c0-5.2,0-10.2,0-15.2Z"/>
  <path class="st14" d="M386.7,646.8s0,.2,0,.2c-1.8,0-3.5,0-5.4,0s-.2-.2,0-.3c1.9,0,3.7,0,5.4,0Z"/>
  <path class="st20" d="M188.4,236.2c1-11.6,3.7-22.8,8-33.6,14.8-37.2,46.2-64.7,85-74.4,12.2-3,24.6-4.1,37.2-3.3,42.5,2.6,81.1,27.7,101.2,66,6.8,13.1,11.2,26.9,12.9,41.6.1,1.1.2,2.2.2,3.5-29.9.2-59.6.2-89.3.2-.3,0-.6,0-.9-.2,0-3.8,0-7.5,0-11.1-2.4-.4-59.8-.3-61.3.1,0,3.7,0,7.4-.2,11.2-30.6,0-61.1,0-91.5,0-.4,0-.9,0-1.3,0M343.1,171.2c-.3,0-.6.1-.9.2-5.3,1.6-9.5,4.6-11.6,9.9-.7,1.8-1.2,3.6-1.8,5.5-.3,1.1-.5,2.3-.8,3.4-19.9,1.6-39.7,3.3-59.7,4.8.1-.6.1-1,.2-1.4.8-2.9,1.5-5.9,1.8-8.9.4-4.5-.5-8.6-3.1-12.4-.5-.7-1-1.4-1.4-2.2-1.1-2.6-2.1-5.2-3.1-7.8-.2-.6-.4-1.2-.8-2.2-.7,2.2-1.2,3.9-1.9,5.5-1.2,2.9-2.5,5.8-3.9,8.7-1.2,2.4-1.5,4.9-1.5,7.4,0,4.6,1.5,8.8,3.8,12.7.2.4.4.8.7,1.4-2,.2-3.9.5-5.8.7-.2,4.6,3.6,8.8,8,8.7,4.6,0,9.2-.2,13.8-.4.9,0,1.9,0,2.8-.1,3.5-.5,6.9,0,10.2,1.2,4.7,1.8,8,4.9,9.6,9.7.4,1.2.8,2.5,1.2,3.7h27.7c.2-.6.3-1.2.5-1.8.5-1.3.9-2.7,1.6-4,1.4-2.6,3.7-3.6,6.6-3,2.2.5,4.1,1.4,6,2.5,7.4,4.3,16,3.2,21.1-3.6,5.9-7.7,7.4-16.5,4.3-25.8-2.1-6.2-6.5-10.4-12.8-12.3-3.5-1.1-7.1-1.2-11-.4Z"/>
  <path class="st15" d="M607.5,302.6c0,5.2,0,10.2,0,15.3-.2,4.7-.4,9.2-.8,13.8-.9,10.9-2.7,21.6-5.1,32.2-5.8,25.6-15.5,49.8-27.6,73.1-.7,1.4-1.5,2.8-2.3,4.4-27-15.4-53.8-30.8-80.9-46.2.3-.7.6-1.4.9-2.1,6.5-14.2,11.9-28.8,15.7-44,2.9-11.4,4.8-22.9,5.5-34.6,1.7-27.6-2.7-54.2-13.5-79.6-9.4-22.2-22.4-42-38.8-59.6-16.7-18-35.8-32.7-57.6-44-18.4-9.5-37.8-16.2-58.2-20-11-2.1-22-3.1-33.2-3.2-28.6-.3-55.9,5.8-82.1,17.1-35.3,15.3-63.7,39.2-86.1,70.4-13.4,18.6-23.5,38.8-29.7,60.9-3,10.7-4.9,21.6-5.9,32.6-1.9,22.5.8,44.6,7,66.2,3.7,13.1,8.5,25.7,14.2,38.1.3.6.5,1.1.8,1.8-27,15.4-53.8,30.7-80.8,46.1-.3-.4-.6-.8-.8-1.2-10.7-20.2-19.7-41.1-25.9-63.2-3.7-13.1-6.4-26.5-7.9-40-1.4-12.5-1.8-25.1-1.2-37.6.7-16.5,3.2-32.8,6.9-48.9,4.2-18.3,9.7-36.3,17-53.6,11-26.1,26-49.8,44.2-71.5,16.6-19.7,34.9-37.5,55.7-52.7,27.8-20.3,58.3-34.8,91.6-43.6,13.4-3.6,27-6.3,40.8-8.1,16.9-2.2,33.8-3.1,50.8-2.4,11,.4,22,1.3,32.9,2.8,32.1,4.5,62.8,13.3,91.8,27.9,25.6,12.9,48.5,29.5,69.1,49.4,18.2,17.6,34.5,36.9,48.1,58.3,14.7,23,25.5,47.8,33,74,3.6,12.7,6.7,25.6,8.8,38.7,1.8,10.9,3.1,21.8,3.2,33M565.9,430.1c1,.5,1.9,1.1,3,1.7.3-.6.6-1,.8-1.5,5.7-11.1,10.7-22.6,15.1-34.3,9.2-24.8,14.8-50.3,15.8-76.8.6-15.9-.5-31.7-3-47.4-2.1-13.1-5.1-26.1-8.8-38.9-6.7-23.5-16.1-45.9-28.8-66.7-17.6-28.9-39.6-54.1-65.4-75.9-28.9-24.5-61.7-42-98.1-52.6-12.8-3.7-25.8-6.5-38.9-8.6-10-1.6-20.1-2.6-30.2-3.2-10.4-.6-20.8-.6-31.2-.1-9,.4-18,1.2-26.9,2.4-12.5,1.7-24.9,4.2-37.1,7.4-34.6,9-66.2,24.2-94.7,45.9-19,14.4-35.8,31-51,49.3-18.3,22-33.3,46-44,72.6-7.1,17.6-12.3,35.7-16.3,54.2-3.6,17-5.7,34.2-5.8,51.6,0,8.4.4,16.8,1.3,25.2,1.2,11.8,3.3,23.4,6.3,34.8,5.4,21.3,13.6,41.6,23.5,61.1.2.5.5.9.9,1.5,23-13.2,46-26.3,69-39.4-.3-.7-.5-1.3-.8-1.8-4.2-9.6-7.8-19.4-10.8-29.4-4.7-15.4-7.7-31.1-8.7-47.2-.6-10.5-.3-20.9.9-31.3,1.7-14.8,5.2-29.1,10.4-43,11.2-29.6,28.6-55.2,51-77.5,16.3-16.2,34.9-29.4,55.6-39.5,26.5-12.8,54.4-20.1,83.8-21.4,11.9-.5,23.8.2,35.6,1.9,12.8,1.8,25.4,4.9,37.7,9,33.6,11.4,62.7,29.9,87.4,55.5,20,20.7,35.3,44.5,45.5,71.4,6.3,16.5,10,33.6,11.3,51.2.6,7.7.6,15.4.2,23.1-.5,9.3-1.7,18.6-3.6,27.7-3.3,16.3-8.5,32.1-15.1,47.4-.5,1.2-1.1,2.5-1.6,3.9,22,12.6,43.9,25.1,66.1,37.8Z"/>
  <path class="st15" d="M386.9,646.8c-1.9,0-3.6,0-5.6,0-5.5-1-10.8-2.2-16.1-3.1-8.1-1.4-16.2-2.6-24.3-3.7-9.6-1.3-19.2-2.1-28.8-2.2-4.5,0-9,.2-13.4.5-6,.4-11.9,1-17.8,1.7-11.6,1.3-23.1,3.3-34.6,5.8-3.2.7-6.5,1.1-9.8,1-3.1,0-5.4-1.5-6.7-4.3-.9-2.1-1.6-4.3-2-6.6-1.5-10.5-7.1-18.7-14.4-26-5.3-5.2-11.3-9.3-17.6-13.1-17.8-10.6-36.8-18.4-56.6-24.1-9.9-2.8-19.8-5.2-29.7-8.1-17.4-5-33.8-12.4-49.8-20.9-2.2-1.2-4.4-2.4-6.5-3.6-9.1-5.5-15.2-13.2-16.9-23.9-1.6-10-1-19.7,4.2-28.8,4.3-7.6,8.7-15.2,13.1-22.8,3.3-5.6,6.4-11.3,9.9-16.7,5.2-7.7,12.2-12.7,21.9-13,3.1,0,6.1.5,8.9,1.7,7,3,12.6,7.4,14.8,15,1.8,6.4,1.5,12.7-1.5,18.7-1.9,3.7-4.1,7.3-6.1,10.9-2.3,3.9-4.6,7.8-6.9,11.8-.3.5-.6,1.1-1,1.8,3.5,1.8,6.9,3.6,10.4,5.3,11.8,5.8,24.3,9.7,37.2,12.7,10.7,2.5,21.4,4.9,32.1,7.6,15.5,3.9,29.9,10.4,43.7,18.4,8.5,4.9,16.6,10.2,24.1,16.6,6.2,5.3,7,11.2,2.4,17.9-.9,1.3-2,2.5-3.2,3.6-3.4,3.1-6.9,6.1-10.4,9.1-.5.4-.9.8-1.6,1.4.6,0,.9,0,1.1,0,12.8-3.7,25.8-6.3,39.1-7.9,17.1-2,34.3-2.9,51.6-2.4,8.2.3,16.4.7,24.6,1.4,16,1.4,31.8,4.1,47.3,8.6.5.1.9.2,1.6,0-.5-.4-.9-.9-1.4-1.3-3.6-3.2-7.2-6.3-10.8-9.5-2.5-2.3-4.3-5.2-5.3-8.4-.9-3-.4-6,1.4-8.6,1.2-1.7,2.6-3.2,4.1-4.5,8.2-7,17.3-12.6,26.6-17.9,16.2-9.2,33.5-15.4,51.6-19.4,10.6-2.4,21.1-4.8,31.6-7.5,12.5-3.2,24.4-8.2,35.6-14.6.4-.2.8-.5,1.4-.8-.3-.5-.5-1-.7-1.5-3.9-6.7-7.7-13.3-11.6-20-2.9-4.9-4.3-10.1-4.1-15.8.4-7.5,3.5-13.4,9.7-17.6,2.8-1.9,5.8-3.3,9-4.4,1-.3,2.1-.4,3.1-.4,8.3-.7,15.1,2.2,20.8,8.1,1.8,1.8,3.4,3.8,4.7,6,6.8,11.7,13.6,23.3,20.4,34.9,2.3,3.9,4.5,7.9,5.4,12.4,2,9.1,1.9,18.2-1.6,27-3,7.4-8.3,12.8-15.1,16.7-20.8,11.9-42.6,21.3-65.8,27.1-11.4,2.9-22.8,5.8-33.9,9.7-17.8,6.2-34.8,14.1-50.5,24.7-8.1,5.4-14.9,12.3-19.7,20.8-2.3,4.1-3.6,8.5-4.4,13-.3,1.8-.8,3.7-1.4,5.4-1,2.8-2.8,4.8-6,5.5M579.8,502.5c-.7-4.3-2.5-8.2-4.6-11.9-4.5-7.7-9-15.3-13.5-23-.2-.3-.5-.6-.8-1.1-.2.7-.3,1.3-.5,1.8-1.7,7.4-5.1,13.8-10.4,19.3-5.1,5.2-11.1,9.2-17.4,12.7-11.7,6.3-24.1,11-36.9,14.6-11,3.1-22.1,5.7-33.3,8.2-26.6,6.1-50.8,17.3-72.4,33.8-1.8,1.4-3.7,2.7-5.4,4.3-3.1,2.9-3.2,6-.5,9.2.5.6,1.1,1.2,1.7,1.7,1.9,1.4,3.9,2.7,5.9,3.9,6,3.6,10.1,8.6,11.8,15.4.9,3.6.8,7.3.3,10.9,0,.7-.2,1.4-.3,2.4.8-.6,1.2-.9,1.6-1.2,6.3-5,12.8-9.7,19.7-13.8,10.3-6.3,21-12,32.5-15.7,8.3-2.7,16.6-5.3,25-7.6,12-3.3,24-6.5,35.7-10.8,15.4-5.8,30.7-11.9,45.4-19.4,2.5-1.3,4.7-2.8,6.6-4.8.8-.8,1.6-1.6,2.3-2.5,6.4-7.6,9.1-16.3,7.6-26.5M76.1,544.6c2.7,1.2,5.5,2.4,8.2,3.5,13,5.2,26.1,10.4,39.6,14.2,10.4,3,20.9,5.7,31.2,8.8,6.9,2,13.7,4.4,20.3,7.4,14.9,6.8,28.7,15.3,41.5,25.5.4.3.8.5,1.4.9-.1-.9-.2-1.5-.3-2.2-.4-3.2-.6-6.3,0-9.5,1.3-7.7,5.7-13.4,12.4-17.2,2.6-1.5,5.2-3,7.1-5.3,2.8-3.3,2.7-6.4-.4-9.4-1.3-1.3-2.9-2.4-4.3-3.5-18.9-14.5-39.6-25.4-62.6-31.8-9.9-2.7-20-4.9-30.1-7.3-14.5-3.5-28.7-8-42.4-14.2-7.8-3.5-15.2-7.6-21.9-13.1-7.2-5.9-12.2-13.2-14.4-22.3-.2-.8-.4-1.6-.7-2.7-.5.8-.9,1.4-1.2,1.9-4,6.8-8,13.5-11.9,20.3-1.1,1.9-2.2,3.8-3.1,5.7-3.6,7.4-4,15.1-1.7,22.9,1.8,6.1,5.4,11,9.9,15.3,1.4,1.3,2.9,2.5,4.7,3.3,6.1,2.9,12.1,5.7,18.5,8.7M312,631.7c9.6.2,19.1,1.1,28.6,2.3,10.3,1.4,20.5,3.1,30.7,5.2,3,.6,6,1.3,9,1.8,3.7.7,5.7-.5,7-3.9,0-.2.2-.5.2-.7,2.1-6,4.2-12,6.3-18,1.3-3.9,2.7-7.7,4-11.6,1.3-4,.1-7.1-3.6-9.1-.6-.3-1.2-.6-1.8-.9-6.6-3.1-13.5-5.3-20.6-7-13.5-3.2-27.2-5-40.9-5.9-12.9-.9-25.7-.9-38.6-.2-13.2.8-26.2,2.4-39.2,4.9-8.4,1.6-16.6,3.8-24.8,6-2.9.8-4.2,2.8-3.8,5.8,0,.6.2,1.2.4,1.8,3.3,10.7,6.5,21.4,9.8,32.1,1.2,3.7,3.2,5.1,7.1,5,.6,0,1.2-.1,1.8-.2,8.5-1.4,16.9-2.9,25.4-4.1,8.7-1.2,17.5-2.2,26.3-2.9,5.4-.5,10.9-.2,16.8-.3M551.1,474.1c1.9-3.1,3.3-6.4,3.7-10.1.5-4.2-.8-8-2.6-11.7-3.9-8.1-10.9-11.6-20.4-9.9-1.5.3-3,.8-4.3,1.6-6.3,3.8-9.4,9.5-9.9,16.8-.2,2.4.5,4.7,2.1,6.6,2.9,3.3,8.1,4.5,12.2,2.9,1.7-.7,3.5-1.3,5.3-1.8,2.7-.7,4.4,0,5.9,2.4.8,1.3,1.3,2.7,2,4,.4.8.7,1.7,1.1,2.6.8,1.4,1.6,1.5,2.6.2.8-1,1.4-2.2,2.2-3.5M76.8,474.4c.6-1.2,1.1-2.4,1.8-3.5,1.5-2.5,3.2-3.2,6-2.4,1.9.5,3.8,1.2,5.6,1.9,4.2,1.6,10.3-.3,12.6-4.2.7-1.1,1.1-2.5,1.2-3.8.4-4.2-.6-8.2-2.8-11.6-5.1-7.7-10.7-9.8-19.3-8.4-3.1.5-5.8,1.9-8.1,4-4,3.8-6.1,8.6-6.8,14-.9,6.7,2.4,12.1,6,17.4.8,1.1,1.6,1,2.3-.2.5-.9.9-1.9,1.4-3.1M91.4,486c.9-1.8,2-3.6,2.8-5.4.7-1.7.3-2.4-1.4-3.2-.4-.2-.9-.4-1.4-.5-1.5-.4-3-.8-4.5-1.1-2.2-.5-3.4,0-4.5,1.9-.8,1.3-1.4,2.6-2.2,3.9-1.1,1.8-1.1,2.6.6,4,1.6,1.3,3.3,2.5,4.9,3.7,1.5,1.1,2.6,1,3.9-.5.6-.8,1.1-1.6,1.8-2.7M528.2,482c1.3,2.1,2.5,4.3,3.8,6.4.3.5.8.9,1.3,1.3.7.5,1.5.5,2.1,0,2.1-1.5,4.2-3.1,6.2-4.7.8-.6.9-1.6.4-2.5-1-1.7-1.9-3.5-3-5.2-.9-1.4-2.2-1.9-3.8-1.5-1.7.4-3.4.8-5.1,1.3-.6.2-1.2.4-1.7.7-1.2.7-1.4,1.3-1,2.6.1.5.3.9.6,1.7Z"/>
  <path class="st15" d="M342.7,236.2c.3,0,.6,0,.9,0,29.7,0,59.4,0,89.3,0,.9,0,1.7,0,2.4,0,14.6,0,29.1,0,43.7,0,.7,0,1.4,0,2.2,0,0,1,.2,1.9.2,2.8.7,15.5.8,31.1,0,46.6-.9,18.3-2.9,36.4-6.2,54.4-6.8,36.2-18.8,70.4-37.7,102.1-15.6,26.2-35.2,49.1-58.1,69.1-20.5,17.9-43,32.8-67,45.6-.9.5-1.6.7-2.6.1-25-13-48.4-28.3-69.7-46.9-35.6-31.1-61.6-68.8-78.1-113-7-18.6-12.1-37.7-15.8-57.3-2.2-11.7-4-23.5-5-35.4-.9-10.2-1.6-20.5-2-30.7-.4-11.2-.2-22.4-.3-33.6,0-1.2,0-2.5,0-4,16.6,0,32.9,0,49.4,0,.6,0,1,0,1.5,0,30.4,0,60.9,0,91.7,0,20.3,0,40.2,0,60.2,0,.4,0,.7,0,1.1,0M429.9,241.6c-83.3,0-166.5,0-249.8,0-11.8,0-23.6,0-35.5,0,0,0-.1,0-.2,0,0,0,0,0-.3.4,0,.8,0,1.8,0,2.9-.1,11.4-.1,22.8.6,34.1.6,9.1,1.1,18.3,2,27.4,1.1,11.5,2.9,22.9,5.1,34.3,3.7,19.1,8.8,37.9,15.8,56.1,15.9,41.6,40.3,77.3,73.4,107,20.9,18.7,44.1,34.1,68.8,47.2,1,.5,1.7.4,2.6-.1,5.8-3.3,11.6-6.5,17.3-10,24.5-14.9,47-32.4,66.7-53.3,25.4-26.9,44.6-57.6,57.9-92.2,11.8-30.8,18.3-62.7,20.9-95.5.7-9.1,1.2-18.3,1.4-27.4.2-9.9-.1-19.8-.2-29.7,0-.4-.1-.8-.2-1.3h-46.2Z"/>
  <path class="st17" d="M343.2,171.1c3.8-.8,7.3-.6,10.8.5,6.3,1.9,10.7,6.1,12.8,12.3,3.1,9.2,1.6,18-4.3,25.8-5.2,6.8-13.8,7.9-21.1,3.6-1.9-1.1-3.8-2-6-2.5-2.9-.6-5.2.3-6.6,3-.7,1.3-1.1,2.6-1.6,4-.2.6-.3,1.2-.5,1.8h-27.7c-.4-1.3-.8-2.5-1.2-3.7-1.6-4.8-4.9-7.9-9.6-9.7-3.3-1.2-6.7-1.8-10.2-1.2-.9.1-1.9,0-2.8.1-4.6.1-9.2.3-13.8.4-4.4,0-8.2-4.1-8-8.7,1.8-.2,3.7-.4,5.8-.7-.3-.5-.5-1-.7-1.4-2.4-3.9-3.8-8.1-3.8-12.7,0-2.5.3-5.1,1.5-7.4,1.4-2.8,2.7-5.7,3.9-8.7.7-1.6,1.2-3.4,1.9-5.5.4,1,.5,1.6.8,2.2,1,2.6,2,5.2,3.1,7.8.3.8.9,1.5,1.4,2.2,2.6,3.7,3.5,7.9,3.1,12.4-.2,3.1-.9,6-1.8,8.9,0,.3-.1.7-.2,1.4,20-1.5,39.7-3.2,59.7-4.8.3-1.2.5-2.3.8-3.4.5-1.8,1.1-3.7,1.8-5.5,2.1-5.4,6.2-8.4,11.6-9.9.3,0,.6-.2,1.1-.3M340.8,180.9c-.4.5-.8,1-1.2,1.4-1.9,2.5-1.5,5,.9,6.6,1.7,1.1,2.8,2.9,3,5,.2,2.7.4,5.4.4,8.2,0,4.1.3,4.5,4.4,5.1,5.2.8,8.7-1,10.8-5.8,1.7-3.6,1.9-7.5,1.3-11.3-.3-1.9-.7-3.8-1.5-5.5-2.2-4.6-6.3-6-11-6.5-2.7-.2-5,.6-7.1,2.8Z"/>
  <path class="st5" d="M342.7,236.1c-.4.2-.7.3-1.1.3-19.9,0-39.9,0-60,0-.2-3.8-.2-7.5-.2-11.2,1.5-.4,58.9-.5,61.3-.1,0,3.6,0,7.2,0,11.1Z"/>
  <path class="st13" d="M565.8,430c-22-12.6-44-25.1-65.9-37.7.6-1.4,1.1-2.6,1.6-3.9,6.5-15.3,11.7-31,15.1-47.4,1.9-9.2,3.1-18.4,3.6-27.7.4-7.7.4-15.4-.2-23.1-1.3-17.6-5-34.7-11.3-51.2-10.3-26.9-25.6-50.7-45.5-71.4-24.6-25.6-53.7-44.1-87.4-55.5-12.3-4.1-24.8-7.2-37.7-9-11.8-1.7-23.7-2.4-35.6-1.9-29.4,1.3-57.3,8.6-83.8,21.4-20.7,10-39.3,23.2-55.6,39.5-22.4,22.3-39.8,47.8-51,77.5-5.3,13.9-8.7,28.3-10.4,43-1.2,10.4-1.5,20.8-.9,31.3.9,16.1,4,31.8,8.7,47.2,3,10,6.7,19.8,10.8,29.4.2.6.5,1.1.8,1.8-23,13.1-45.9,26.2-69,39.4-.3-.6-.6-1-.9-1.5-9.9-19.6-18.1-39.8-23.5-61.1-2.9-11.5-5-23.1-6.3-34.8-.9-8.4-1.3-16.8-1.3-25.2.1-17.4,2.2-34.6,5.8-51.6,4-18.5,9.2-36.6,16.3-54.2,10.8-26.6,25.7-50.6,44-72.6,15.2-18.3,32.1-34.9,51-49.3,28.5-21.7,60.1-36.9,94.7-45.9,12.2-3.2,24.6-5.7,37.1-7.4,8.9-1.2,17.9-2,26.9-2.4,10.4-.5,20.8-.4,31.2.1,10.1.6,20.2,1.6,30.2,3.2,13.2,2.1,26.2,4.8,38.9,8.6,36.4,10.6,69.2,28.1,98.1,52.6,25.8,21.9,47.8,47,65.4,75.9,12.7,20.9,22.1,43.3,28.8,66.7,3.7,12.8,6.7,25.7,8.8,38.9,2.5,15.7,3.6,31.5,3,47.4-1,26.5-6.6,52-15.8,76.8-4.4,11.7-9.4,23.1-15.1,34.3-.2.5-.5,1-.8,1.5-1-.6-2-1.1-3.1-1.7M126.5,129.1c9.4,2.2,18.7,4.5,28.1,6.7,3.1.7,6.2,1.4,9.2,2.2.7.2,1.3.2,1.6-.7-.5-.6-1-1.1-1.5-1.7-7.7-8.5-15.4-17.1-23.1-25.6-2.2-2.4-2.2-3-.4-5.6-.3-.7-.7-.8-1.3-.3-2,1.8-4.1,3.7-6.1,5.5-.6.5-.4.9.2,1.3,2.9-1.7,3.6-1.6,5.9,1,0,0,0,0,.1.1,4,4.4,8,8.9,12,13.3.4.4.7.9.9,1.4,0,0-.1.1-.4.1-1.6-.4-3.1-.7-4.7-1.1-7.8-1.9-15.7-3.8-23.5-5.7-1.1-.3-1.9-.1-2.7.7-1.7,1.6-3.5,3.2-5.2,4.8-.3.3-.6.7-1.1,1.2.4.2.7.5.9.4,1.5-.4,2.8.2,4.2.3,1.1.1,1.9.6,2.7,1.5,6.4,7.2,12.9,14.3,19.3,21.5.5.6,1.1,1.2,1.5,1.9.7,1.1.6,2.1-.2,3.1-.4.5-.7.9-1.4,1.8.8,0,1.2,0,1.4,0,2.3-2,4.6-4,6.8-6.1.5-.5.3-.9-.3-1.1-.2,0-.3.2-.5.3-2.1,1.3-3.2,1.2-4.9-.5-.4-.4-.8-.8-1.1-1.2-3.4-3.7-6.7-7.5-10.1-11.2-2.3-2.6-4.6-5.2-6.8-7.9,0,0,0,0,.4-.1M489.3,135.1c-1.6-1.6-3.2-3.3-4.8-4.9,3.5-3.5,6.7-6.9,10.1-10.2,1.5-1.5,2.6-1.5,4.5-.2.5.4.9.6,1.2,0-3.9-3.9-7.7-7.7-11.6-11.6-.4.2-.4.5,0,1.1,1.4,2.2,1.4,3.1-.5,5-7.5,7.5-15,15.1-22.6,22.6-1.8,1.8-2.9,1.8-4.9.3-.2-.1-.4-.2-.6-.4-.2.2-.4.4-.6.7.4.5.9.9,1.3,1.4,2.8,2.8,5.5,5.5,8.3,8.3.5.5,1,1,1.5,1.4.5.5.9.3,1.2-.3-.2-.3-.4-.6-.6-.9-1-1.5-1-2.5,0-3.9.4-.5.8-.9,1.3-1.4,2.4-2.4,4.7-4.8,7.1-7.1,1-1,1.9-1.9,2.7-2.7,2.9,2.9,5.7,5.8,8.6,8.6-3.4,3.4-6.9,7-10.5,10.6-1.7,1.7-3.2,2.1-5.2.1,0,0-.2,0-.3,0-1.1.6-.3,1.1.2,1.6,3.2,3.2,6.3,6.3,9.5,9.5.4.4.8.7,1.2,1.1q.7-.8.4-1.2c-1.4-2.3-1.4-3.1.5-5,7.4-7.5,14.8-14.9,22.3-22.3,2-2,2.7-2,5.2-.5.7.5,1,0,1-.2-3.9-3.9-7.7-7.7-11.5-11.5,0,0-.2,0-.3.2,0,0,0,.2-.2.4.2.2.4.4.5.7,1.2,1.6,1.2,2.6-.1,4.2-.3.3-.6.7-.9,1-2.9,2.9-5.8,5.8-8.7,8.7-.2.2-.6.4-1,.7-1.2-1.2-2.3-2.4-3.6-3.8M401.9,97.1c-.6,1-1,2-1.7,2.8-.9,1-2.2.6-3.3.4-.2,0-.5.4-.7.7.3.2.4.3.5.4,4.6,1.8,9.2,3.5,13.7,5.3.2,0,.5.2.7.2.2,0,.5-.2.6-.3,0-.2,0-.5-.1-.7-.2-.2-.5-.3-.8-.5-1.4-1-1.8-1.8-1.4-3.5.2-.7.4-1.4.7-2.1,3.5-9.2,7.1-18.4,10.6-27.7.2-.6.5-1.3.8-1.9.7-1.3,1.8-1.9,3.2-1.6.5,0,.9,0,1.4.1.4-1.1-.4-1.1-.9-1.3-4.3-1.7-8.7-3.4-13-5-.3-.1-.7-.2-.9-.2-.6.8,0,1,.4,1.4,1.9,1.1,2.2,1.9,1.6,4-.1.4-.3.8-.4,1.2-1.4,3.7-2.8,7.3-4.2,10.9-.2.4-.4.9-.6,1.4-3.8-1.5-7.5-2.9-11.2-4.3.2-.5.3-1,.4-1.4,1.4-3.8,2.9-7.5,4.3-11.3.2-.5.4-.9.6-1.4.6-1.2,1.7-1.8,3.1-1.6.5,0,1.1.2,1.5.2.6-1-.2-1.1-.7-1.3-4.5-1.7-8.9-3.4-13.4-5.1-.3,0-.6-.1-.9-.2q0,.9.6,1.3c1.7,1.1,2.1,2.1,1.5,4.1,0,.3-.2.6-.3.9-3.6,9.5-7.3,19-10.9,28.5-.3.8-.6,1.5-1,2.2-.6,1-1.5,1.4-2.7,1.3-.4,0-.7-.1-1.1-.2-.8-.2-.7.3-.9.8.4.2.6.3.9.5,4.3,1.7,8.7,3.3,13,5,.2,0,.5.2.7.2.3,0,.5-.1.8-.2-.1-.3-.2-.7-.4-.9-2.3-1.7-2.6-2.3-1.6-5,1.7-4.5,3.4-8.9,5.1-13.4,0-.2.2-.3.4-.5,3.7,1.4,7.4,2.9,11.2,4.3-1.7,4.5-3.4,8.8-5.1,13.4M533.3,248.3c1.8-.6,3.5-1.2,5.3-1.7,3.7-1,7.4-1.9,11.3-2.8,1,4,2,7.8,2.9,11.6-.2.1-.3.3-.4.3-4.9,1.2-9.7,2.6-14.6,3.7-2.4.6-3.2,0-4.2-2.2,0-.2-.2-.4-.3-.6-.9,0-.9.5-.8,1.1.5,1.8.9,3.6,1.4,5.4.7,2.9,1.5,5.8,2.2,8.7.2.7.5.9,1.2.5,0-.4,0-.7,0-1,0-2,.5-2.8,2.4-3.5.6-.2,1.3-.4,2-.6,5.4-1.3,10.7-2.7,16.1-4,4.3-1.1,8.7-2.1,13-3.2,2.7-.7,4.3-.3,5.1,2.5,0,0,.2.1.3.2,1-.1.7-.8.5-1.4-1-4-2-8.1-3-12.1-.2-.7-.3-1.3-.5-2-.1-.3-.5-.4-.9-.6-.1.5-.2.6-.2.8,0,3-.2,3.5-3.1,4.3-2.3.6-4.7,1.2-7,1.8-2,.5-4.1,1-6.2,1.5-1-4.1-2-7.9-3-11.9,4.7-1.2,9.2-2.4,13.8-3.4,2.3-.5,3.2,0,4.2,2.2,0,.2.2.4.3.6,1.2,0,.9-.6.7-1.2-.8-3.4-1.7-6.8-2.5-10.1-.3-1.3-.6-2.7-1-4-.2-.8-.6-.8-1.2-.4.3,3.1-.3,4-3.2,4.7-10.2,2.6-20.4,5.1-30.6,7.6-2.7.7-3.6.2-4.7-2.5,0-.1-.2-.2-.3-.3-1.1,0-.8.9-.6,1.5.8,3.2,1.6,6.4,2.4,9.6.3,1.4.7,2.8,1,4.2.2.6.4,1.1,1.2.6,0-1.3-.5-2.7,1.1-3.9M97.2,229.3c.9,0,.8-.8,1-1.3,1.5-3.9,2.9-7.8,4.3-11.7.3-.7.5-1.4.7-2.1-.7-.6-1-.3-1.4.3-1.3,2-2.1,2.3-4.4,1.6-.2,0-.3-.1-.5-.2-9.8-3.6-19.6-7.1-29.4-10.7-2.6-.9-3-1.7-2.7-4.5,0-.7-.2-.9-1-.8-1.8,5-3.7,10.1-5.5,15.2q1,.2,1.5-.5c1-1.7,1.8-2.1,3.7-1.7.3,0,.6.2.9.3,4.1,1.5,8.3,3,12.4,4.5.2,0,.3.2.5.4-1.3,3.7-2.7,7.4-4.1,11.2-.4-.1-.7-.2-1-.3-4-1.4-8-2.9-11.9-4.3-2.6-1-3-1.6-2.7-4.5,0-.7-.2-.9-1-.9-1.8,5.1-3.7,10.2-5.5,15.2,1.1.7,1.2-.1,1.5-.6,1-1.6,2-2,3.8-1.5.7.2,1.3.4,1.9.6,4.3,1.6,8.6,3.2,13,4.7,5.2,1.9,10.4,3.8,15.6,5.7,2.8,1,3.2,1.9,2.6,4.8,0,0,0,.2.2.4.2,0,.4.1.8.3,1.9-5.2,3.7-10.3,5.6-15.3-1-.7-1.2,0-1.5.5-1,1.7-1.9,2.1-3.9,1.6-.4-.1-.8-.2-1.2-.4-4.1-1.5-8.2-3-12.3-4.5-.4-.2-.9-.4-1.4-.6,1.4-3.8,2.7-7.5,4.1-11.3.5.1.8.2,1.1.3,4.3,1.6,8.6,3.1,13,4.7.4.1.8.3,1.2.5,1.6.9,2,1.8,1.7,3.5,0,.4,0,.8.3,1.3M225.3,57.9c-2,.4-4.1.7-6,1.3-4.2,1.2-8.3,2.7-12.4,4-.4.1-.8.3-1.2.5q.5.9,1.2.8c2-.3,2.8.2,3.7,2,.2.4.3.8.5,1.2,3.2,9.7,6.3,19.5,9.5,29.2.2.7.4,1.4.4,2.2.1,1.2-.3,2-1.4,2.6-.5.3-.9.5-1.4.8.5,1.1,1.2.6,1.8.4,4.9-1.6,9.8-3.1,14.7-4.8,1.9-.7,3.6-1.6,5.3-2.7,1.6-1,2.8-2.4,3.8-4,3.1-5.2.9-14.2-7.4-15.1-1.5-.2-3,0-4.5,0-.6,0-1.2.1-1.8.2.4-.5.8-.8,1.3-1.1,1-.7,2.1-1.4,3-2.2,5.5-4.9,2.1-13.1-3.1-14.8-1.9-.6-3.8-.8-6-.6M178.6,126.7c2-1.5,4.2-2.9,6.1-4.6,4.2-3.8,6.1-8.7,5-14.3-1.6-8.3-6.1-14.9-13.3-19.4-2.4-1.5-5.1-2.2-8-2.2-3.5,0-6.6,1.2-9.4,3.1-4.1,2.7-8.2,5.5-12.2,8.2-.3.2-.6.5-.9.8.4,1.1,1,.6,1.5.4,1.8-.7,2.7-.5,3.9.9.2.3.5.6.7.9,5.8,8.6,11.6,17.2,17.4,25.8,1.5,2.1,1.6,3.9-.6,5.5,0,0-.1.2-.2.4.2.2.3.4.6.7,3.1-2.1,6.1-4.1,9.4-6.3M555.4,310c1.3,0,2.6,0,3.9,0,4.2-.3,8.2-1.2,12-3.2,6.7-3.6,9.7-10,9.1-16.5-.7-7.5-4.8-12.6-12-15.1-4.2-1.4-8.6-1.4-12.9-.9-4.1.5-7.9,1.6-11.3,3.9-10.8,7.3-9.6,23.8,2.1,29.6,2.8,1.4,5.7,2,9.2,2.2M63.9,359.6c5-.1,9.9-.9,14.4-3.4,6.6-3.6,9.9-9.9,9-17.6-.7-6-4.8-12.1-12.5-14.3-4.9-1.4-9.8-1.1-14.8,0-3.8.8-7.2,2.2-10.2,4.7-9.3,7.7-7.6,22.7,3.1,28.2,3.3,1.7,6.9,2.3,11,2.3M249.4,78c.6,1.2,1.1,2.4,1.7,3.5,3.7,6.2,10.3,9.5,17.2,8.3,7.3-1.2,12.1-5.4,14.3-12.5,1.3-4.5,1-9.1,0-13.7-.8-3.7-2-7.2-4.3-10.2-3.7-5-8.7-7.4-14.8-7-8.9.6-15.3,7.1-16.2,15.9-.6,5.3.2,10.4,2.1,15.7M571.9,322.8c-7.4-4.8-15.5-5.9-24-3.8-9.6,2.4-14.9,12.5-11.8,22,1.8,5.5,5.7,9.1,11.1,11.1,5.1,2,10.5,2.5,16,1.9,4-.5,7.6-2,10.5-4.8,7.6-7.2,7-19.9-1.8-26.3M440.2,125.2c4.4,4.5,9.8,6.6,15.9,7.1.5-.8.9-1.3,1.3-1.9,1.5-2.2,3-4.4,4.6-6.6,1.1-1.5,2.4-2.6,4.4-1.5.6.3.9-.2.9-.8-4.2-2.8-8.3-5.6-12.5-8.4-.2-.1-.5-.3-.6-.3-.2,0-.4.3-.8.6.5.5.9.8,1.3,1.2,1,.9,1.2,2,.7,3.2-.2.6-.6,1.1-.9,1.6-1.5,2.2-3,4.4-4.5,6.7-1.1,1.7-1.7,1.8-3.5,1.1-2.8-1.2-4.4-3.7-4.2-6.8.1-2.2.9-4.3,1.9-6.2,3.1-6.1,6.9-11.6,11.6-16.6,1.3-1.3,2.8-2.5,4.4-3.4,3.5-2,7-1.2,9.4,2.1,1.5,2.1,2.1,4.5,1.9,7.1-.2,2-.8,4-1.2,6-.1.6-.3,1.2.8,1.4,2.6-3.8,5.2-7.7,7.8-11.5-.9-1-1.4-.2-1.9.1-1.4.9-2.2.7-3.1-.7-.4-.7-.8-1.4-1.2-2.1-2-3.4-4.9-5.6-8.8-6.5-5.2-1.2-10,0-14.4,2.8-5.8,3.7-9.8,8.9-12.2,15.4-2.2,6.1-1.4,11.9,3.1,17.1M47.1,313.6c2.1,0,4.2.1,6.3.2,6.7.2,13.3.5,20,.6,4.9,0,8.3-2.3,9.9-6.7,1.6-4.3,1.8-8.6.5-13-1-3.6-3.4-5.9-7-6.8-2-.5-4.2-.6-6.3-.7-7.6-.3-15.3-.5-22.9-.8-2.7,0-3.2-.5-4-3.2,0-.3-.5-.5-1.1-.9-.2,3.5-.3,6.5-.4,9.4.9.5,1.2,0,1.3-.6.3-1.5,1.4-2.1,2.8-2.2.9,0,1.7-.1,2.6-.1,8,.3,15.9.5,23.9.9,1.3,0,2.6.3,3.9.6,3,.7,4.6,2.8,5.1,5.8.2,1.3.2,2.7,0,4.1-.4,3.1-2.4,5.2-5.6,5.6-1,.1-2,.2-3,.2-8.6-.3-17.3-.6-25.9-.9-2.9-.1-3.3-.4-4.3-3.1-.2-.7-.6-.6-1.2-.4-.2,5.1-.3,10.2-.5,15.2,1.1.4,1.2-.2,1.3-.8.4-1.6,1.5-2.4,3.1-2.4.4,0,.7,0,1.5,0M503.9,187.8c.4,1.6.7,3.3,1.3,4.8,1.4,3.4,3.9,5.8,7.4,6.8,7.5,2.2,16-3.6,16.7-11.4.2-2.2,0-4.5.1-6.7,0-2.5,0-5,.3-7.4.3-2.7,2.5-4.6,5.1-5,2.5-.4,4.9.9,6.2,3.3.9,1.7,1.2,3.5.8,5.4-.5,2.8-1.9,5.1-3.8,7.1-.4.4-.8.8-1.2,1.2-.6.5-.4,1,.3,1.4,3.7-2.4,7.5-4.8,11.2-7.2q-.7-.9-1.5-.7c-1.7.3-2.3-.1-2.6-1.8-.2-1-.2-2.1-.4-3.1-.6-5-4.1-8.9-8.7-9.7-5.9-1-12.7,3.3-13.9,9.3-.6,2.8-.5,5.8-.7,8.7-.2,2.4-.1,4.7-.4,7.1-.4,4-5.1,5.9-7.9,5.7-3.2-.3-5.6-3.1-5.7-6.8-.2-3.9,1.6-7.1,4.1-9.9.7-.7,1.4-1.4,2.1-2.1.5-.4.5-.8-.2-1.4-4.3,2.6-8.7,5.2-13.1,7.9q.7.8,1.6.7c1.4,0,2.1.4,2.5,1.7.2.6.3,1.2.4,2.1M84.1,368.1c.4,0,.7-.2,1.1-.2,3.9-.5,6.9,1.7,7.4,5.6.3,2.4-.4,4.6-1.7,6.5-1.6,2.5-3.8,4.2-6.4,5.6-.6.3-1.2.6-1.7.9,0,1.2.6,1,1.3.8,4.3-1.2,8.6-2.5,12.9-3.7.3,0,.6-.3.9-.4,0-.8-.5-.8-1-.9-1.8-.3-2.2-.8-2.2-2.6,0-1.4.3-2.9.3-4.3.2-7.7-5.3-13.4-12.7-12.8-5.9.5-10.2,3.4-12.2,9.1-.9,2.7-1.4,5.5-2.2,8.3-.5,1.8-1.1,3.6-1.9,5.2-1.2,2.2-3.4,3.1-5.9,2.8-2.4-.3-4-1.6-4.8-3.9-.8-2.2-.6-4.4.4-6.5,1.1-2.2,2.8-3.9,4.8-5.3.7-.5,1.4-.8,2.1-1.3.7-.4.5-.9,0-1.4-4,1.2-7.9,2.5-11.8,3.7-.2,0-.6.2-.6.3,0,.3,0,.7.1,1.1,0,.1.5,0,.7,0,1.9.2,2.5.9,2.2,2.8-.2,1-.4,2.1-.5,3.1-.6,5.2,2.4,10.1,7.1,11.6,4.5,1.4,12.1.2,15.1-6.5.9-2.1,1.6-4.3,2.3-6.5.8-2.4,1.4-4.8,2.2-7.1.7-2.1,2.3-3.5,4.8-4.2M337.1,72.9c2.4,2.7,2.6,6.3.6,9.2-1.2,1.7-2.8,2.6-4.9,2.6-2.3,0-4.2-.9-5.9-2.5-2.1-2-3.4-4.5-4.1-7.2-.3-1.2-.5-2.4-.7-3.7-.1-.7-.5-.8-1.2-.5-.4,5-.7,10.1-1.1,15.1,1,.5,1.2-.1,1.5-.7.9-1.4,1.5-1.6,3.1-1,.7.3,1.3.6,2,.9,1.3.5,2.6,1.1,4,1.5,4.9,1.3,9.8-.6,12.6-4.7,2.2-3.3,2.7-7,1.9-10.9-.7-3.2-2.4-5.7-5-7.6-2.2-1.6-4.5-3.1-6.7-4.7-1.4-1-2.7-2-3.8-3.2-1.7-1.8-1.9-4-1-6.3.9-2.3,2.7-3.5,5.2-3.7,2.3-.1,4.3.7,5.9,2.3,1.8,1.7,2.9,3.9,3.6,6.2.3,1,.4,1.9.6,2.9.1.6.5.8,1.2.5.2-4.2.3-8.4.5-12.6,0-.1,0-.3,0-.4-.1-.2-.3-.4-.5-.5-.2,0-.5,0-.6.2-.2.3-.3.7-.4,1-.6,1.2-1.2,1.4-2.4,1-.5-.2-1-.5-1.5-.7-1.3-.6-2.5-1.4-3.9-1.8-5.2-1.7-10.4.5-12.7,5.4-2.2,4.8-2.2,10.9,2.9,15.3,1.8,1.6,3.7,2.9,5.6,4.3,1.7,1.3,3.3,2.6,5.2,4.1M87,260.2c-.6,1.4-1.8,1.8-3.2,1.7-.7,0-1.4-.2-2-.3-8.8-1.7-17.6-3.4-26.4-5.1-2.1-.4-4.2-.8-6.5-1.3.5-1.4.8-2.6,1.2-3.7.9-2.3,2.5-3.7,5-4,1.2-.1,2.4-.2,3.5-.2.7,0,1.1-.2.8-1.1-3.5-.7-7-1.3-10.6-2.1-1.9,10-3.9,19.8-5.8,29.8,3.8.7,7.3,1.4,10.7,2.1.5-.9,0-1.2-.5-1.4-1.1-.4-2.2-.9-3.2-1.4-1.8-1-2.8-2.6-3-4.7-.2-1.6,0-3.2.5-4.7.3,0,.5,0,.6,0,8.9,1.7,17.8,3.5,26.7,5.2,2.3.4,4.5.9,6.8,1.4,2.4.6,3.1,1.7,2.8,4,0,.2-.2.6,0,.7.1.2.5.4.9.7.2-.8.4-1.4.5-2,.3-1.6.7-3.3,1-4.9.6-3.2,1.2-6.3,1.9-9.5.1-.7.2-1.2-.9-1.1-.2.6-.3,1.2-.6,2M559.6,203.3c-3.2-5.1-8-7.3-13.8-7.6-7.7-.4-14.4,2.2-20.3,7.1-2.1,1.8-3.8,3.9-5,6.4-4.2,8.8.4,19.3,9.6,22.1,1.7.5,3.1.3,4.6-1-.8-.3-1.6-.4-2.2-.7-1.9-.8-3.9-1.4-5.6-2.5-3.4-2.2-5.8-7-2-12,.8-1.1,1.8-2.1,2.9-2.9,5.8-4.3,12.2-7.4,19.3-9,2.4-.5,4.8-.5,7.2.3,3.2,1.2,5.1,4,5,7.3,0,2.4-1,4.5-2.5,6.3-1.1,1.3-2.4,2.3-3.7,3.4-.6.5-.8.9,0,1.4,4.1-1.9,8.3-3.9,12.8-6-.6-.4-.9-.7-1.2-.8-.3,0-.6.1-.9.2-1.6.2-2-.2-2.2-1.8,0-.7,0-1.4,0-2,.2-2.9-.4-5.6-1.9-8.3M288,44h-2.9c-.3.8,0,1.2.6,1.3,1.3.2,2,1.1,2.5,2.3.2.5.5,1,.7,1.5,2.8,6.7,5.6,13.4,8.3,20.2.2.5.4.9.4,1.4.1,3.6.2,7.2.2,10.8,0,1.9-.9,2.7-2.9,3-.8.1-1.5.2-2.3.3,0,1.2.8,1,1.3,1,5.5,0,10.9-.2,16.4-.3.2,0,.6,0,.7,0,.3-.2.4-.5.9-1.1-1,0-1.6,0-2.1,0-2.3-.2-3.2-1-3.4-3.4,0-.6,0-1.1,0-1.7,0-3-.2-6-.2-8.9,0-1.2.2-2.3.6-3.4.6-1.9,1.3-3.8,1.9-5.6,1.6-4.6,3.2-9.1,4.9-13.7.4-1.2.8-2.3,2.2-2.9.2,0,.2-.7.3-1h-8.2q.2,1,.9,1.2c2,.4,2.4,1,2,3-.1.7-.3,1.3-.5,2-1.7,4.8-3.4,9.6-5.1,14.4-.1.4-.3.7-.5,1.3-.3-.4-.4-.6-.5-.9-2.3-5.5-4.5-11-6.8-16.6,0-.1,0-.2-.1-.4-.5-1.6-.1-2.3,1.5-2.7.5-.1,1-.2,1.6-.3,0-1.3-.9-.9-1.5-.9-3.5,0-7.1.1-11,.2M557,365.8c-6-1.7-11.9-3.4-17.9-5.1-1-.3-1.9-.5-2.8-.9-1.8-.7-2.3-1.5-2.1-3.4,0-.6.1-1.2.2-2-.5.1-.9.1-1.1.3-.2.3-.3.8-.4,1.2-2.4,8.4-4.8,16.7-7.2,25.1-.1.5-.2,1-.4,1.6,4.5,1.8,8.8,3.6,13.2,5.3.6-.9.2-1.3-.4-1.6-1.2-.8-2.5-1.7-3.6-2.6-4.9-4-5.1-8-3-14.1.4-1.1,1.2-1.5,2.4-1.4.8.1,1.6.3,2.4.5,9.4,2.7,18.9,5.4,28.3,8.1.7.2,1.3.4,1.9.7,1.3.6,1.8,1.6,1.7,3,0,.8-.3,1.6-.5,2.3,1.1.7,1.2-.2,1.3-.8,1.5-5.1,3-10.3,4.4-15.4,0-.3,0-.7,0-1.3-.5.3-.8.4-1,.6-.2.4-.3.8-.5,1.2-.6,1.3-1.6,2-3.1,1.8-.6,0-1.1-.2-1.6-.3-3.3-.9-6.6-1.9-10.2-2.9M112.8,192.9c-.4.9-.8,1.8-1.3,2.7-1.8,3.3-2.6,3.5-5.8,1.6-8.5-5.1-16.9-10.2-25.4-15.3-.5-.3-1.1-.6-1.5-1-1.2-1-1.5-1.9-.9-3.5.3-.7.7-1.4,1-2.2-.4-.2-.6-.3-.9-.4-3.1,5.2-6.2,10.4-9.3,15.5.3.2.5.4.6.4.1,0,.4,0,.5-.1.2-.2.4-.5.5-.7,1.4-1.9,2.6-2.2,4.7-1.1.4.2.8.4,1.1.7,5.4,3.2,10.8,6.5,16.1,9.7,3.4,2,6.8,4.1,10.2,6.2,2.5,1.5,2.7,2.5,1.6,5.1,0,.2-.2.3-.3.5-.3.7.1.9.8.9,5-8.3,10-16.7,15.1-25.1-3.9-2.9-7.7-5.8-11.5-8.7-.3,1.2-.3,1.2.2,1.8,1.2,1.5,2.5,3,3.5,4.6,1.7,2.6,2.1,5.4,1,8.7M117.4,151.1c-2.8-1.1-5.5-2.3-8.3-3.4-3.2-1.3-6.4-2.6-9.6-4-.8-.3-1.4-.5-1.7.6.3.5.7,1,1,1.5,6.3,9.5,12.6,19,18.9,28.4.9,1.3,1.7,2.7,2.5,4.1.6,1.1.9,2.2.4,3.4-.3.6,0,.9.7,1.2,1.6-2,3.3-4.1,5-6.2.5-.6,0-.8-.5-1-.2.2-.4.3-.5.4-1.7,1.5-2.5,1.4-3.8-.4-1.1-1.5-2.2-3.1-3.3-4.8,2.2-2.8,4.4-5.4,6.5-8.1,1.8.8,3.5,1.4,5.1,2.2,2.3,1.1,2.4,1.5,1.3,3.8-.3.7,0,.9.6,1.2,3-3.8,6.1-7.5,9.1-11.2-.3-.7-.7-.8-1.2-.5-1,.6-2,.6-3,.2-.9-.3-1.9-.6-2.8-1-5.3-2.2-10.7-4.4-16.3-6.7M430.4,84.5c-.2.4-.5.9-.7,1.3-3.6,6.5-7.2,13-10.8,19.6-1.5,2.7-2.4,3.1-5.1,2.3,0,0-.2,0-.5.1,0,.2,0,.5,0,.8,0,.2.4.3.6.4,4.1,2.3,8.2,4.5,12.2,6.8.7.4,1.2.4,1.3-.6-.2-.1-.4-.3-.6-.5-1.6-1.3-1.8-2.2-1-4.1.1-.3.3-.7.5-1,5.1-9.1,10.1-18.3,15.2-27.4,1.4-2.5,2.3-2.8,5-1.9,0,0,.2,0,.4-.1.5-.8-.2-1-.7-1.3-3.9-2.2-7.8-4.3-11.7-6.5-.2-.1-.5-.3-.7-.3-.3,0-.6.2-1,.4.3.4.4.5.5.6.1.1.3.2.4.4,1.2,1.2,1.4,2.3.5,4-1.2,2.3-2.4,4.5-3.8,6.9M358.7,62.9c3-2.1,4.9-4.9,5.5-8.5.3-1.9,0-3.7-1-5.4-1.1-1.8-3.4-2.7-5.3-2.2-1.9.5-3.2,2.1-3.5,4.4-.3,2.8,1.9,4.8,4.6,4.3.4,0,.7-.1,1.3-.2,0,.6.2,1.1,0,1.5-.4,1-.8,2.1-1.4,3-1.2,1.7-2.9,2.9-4.8,3.7-.7.3-1.4.6-.8,1.6,1.9-.3,3.6-1.1,5.4-2.2Z"/>
  <path class="st11" d="M579.8,502.7c1.5,10.1-1.2,18.7-7.6,26.3-.7.9-1.5,1.6-2.3,2.5-1.9,2-4.1,3.6-6.6,4.8-14.7,7.5-30,13.6-45.4,19.4-11.7,4.4-23.7,7.5-35.7,10.8-8.4,2.3-16.7,4.9-25,7.6-11.5,3.8-22.2,9.5-32.5,15.7-6.9,4.2-13.4,8.8-19.7,13.8-.4.3-.9.7-1.6,1.2.1-1.1.2-1.7.3-2.4.5-3.7.6-7.3-.3-10.9-1.7-6.8-5.8-11.8-11.8-15.4-2-1.2-4-2.6-5.9-3.9-.7-.5-1.2-1.1-1.7-1.7-2.7-3.2-2.6-6.4.5-9.2,1.7-1.6,3.6-2.9,5.4-4.3,21.7-16.5,45.8-27.8,72.4-33.8,11.1-2.5,22.3-5.2,33.3-8.2,12.8-3.6,25.1-8.3,36.9-14.6,6.4-3.4,12.3-7.5,17.4-12.7,5.3-5.4,8.8-11.9,10.4-19.3.1-.5.3-1.1.5-1.8.3.5.6.8.8,1.1,4.5,7.7,9,15.3,13.5,23,2.2,3.7,4,7.6,4.7,12.1M512.3,527.9c.4,1,.7,2,1.1,3,1.5,4.3,3,8.7,4.5,13,.2.5.3,1.1.6,1.6.7,1.4,1.8,1.9,3,1.6,1.1-.4,1.6-1.5,1.3-3-.2-.9-.5-1.8-.8-2.7-2.4-7-4.7-14-7.1-21-1-2.9-2.8-3.6-5.5-2.3-1.2.6-1.8,1.5-1.9,2.8,0,.8,0,1.6.1,2.4.5,3.1,1.1,6.2,1.6,9.4.2,1.2.4,2.5.6,3.7-.6-.4-.9-.9-1.2-1.5-1.7-3.2-3.4-6.5-5.1-9.7-.3-.7-.7-1.3-1.1-1.9-1.4-1.9-3-2.2-5.3-1.1-1.8.9-2.2,2.1-1.5,4.4,0,.2.2.5.3.7,2.5,7.3,5,14.7,7.5,22,.2.5.3.9.6,1.4.7,1.1,1.8,1.6,2.9,1.2,1-.4,1.6-1.6,1.3-2.8-.2-.8-.5-1.5-.7-2.3-1.8-5.2-3.5-10.5-5.1-15.7,0,0,.2,0,.4.2,2.9,5.4,5.8,10.8,8.8,16.2.3.6.6,1.3,1.1,1.7.3.3,1.1.4,1.5.3.4-.2.8-.7.9-1.2.1-.6,0-1.2-.1-1.8-.5-3.3-1.1-6.6-1.6-9.9-.5-2.9-.9-5.9-1.2-8.8,0,0,.2,0,.3.3M425.1,575.7c.4.8.8,1.7,1.3,2.5.9,1.5,1.9,1.8,3.4,1,1.7-1,3.5-2,5.1-3,1.7-1.1,2.5-2.7,2.6-4.7,0-2.2-.4-4.4-1.4-6.3-2-4-4.2-7.9-6.5-11.7-.8-1.3-2-2.4-3.1-3.4-1.9-1.6-4-1.8-6.2-.5-1.7,1-3.3,1.9-5,2.9-1.6,1-1.9,1.9-1.1,3.6.3.6.6,1.2,1,1.8,3.2,5.9,6.4,11.8,9.8,17.9M539.2,539.9c1.8-1.6,2.5-3.6,2.2-5.9-.2-1.3-.5-2.7-1-3.9-2.4-5.9-5-11.8-7.5-17.7-.3-.6-.6-1.2-1.1-1.7-.6-.7-1.5-.8-2.4-.5-.8.3-1.3,1-1.2,1.9,0,.8.2,1.7.6,2.5,2.3,5.5,4.7,11,7,16.5.4,1.1.8,2.2,1,3.4.1,1.1-.3,2.1-1.4,2.6-1,.5-2,.4-2.8-.6-.7-.9-1.4-1.9-1.8-3-2.3-5.4-4.6-10.7-6.8-16.1-.3-.6-.5-1.3-.9-1.8-.7-1.1-1.9-1.5-2.9-1.1-1,.4-1.5,1.6-1.2,2.8.1.5.3.9.5,1.4,2.5,5.9,5,11.8,7.5,17.7.5,1.2,1.3,2.4,2.1,3.5,1.9,2.2,4.4,2.8,7.1,1.9,1-.4,2-1,3.2-1.7M551.3,506c-1.4-1.9-3.2-3.1-5.7-2.9-3.9.3-7,3.8-7.1,7.7,0,4.4,2.7,8,7,9.1,1.9.5,3.7,1,5.6,1.4,2.1.5,3,2,3.5,4,0,.2,0,.4,0,.6,0,1.3-.7,2.3-1.9,2.7-1,.4-1.9.1-2.8-1-.6-.8-1.1-1.8-1.7-2.7-.7-1-1.5-1.2-2.4-.9-.9.3-1.5,1.1-1.5,2.2,0,.4,0,.9.2,1.3.7,2.2,1.9,4.1,3.9,5.2.8.4,1.7.7,2.6.8,2.9.1,7.7-2.8,8-7.3.3-5.3-3-9.7-8.2-10.8-1.7-.4-3.4-.7-5.1-1.2-1.9-.6-3-2.3-2.9-4.1,0-1.1.7-1.9,1.7-2.2,1-.3,1.8,0,2.6.9.4.6.8,1.3,1.2,1.9.7.9,1.4,1,2.5.5,1.1-.6,1.6-1.6,1.3-2.8-.2-.8-.6-1.5-1.1-2.4M465.9,559.1c.1-6-2.4-9.6-8-11.6-.4-.1-.8-.3-1.2-.4-1.1-.4-2.2-.8-3.3-1.2-1.5-.7-2.4-1.9-2.7-3.6-.2-1.2.4-2.3,1.5-2.7,1.2-.5,2.1-.2,2.9,1,.4.6.6,1.2,1,1.8.8,1.3,1.6,1.6,2.8,1.2,1.2-.4,1.8-1.6,1.4-2.9-.4-1.2-.9-2.3-1.7-3.3-1.7-2.4-4.3-3.1-7.1-2.3-3,.9-5.1,3.2-5.3,6.1-.3,4.4,2.2,8.4,6.2,10,1.9.8,3.8,1.5,5.7,2.2,1.5.6,2.6,1.7,3,3.3.6,1.9,0,3.4-1.4,3.9-1.4.5-2.6-.1-3.6-1.9-.4-.7-.7-1.5-1.1-2.2-.8-1.2-1.5-1.6-2.6-1.2-1.1.4-1.7,1.3-1.4,2.7.2,1,.5,2.1,1,3,1.1,2,2.5,3.7,4.9,4.2,3.9.9,7.9-1.9,8.9-6.3M471.1,538.3c0-.9-.2-1.7-.2-2.6.1-1.1.9-1.7,2-2,.9-.2,1.5.4,2,1.1.5.7.8,1.5,1.3,2.2.7,1.1,1.4,1.3,2.5,1,1.1-.3,1.7-1.1,1.7-2.2.2-3.2-2.9-6.7-6.2-6.8-5.2-.2-9,4-8.2,9.2.9,5.9,3.2,11.5,5.6,16.9.5,1.1,1.4,2.1,2.2,3,1.4,1.3,3.1,1.8,5,1.3,1-.2,1.9-.5,2.8-1,4.3-2.2,5.6-8,2.7-11.9-.7-.9-1.5-1.2-2.4-1-1.2.3-1.8,1.1-1.8,2.3,0,1,.4,1.9.5,2.9,0,.7.2,1.5,0,2.2-.5,2-2.5,2.5-3.8.9-.6-.7-1.2-1.6-1.5-2.5-1.5-4.3-3-8.6-4.5-13.1M490.6,530.8c-.4-1.2-.7-2.5-1.2-3.7-.5-1.2-1.4-1.8-2.4-1.6-1.1.2-2,1.3-2,2.6,0,.5.2,1.1.3,1.6,2.3,7.5,4.6,15,6.8,22.5.1.5.3,1,.5,1.4.5,1,1.4,1.5,2.3,1.3,1-.1,1.9-1,2-2.2,0-.7,0-1.5-.3-2.2-2-6.5-3.9-13-6-19.7M440.8,551.1c-.9-1.8-1.7-3.6-2.6-5.4-.3-.6-.5-1.1-.9-1.7-.7-1-1.5-1.4-2.5-1.1-1,.3-1.6,1.1-1.7,2,0,.7,0,1.5.4,2.1,3.5,7.2,7,14.4,10.5,21.6.2.3.3.7.6,1,1.2,1.4,3,1.2,3.8-.4.5-1.1.3-2-.2-3-2.4-5-4.9-9.9-7.4-15.2Z"/>
  <path class="st12" d="M75.9,544.5c-6.2-2.9-12.3-5.8-18.3-8.7-1.8-.8-3.3-2-4.7-3.3-4.5-4.3-8.1-9.3-9.9-15.3-2.3-7.8-1.9-15.5,1.7-22.9,1-2,2-3.8,3.1-5.7,4-6.8,7.9-13.5,11.9-20.3.3-.6.7-1.1,1.2-1.9.3,1.1.5,1.9.7,2.7,2.2,9.1,7.2,16.4,14.4,22.3,6.6,5.5,14.1,9.6,21.9,13.1,13.6,6.2,27.8,10.7,42.4,14.2,10,2.4,20.1,4.6,30.1,7.3,23,6.3,43.8,17.2,62.6,31.8,1.5,1.1,3,2.2,4.3,3.5,3.1,3,3.2,6.1.4,9.4-2,2.3-4.5,3.8-7.1,5.3-6.7,3.9-11.1,9.5-12.4,17.2-.5,3.1-.4,6.3,0,9.5,0,.6.2,1.2.3,2.2-.6-.4-1-.6-1.4-.9-12.8-10.2-26.6-18.7-41.5-25.5-6.6-3-13.4-5.3-20.3-7.4-10.4-3-20.8-5.8-31.2-8.8-13.5-3.8-26.6-9-39.6-14.2-2.8-1.1-5.5-2.3-8.4-3.5M64.7,503.8c-1.2,2.2-2.5,4.4-3.7,6.6-.2-.5-.2-.9-.1-1.3.9-5,1.8-9.9,2.6-14.9.1-.8.1-1.7,0-2.6-.3-1.3-1.4-2.1-2.7-2.3-1.2-.2-1.9.7-2.4,1.7,0,.1-.1.2-.2.3-3.7,6.7-7.5,13.3-11.2,20-.3.6-.6,1.2-.7,1.9-.2,1.1.6,2.4,1.5,2.7,1,.4,2.1,0,2.8-1.2.2-.3.4-.6.5-1,2-3.6,4-7.2,6-10.7.2-.4.5-.8,1-1.5,0,.8,0,1.3-.2,1.7-.9,5-1.8,9.9-2.7,14.9-.1.7-.2,1.4-.1,2,.1,1.3,1.4,2.7,2.6,2.9,1.3.2,2.1-.6,2.7-1.6.1-.2.2-.4.4-.6,3.7-6.6,7.4-13.1,11-19.7.2-.4.5-.9.6-1.3.4-1.3-.2-2.8-1.4-3.3-1.1-.5-2.1,0-2.9,1.2-.2.3-.4.6-.6,1-.9,1.6-1.8,3.2-2.9,5.1M86.2,517.1c-2.5,5.5-4.9,11-7.4,16.5-.3.7-.6,1.4-.7,2.1-.2,1.1.4,2.1,1.3,2.5.8.4,1.8.2,2.5-.6.4-.5.8-1.1,1-1.7,1.8-4,3.6-7.9,5.4-11.9.2-.4.4-.8.7-1.1,0,3.6-.4,7.2-.8,10.7-.2,2.3-.5,4.6-.6,6.9,0,1.3,1,2.3,2.2,2.6,1,.2,2-.2,2.7-1.2.2-.4.4-.7.6-1.1,3.3-7.4,6.7-14.8,10-22.3.2-.5.4-.9.5-1.4.2-1.1-.3-2.2-1.1-2.6-.9-.4-2.1-.2-2.8.8-.4.5-.6,1.1-.9,1.6-1.8,4-3.6,8-5.4,12.1-.2.4-.4.8-.6,1.2.1-3.2.4-6.4.7-9.5.2-2.4.5-4.8.7-7.2,0-.8,0-1.8-.5-2.5-1.2-1.9-3.6-1.7-4.7.4-1,1.9-1.8,3.8-2.7,6M159.3,539.5c-1.4,4.2-2.8,8.4-4.1,12.6-.4,1.4-.6,2.8-.7,4.2-.1,3.7,1.1,6,4.5,7.3.5.2,1,.4,1.6.6,2.8.8,4.9.2,6.5-2.2,1-1.5,1.9-3.2,2.6-4.9,1.2-3.3,2.3-6.7,3.3-10.1.5-2,.8-4.1.8-6.2,0-2.7-1.3-4.7-3.8-5.9-.8-.4-1.6-.7-2.4-.9-2.3-.7-4.3-.1-5.9,1.7-.9,1.1-1.5,2.4-2.4,3.9M66.5,515.3c-1.5,2.6-2.9,5.2-3.7,8.1-1,3.8,0,6.1,3.4,8.1,0,0,.1,0,.2,0,2.7,1.4,4.9,1.3,7.2-.8,1-.9,2-1.9,2.7-3,2.7-4.4,5.3-8.8,7.7-13.4.8-1.5,1.1-3.3,1.4-5,.4-3.1-1.4-4.9-4-6.3-2.5-1.3-4.9-1.1-6.9.8-1.6,1.5-2.9,3.2-4.2,5-1.4,2-2.5,4.2-3.8,6.5M147.4,555.1c-.2.8-.5,1.7-.7,2.5-.2,1.2.4,2.4,1.4,2.8,1.1.4,2.3-.2,2.9-1.4.2-.4.3-.8.4-1.2,2.3-7.7,4.6-15.5,6.8-23.3.2-.5.3-1.1.3-1.6,0-1.2-.6-2-1.5-2.3-1-.3-2,.1-2.6,1.1-.4.6-.6,1.4-.8,2.1-.8,2.7-1.6,5.3-2.4,8.1-1.1-.3-2-.5-3-.8-.9-.3-1.9-.6-2.8-.9.8-2.9,1.6-5.5,2.4-8.2.2-.6.4-1.2.4-1.8,0-1.2-.6-2.2-1.6-2.5-.9-.3-2,.1-2.6,1.1-.3.6-.6,1.2-.8,1.9-2.2,7.6-4.5,15.1-6.7,22.7-.2.5-.3,1.1-.3,1.6,0,1.3.5,2.2,1.5,2.5,1,.3,2.1-.2,2.7-1.2.3-.6.6-1.4.8-2.1.9-3.1,1.9-6.3,2.8-9.6,2,.6,3.9,1.1,5.8,1.6-.9,3-1.7,5.8-2.6,8.9M189.9,568.9c.4-.1.8-.5,1-.4,1.5.7,2.9,1.6,4.3,2.3,0,.3,0,.5,0,.6-.3,1.1-.6,2.1-.9,3.2-.2,1-.5,1.9-.6,2.9-.1,1.3.7,2.3,2,2.6,1,.3,1.9-.2,2.5-1.4.3-.7.5-1.4.7-2.1,1.6-6.2,3.2-12.4,4.8-18.6.5-1.9,1-3.7,1.3-5.6.3-2-.5-3.1-2.6-4-1.6-.7-2.5-.3-3.8,1.3-.2.3-.5.6-.7.9-4.4,5.9-8.8,11.9-13.2,17.8-.4.6-.9,1.2-1.2,1.9-.8,1.5-.6,2.7.5,3.5,1.1.8,2.3.5,3.3-.9.9-1.2,1.7-2.4,2.7-3.9M109.3,537.4c-1.9-.9-2.9-.6-3.8,1.2-.8,1.6-1,3.3-.9,5.1.1,2.7,1.4,4.7,4,5.7,2.8,1.1,5.7,1.4,8-.9,2.7-2.7,3.7-6,3.1-9.7-.2-1.4-1-2.7-1.7-3.9-.9-1.6-1.9-3.1-2.8-4.6-.9-1.5-.9-3.1,0-4.6.6-1.1,1.7-1.6,2.8-1.3,1.2.3,1.8,1.2,1.7,2.5,0,.7-.3,1.5-.4,2.2-.2,1.4.3,2.1,1.4,2.5,1.1.4,2.2,0,2.8-1.1.4-.7.6-1.5.7-2.3.7-3.6-1-6.7-4.4-7.9-3.6-1.3-7-.1-8.8,3.1-1.8,3.4-2.1,6.8,0,10.3,1.1,1.7,2.1,3.5,3.1,5.3,1,1.8.9,3.6-.1,5.3-.8,1.2-1.8,1.7-3,1.3-1.2-.3-1.9-1.3-1.8-2.7,0-.9.3-1.7.5-2.6.2-.9.3-1.8-.5-2.9M219.5,564.9c1,.4,1.9.2,2.6-.7,1.1-1.5.8-3.1-.8-4.1-2.4-1.4-4.8-2.7-7.1-4-2-1.1-2.9-.8-4,1.3-.1.2-.2.5-.3.7-3.2,6.9-6.5,13.8-9.7,20.8-.2.5-.4,1-.6,1.6-.4,1.2-.2,2.1.9,2.8,2.8,1.7,5.7,3.3,8.6,4.9.8.4,1.6.3,2.2-.3,1.5-1.3,1.3-3.4-.3-4.4-1.6-1-3.2-1.8-4.9-2.8-.4-.2-.8-.5-1.2-.8,1.1-2.5,2.2-4.8,3.4-7.3,1.9,1.1,3.7,2.1,5.5,3.1,1.3.7,2.2.5,2.9-.6.9-1.2.8-2.7-.2-3.6-.5-.4-1-.7-1.6-1-1.5-.9-3-1.7-4.5-2.6,1-2.2,2-4.1,3-6.2,2.1,1.2,4,2.2,6.2,3.4M136.5,547.9c0-.3,0-.6,0-.9-.2-1.3-.9-2.1-2.2-2.2-1.1-.1-1.7.2-2.3,1.5-.3.6-.5,1.3-.7,1.9-.2.4-.3.8-.5,1.2-.5.8-1.3,1.4-2.3,1.2-1-.2-1.7-.9-1.8-1.9-.1-.8-.2-1.6,0-2.4.9-4.8,2.1-9.6,3.8-14.2.3-.8.8-1.5,1.3-2.3.5-.7,1.3-.9,2.2-.6.9.2,1.4.8,1.5,1.7,0,.6,0,1.2,0,1.9,0,.7-.1,1.4-.1,2,0,1.2.8,1.9,2,2.1,1.1.2,1.8-.2,2.4-1.3,1.9-3.7.3-8.4-3.5-10.1-1-.4-2-.7-3-.9-2.5-.4-4.6.5-5.9,2.7-.8,1.3-1.5,2.6-2,4-1.2,4.2-2.3,8.4-3.4,12.6-.3,1.4-.4,3-.3,4.4.1,2.8,1.5,4.8,4.1,5.9.8.4,1.8.6,2.7.8,2.8.6,5.1-.4,6.5-2.9.7-1.2,1.1-2.6,1.6-4.3M178.6,553.1c1.4-3.3,2.8-6.7,4.1-10,.3-.6.5-1.3.5-2,.1-1.3-.4-2-1.3-2.4-1-.4-2,0-2.7,1.1-.3.5-.6,1.1-.8,1.7-3,7.2-5.9,14.3-8.9,21.5-.2.5-.4,1-.5,1.6-.4,1.6,0,2.4,1.4,3,2.7,1.2,5.3,2.3,8,3.4,1.6.7,2.7.2,3.3-1.3.6-1.6.3-2.6-1.3-3.3-.5-.2-1-.4-1.5-.7-1.5-.7-3-1.3-4.6-2,1.5-3.5,2.9-6.9,4.4-10.6Z"/>
  <path class="st11" d="M311.8,631.7c-5.6,0-11.1-.1-16.6.3-8.8.7-17.6,1.7-26.3,2.9-8.5,1.2-16.9,2.7-25.4,4.1-.6,0-1.2.2-1.8.2-3.9,0-5.9-1.3-7.1-5-3.3-10.7-6.6-21.4-9.8-32.1-.2-.6-.3-1.2-.4-1.8-.3-3,.9-5,3.8-5.8,8.2-2.3,16.4-4.4,24.8-6,13-2.5,26-4.1,39.2-4.9,12.9-.8,25.7-.7,38.6.2,13.8,1,27.5,2.7,40.9,5.9,7.1,1.7,14,3.9,20.6,7,.6.3,1.2.6,1.8.9,3.7,2.1,4.9,5.1,3.6,9.1-1.3,3.9-2.7,7.8-4,11.6-2.1,6-4.2,12-6.3,18,0,.2-.2.5-.2.7-1.3,3.4-3.3,4.6-7,3.9-3-.6-6-1.2-9-1.8-10.2-2.1-20.4-3.8-30.7-5.2-9.5-1.3-19-2.2-28.8-2.3M293.1,617.1c0-.9.3-1.9.2-2.8-.3-3.7-.5-7.3-1-10.9-.2-1.8-.7-3.7-1.4-5.4-1.3-3.2-3.4-4.3-6.8-3.8-1.6.2-3.2.4-4.8.6-2.5.3-3.2,1.2-2.9,3.7.2,1.9.4,3.8.6,5.8.6,5.9,1.2,11.8,1.8,17.6.2,2,1,2.6,3,2.4,2-.2,4.1-.5,6.1-.8,1.8-.3,3.3-1.3,4.1-3,.5-1,.7-2.1,1.1-3.5M360.4,601.3c0-.4,0-.9-.1-1.3-.3-2.2-1.2-3.1-3.5-3.4-2.2-.2-2.9.2-3.7,2.5-.2.4-.3.8-.4,1.2-2.3,6.8-4.5,13.6-6.8,20.3-.3.9-.6,1.8-.7,2.7-.2,1.4.7,2.4,2,2.6,1.4.2,2.1-.3,2.6-1.9.6-1.8,1.1-3.5,1.7-5.4,2,.3,3.8.6,5.7,1,0,1.5.1,3,.2,4.4,0,.8.1,1.6.4,2.4.4,1.2,1.4,1.7,2.6,1.7,1.1,0,1.8-.8,2-2.1,0-.5,0-1.1,0-1.7-.2-2.3-.3-4.6-.5-6.9-.4-5.3-.9-10.5-1.3-16.1M246.2,630c4.6,1.3,9.3-1.3,10.3-5.7,1-4.7-1-9.1-5.2-11.3-.7-.3-1.3-.7-2-1-1-.6-2.1-1.1-3.1-1.7-1.5-.9-2-2.3-1.9-4,.1-1.3,1-2.2,2.2-2.4,1.1-.1,1.9.3,2.4,1.6.3.6.4,1.3.7,1.9.5,1.2,1.1,1.5,2.4,1.3,1.2-.2,1.9-1.1,2-2.4.2-2.8-2.1-6.1-4.9-6.8-3.8-1-8.2,1.6-9.3,5.3-1.1,4.2.6,8.4,4.4,10.5,1.8,1,3.6,2,5.4,3,1.5.8,2.3,2.1,2.3,3.8.1,2-.7,3.3-2.2,3.6-1.4.3-2.5-.6-3.1-2.5-.2-.8-.4-1.6-.7-2.3-.6-1.4-2.1-1.8-3.2-.8-.5.5-.9,1.3-.9,1.9,0,3.3,1.1,6.1,4.4,7.9M272.2,608c-1.2-.8-2.4,0-3.6,0-1.5.2-3,.7-4.6.6-.3-2.2-.6-4.3-.9-6.4.4-.1.7-.2,1-.3,2-.4,3.9-.7,5.9-1,1-.2,1.8-.7,2-1.7.5-2.1-.8-3.6-2.8-3.2-2.7.5-5.5,1-8.3,1.4-2.5.4-3.1,1.2-2.8,3.8.8,6.1,1.6,12.2,2.4,18.3.2,1.7.4,3.5.7,5.2.3,1.7,1.2,2.4,2.9,2.1.6,0,1.2-.2,1.8-.3,2.6-.5,5.1-.9,7.7-1.4,1.6-.3,2.2-1.5,1.8-3.1-.3-1.4-1.2-1.9-2.8-1.7-.2,0-.5.1-.7.2-2.1.3-4.1.7-6.3,1-.4-2.7-.7-5.1-1.1-7.7,2-.4,3.9-.7,5.8-1,2.8-.5,3.6-2.2,1.8-4.8M381.6,607.6c1.6-.3,2.2-.9,2.2-2.4,0-1.3-.6-2.1-2-2.5-2.9-.8-5.8-1.5-8.7-2.2-.2,0-.5,0-.7-.1-1.3,0-2,.3-2.4,1.6-.1.3-.2.7-.2,1.1-1,5.3-1.9,10.5-2.9,15.8-.4,2.4-.9,4.8-1.3,7.2-.3,2.1.3,3,2.3,3.5.4.1.8.2,1.3.3,2.5.6,5.1,1.3,7.6,1.9,1.7.4,2.8-.5,2.9-2.2,0-1.4-.5-2.2-1.9-2.6-1.9-.5-3.7-.9-5.6-1.4-.5-.1-1-.3-1.6-.5.6-2.6.8-5.1,1.5-7.5,2.3.5,4.3,1.1,6.4,1.5,1.4.3,2.2-.2,2.6-1.4.5-1.4,0-2.6-1.2-3.2-.4-.2-.9-.3-1.4-.4-1.8-.5-3.7-.9-5.6-1.4.4-2.2.8-4.3,1.2-6.5,2.5.6,4.8,1.1,7.5,1.7M312,614.3c-.1.7-.3,1.3-.4,2-.9-4.7-1.7-9.4-2.5-14.1-.4-2.3-.7-4.7-1.1-7-.3-1.7-1.1-2.4-2.6-2.2-1.4.2-2.2,1.2-2.2,2.8,0,.4,0,.7.2,1.1,1,5.1,1.9,10.3,2.9,15.4.6,2.9,1.1,5.9,1.7,8.8.4,1.9,1.4,2.6,3.3,2.7,2.3,0,3.3-.7,3.8-3.2,1.4-7.5,2.8-15,4.1-22.5.2-1,.3-2,.2-3-.1-1.4-1-2.1-2.4-1.9-1.2,0-1.9.8-2.1,2.6-.9,6.1-1.8,12.3-2.7,18.8M345.7,600.4c1.8-.3,2.4-.9,2.5-2.4,0-1.5-.7-2.4-2.3-2.6-1.2-.2-2.5-.3-3.7-.4-2.8-.3-5.6-.6-8.3-.9-1.9-.2-3.1,1.2-2.7,3,.2,1.1.9,1.7,2,1.9,1.3.2,2.5.3,3.9.5,0,1,0,1.9-.2,2.8-.5,6.1-.9,12.3-1.4,18.4,0,.6,0,1.1,0,1.7.1,1.4,1,2.3,2.2,2.4,1.2,0,2.2-.7,2.4-2.1.2-.9.2-1.7.3-2.6.4-5.9.8-11.8,1.3-17.7,0-.8.2-1.6.3-2.4,1.3.1,2.4.3,3.8.4M322.9,613c0,.6,0,1.2,0,1.9,0,2.1-.2,4.2-.1,6.3,0,1.5,1,2.4,2.3,2.5,1.3,0,2.2-.9,2.3-2.4,0-.2,0-.4,0-.6.3-8.1.5-16.2.8-24.2,0-.5,0-1,0-1.5-.2-1.1-1.2-1.9-2.2-1.9-1,0-2,.7-2.2,1.9-.1.5-.1,1-.1,1.5-.2,5.4-.4,10.8-.6,16.6Z"/>
  <path class="st13" d="M551,474.2c-.8,1.2-1.4,2.4-2.2,3.4-1,1.3-1.8,1.2-2.6-.2-.5-.8-.7-1.7-1.1-2.6-.6-1.3-1.2-2.8-2-4-1.5-2.4-3.2-3.1-5.9-2.4-1.8.5-3.6,1.1-5.3,1.8-4.1,1.6-9.3.4-12.2-2.9-1.7-1.9-2.3-4.1-2.1-6.6.5-7.2,3.6-13,9.9-16.8,1.3-.8,2.8-1.3,4.3-1.6,9.4-1.6,16.5,1.8,20.4,9.9,1.8,3.7,3,7.5,2.6,11.7-.4,3.7-1.9,6.9-3.8,10.2Z"/>
  <path class="st13" d="M76.7,474.6c-.5,1.1-.8,2.1-1.4,3-.7,1.2-1.6,1.3-2.3.2-3.6-5.2-6.9-10.7-6-17.4.7-5.4,2.8-10.2,6.8-14,2.3-2.2,5-3.5,8.1-4,8.6-1.3,14.2.7,19.3,8.4,2.2,3.4,3.3,7.4,2.8,11.6-.1,1.3-.6,2.7-1.2,3.8-2.3,3.9-8.4,5.9-12.6,4.2-1.9-.7-3.7-1.4-5.6-1.9-2.8-.7-4.5,0-6,2.4-.7,1.1-1.2,2.3-1.8,3.6Z"/>
  <path class="st7" d="M91.3,486.2c-.6.9-1.1,1.8-1.8,2.6-1.2,1.5-2.3,1.6-3.9.5-1.6-1.2-3.3-2.4-4.9-3.7-1.7-1.3-1.7-2.2-.6-4,.8-1.2,1.4-2.6,2.2-3.9,1.1-1.9,2.4-2.5,4.5-1.9,1.5.4,3,.7,4.5,1.1.5.1,1,.3,1.4.5,1.7.8,2.1,1.6,1.4,3.2-.8,1.9-1.9,3.6-2.9,5.6Z"/>
  <path class="st7" d="M528.1,481.8c-.2-.6-.4-1.1-.6-1.5-.4-1.4-.2-1.9,1-2.6.5-.3,1.1-.6,1.7-.7,1.7-.5,3.4-.9,5.1-1.3,1.7-.4,3,.1,3.8,1.5,1,1.7,2,3.4,3,5.2.5.9.4,1.9-.4,2.5-2,1.6-4.1,3.2-6.2,4.7-.7.5-1.4.4-2.1,0-.5-.4-1-.8-1.3-1.3-1.3-2.1-2.6-4.3-3.9-6.5Z"/>
  <path class="st4" d="M430,241.6h46c0,.5.2.9.2,1.3.1,9.9.4,19.8.2,29.7-.2,9.1-.6,18.3-1.4,27.4-2.6,32.8-9.1,64.7-20.9,95.5-13.2,34.5-32.5,65.3-57.9,92.2-19.7,20.9-42.2,38.4-66.7,53.3-5.7,3.5-11.5,6.6-17.3,10-.9.5-1.6.7-2.6.1-24.7-13.1-47.9-28.5-68.8-47.2-33.2-29.7-57.6-65.4-73.4-107-7-18.2-12.1-37-15.8-56.1-2.2-11.4-3.9-22.8-5.1-34.3-.9-9.1-1.5-18.2-2-27.4-.7-11.4-.7-22.8-.6-34.1,0-1,0-2.1,0-2.9.2-.3.3-.4.3-.4,0,0,.1,0,.2,0,11.8,0,23.6,0,35.5,0,83.3,0,166.5,0,250,0M329.7,425.1c0-16.3,0-32.6,0-48.9,0-1.2.3-2,1.4-2.8,11-8.2,22-16.5,33-24.7,34.9-26.2,69.9-52.4,104.8-78.6,1.1-.8,1.6-1.6,1.6-3-.1-5.8,0-11.7-.1-17.5,0-.5,0-.9-.1-1.5-.4,0-.7,0-1,0-11,0-21.9,0-32.9,0-1,0-1.7.3-2.4.9-4.2,3.1-8.4,6.3-12.6,9.4-36.5,27.2-72.9,54.4-109.4,81.5-.4.3-.9.6-1.3.9-.7-.5-1.4-1-2.1-1.5-40.6-30-81.1-60-121.7-90.1-1.1-.8-2.2-1.2-3.6-1.2-10.5,0-21,0-31.6.1-.6,0-1.2,0-1.7,0-.1.3-.1.4-.1.4,0,6.8.2,13.7.3,20.5,0,.4.4.9.7,1.2.3.4.8.6,1.2.9,45.9,34.1,91.8,68.2,137.7,102.2,1.1.8,1.5,1.6,1.5,2.9,0,11.1,0,22.3,0,33.4,0,24.4.2,48.8.2,73.2,0,8,0,16.1,0,24.1,0,8.3,0,16.6,0,24.8,0,.9,0,1.6,1,2.1,5.7,3.1,11.3,6.3,16.9,9.5.7.4,1.3.5,2.1,0,1.8-1,3.6-2,5.4-3,3.8-2.1,7.6-4.3,11.4-6.3.8-.4,1.2-1,1.1-1.9,0-.4,0-.9,0-1.3,0-35.1,0-70.2,0-105.7M284.7,485.6c0-10.6,0-21.2,0-31.7,0-24.5,0-49,0-73.6,0-1.5-.4-2.5-1.7-3.4-26.5-19.6-52.9-39.2-79.3-58.8-16.9-12.6-33.9-25.1-50.8-37.7-.5-.4-1-.7-1.7-1.2,0,.6,0,.8,0,1.1.6,7.1,1.1,14.3,1.7,21.4,1,11,2.6,21.9,4.5,32.7,3.1,17.3,7.4,34.4,13.1,51,7.7,22.3,17.9,43.3,31.1,62.9,21.6,32.2,49.6,57.9,82,79,.3.2.7.3,1.2.5,0-14.1,0-28,0-42.2M341.6,374.4c-1.1.9-2.2,1.8-3.5,2.5-1.3.8-1.7,1.8-1.7,3.4,0,23.6,0,47.2,0,70.8,0,25.1,0,50.3,0,75.4,0,.4,0,.8,0,1.5.8-.5,1.4-.8,1.9-1.2,11.2-7.4,21.9-15.3,32.1-24,20.9-17.7,38.8-38,53.4-61.2,15.5-24.7,26.4-51.4,33.7-79.5,3.2-12.2,5.8-24.4,7.6-36.9,1.2-8.4,2.3-16.9,3.2-25.3.7-6.4,1-12.9,1.5-19.3,0-.3,0-.7,0-1.3-42.9,31.8-85.5,63.4-128.3,95.2M345.8,248.5c-47,0-94,0-141,0-1.9,0-3.7,0-5.6,0,0,0-.1,0-.1,0,0,0,0,.1,0,.3,37.2,27.5,74.5,55.1,111.7,82.6,37.5-27.7,74.7-55.3,112-82.8,0,0,0-.2-.1-.3-25.5,0-51,0-76.8,0Z"/>
  <path class="st20" d="M340.9,180.8c2-2.1,4.3-2.9,7-2.7,4.7.4,8.8,1.9,11,6.5.8,1.7,1.3,3.6,1.5,5.5.5,3.9.3,7.7-1.3,11.3-2.2,4.8-5.7,6.6-10.8,5.8-4-.7-4.3-1-4.4-5.1,0-2.7-.2-5.5-.4-8.2-.2-2.1-1.2-3.8-3-5-2.4-1.6-2.8-4.1-.9-6.6.4-.5.8-1,1.3-1.5Z"/>
  <path class="st15" d="M489.4,135.2c1.2,1.3,2.3,2.4,3.5,3.7.4-.3.7-.5,1-.7,2.9-2.9,5.8-5.8,8.7-8.7.3-.3.6-.6.9-1,1.3-1.6,1.3-2.5.1-4.2-.2-.2-.4-.5-.5-.7,0-.2.1-.3.2-.4.1-.1.3-.2.3-.2,3.8,3.8,7.6,7.6,11.5,11.5,0,.3-.3.7-1,.2-2.4-1.5-3.2-1.5-5.2.5-7.4,7.4-14.9,14.9-22.3,22.3-1.9,1.9-2,2.7-.5,5q.3.4-.4,1.2c-.4-.4-.8-.7-1.2-1.1-3.2-3.2-6.4-6.3-9.5-9.5-.5-.5-1.2-.9-.2-1.6.1,0,.3,0,.3,0,2,1.9,3.5,1.5,5.2-.1,3.6-3.5,7.1-7.1,10.5-10.6-2.8-2.8-5.7-5.7-8.6-8.6-.8.8-1.7,1.7-2.7,2.7-2.4,2.4-4.8,4.7-7.1,7.1-.4.4-.9.9-1.3,1.4-1.1,1.4-1.1,2.4,0,3.9.2.3.4.6.6.9-.3.7-.7.8-1.2.3-.5-.5-1-1-1.5-1.4-2.8-2.8-5.5-5.5-8.3-8.3-.4-.4-.8-.9-1.3-1.4.2-.3.4-.5.6-.7.2.1.4.2.6.4,2,1.5,3.1,1.5,4.9-.3,7.5-7.5,15.1-15,22.6-22.6,1.9-1.9,1.9-2.8.5-5-.4-.6-.3-.9,0-1.1,3.9,3.9,7.7,7.7,11.6,11.6-.3.6-.7.3-1.2,0-1.9-1.3-2.9-1.3-4.5.2-3.4,3.3-6.7,6.7-10.1,10.2,1.6,1.6,3.2,3.2,4.9,5Z"/>
  <path class="st15" d="M402,96.9c1.7-4.4,3.3-8.7,5.1-13.2-3.8-1.5-7.5-2.9-11.2-4.3-.2.3-.4.4-.4.5-1.7,4.5-3.5,8.9-5.1,13.4-1,2.6-.7,3.2,1.6,5,.2.2.3.6.4.9-.3,0-.5.2-.8.2-.2,0-.5-.1-.7-.2-4.4-1.7-8.7-3.3-13-5-.3-.1-.5-.3-.9-.5.2-.5.2-1,.9-.8.4.1.7.2,1.1.2,1.2.2,2.1-.2,2.7-1.3.4-.7.7-1.4,1-2.2,3.7-9.5,7.3-19,10.9-28.5.1-.3.2-.6.3-.9.6-2,.2-3-1.5-4.1q-.6-.4-.6-1.3c.3,0,.6,0,.9.2,4.5,1.7,8.9,3.4,13.4,5.1.5.2,1.3.3.7,1.3-.5,0-1-.2-1.5-.2-1.4-.2-2.4.3-3.1,1.6-.2.4-.4.9-.6,1.4-1.4,3.8-2.9,7.5-4.3,11.3-.2.4-.3.8-.4,1.4,3.8,1.5,7.4,2.9,11.2,4.3.2-.5.5-1,.6-1.4,1.4-3.6,2.8-7.3,4.2-10.9.2-.4.3-.8.4-1.2.6-2.1.3-2.9-1.6-4-.5-.3-1-.5-.4-1.4.3,0,.6.1.9.2,4.3,1.7,8.7,3.3,13,5,.5.2,1.3.2.9,1.3-.5,0-.9,0-1.4-.1-1.5-.3-2.6.3-3.2,1.6-.3.6-.6,1.2-.8,1.9-3.5,9.2-7.1,18.4-10.6,27.7-.3.7-.5,1.4-.7,2.1-.4,1.7,0,2.5,1.4,3.5.3.2.6.3.8.5.1.1.2.5.1.7,0,.2-.4.3-.6.3-.2,0-.5-.1-.7-.2-4.6-1.7-9.2-3.5-13.7-5.3-.1,0-.2-.1-.5-.4.3-.3.6-.7.7-.7,1.2.2,2.4.7,3.3-.4.7-.8,1.2-1.9,1.8-3Z"/>
  <path class="st15" d="M533.2,248.4c-1.4,1.1-.9,2.6-1,3.8-.8.5-1.1,0-1.2-.6-.3-1.4-.7-2.8-1-4.2-.8-3.2-1.6-6.4-2.4-9.6-.1-.6-.5-1.4.6-1.5.1.1.2.2.3.3,1.1,2.7,2,3.2,4.7,2.5,10.2-2.5,20.4-5.1,30.6-7.6,2.9-.7,3.5-1.6,3.2-4.7.6-.4,1-.4,1.2.4.3,1.3.6,2.7,1,4,.8,3.4,1.7,6.8,2.5,10.1.1.6.5,1.3-.7,1.2-.1-.2-.2-.4-.3-.6-1-2.2-1.9-2.8-4.2-2.2-4.5,1.1-9,2.2-13.8,3.4,1,3.9,1.9,7.8,3,11.9,2.2-.5,4.2-1,6.2-1.5,2.4-.6,4.7-1.1,7-1.8,2.9-.8,3.2-1.3,3.1-4.3,0-.2,0-.4.2-.8.4.3.8.4.9.6.3.6.4,1.3.5,2,1,4,2,8.1,3,12.1.1.6.5,1.3-.5,1.4-.1,0-.3-.1-.3-.2-.8-2.8-2.4-3.1-5.1-2.5-4.3,1.1-8.7,2.2-13,3.2-5.4,1.3-10.7,2.7-16.1,4-.7.2-1.3.3-2,.6-1.9.7-2.4,1.5-2.4,3.5,0,.3,0,.6,0,1-.7.3-1,.2-1.2-.5-.7-2.9-1.4-5.8-2.2-8.7-.5-1.8-.9-3.6-1.4-5.4-.2-.7-.2-1.1.8-1.1,0,.2.2.4.3.6,1,2.2,1.8,2.8,4.2,2.2,4.9-1.1,9.8-2.4,14.6-3.7.1,0,.2-.1.4-.3-1-3.8-1.9-7.6-2.9-11.6-3.9,1-7.6,1.9-11.3,2.8-1.8.5-3.5,1.1-5.4,1.7Z"/>
  <path class="st15" d="M97,229.2c-.1-.4-.2-.9-.1-1.2.3-1.8-.2-2.7-1.7-3.5-.4-.2-.8-.4-1.2-.5-4.3-1.6-8.6-3.2-13-4.7-.3-.1-.6-.2-1.1-.3-1.4,3.8-2.7,7.5-4.1,11.3.5.2,1,.5,1.4.6,4.1,1.5,8.2,3,12.3,4.5.4.1.8.3,1.2.4,1.9.5,2.8.2,3.9-1.6.3-.6.5-1.2,1.5-.5-1.8,5.1-3.7,10.2-5.6,15.3-.4-.1-.6-.2-.8-.3,0-.2-.2-.3-.2-.4.6-2.9.1-3.8-2.6-4.8-5.2-1.9-10.4-3.8-15.6-5.7-4.3-1.6-8.6-3.2-13-4.7-.6-.2-1.3-.5-1.9-.6-1.8-.5-2.8-.1-3.8,1.5-.3.5-.4,1.3-1.5.6,1.8-5.1,3.7-10.2,5.5-15.2.8,0,1,.2,1,.9-.3,2.8,0,3.5,2.7,4.5,4,1.5,7.9,2.9,11.9,4.3.3.1.6.1,1,.3,1.4-3.8,2.7-7.5,4.1-11.2-.3-.2-.4-.4-.5-.4-4.1-1.5-8.3-3-12.4-4.5-.3-.1-.6-.2-.9-.3-1.9-.4-2.7,0-3.7,1.7q-.5.8-1.5.5c1.8-5.1,3.7-10.1,5.5-15.2.8,0,1,.2,1,.8-.3,2.7,0,3.5,2.7,4.5,9.8,3.6,19.6,7.1,29.4,10.7.2,0,.3.1.5.2,2.3.7,3.1.4,4.4-1.6.4-.6.7-.9,1.4-.3-.2.7-.4,1.4-.7,2.1-1.4,3.9-2.8,7.8-4.3,11.7-.2.5,0,1.3-1.1,1.3Z"/>
  <path class="st15" d="M225.5,57.9c2.1-.1,4,0,5.9.7,5.2,1.7,8.6,9.8,3.1,14.8-.9.8-2,1.5-3,2.2-.4.3-.9.6-1.3,1.1.6,0,1.2-.2,1.8-.2,1.5,0,3-.2,4.5,0,8.3.9,10.4,10,7.4,15.1-1,1.6-2.2,3.1-3.8,4-1.7,1-3.5,2-5.3,2.7-4.9,1.7-9.8,3.2-14.7,4.8-.6.2-1.3.7-1.8-.4.5-.3.9-.6,1.4-.8,1-.6,1.5-1.5,1.4-2.6,0-.7-.2-1.5-.4-2.2-3.2-9.7-6.3-19.5-9.5-29.2-.1-.4-.3-.8-.5-1.2-.8-1.8-1.7-2.3-3.7-2q-.7,0-1.2-.8c.4-.2.8-.4,1.2-.5,4.1-1.3,8.2-2.8,12.4-4,2-.6,4-.9,6.2-1.3M235.5,94.2c.3-1.1,1-2.2,1-3.4,0-3.5-1.1-6.7-3.4-9.5-2-2.3-5.6-3.1-8.9-1.3,0,.2,0,.5.1.7,1.4,4.4,2.8,8.7,4.3,13.1.2.5.3.9.6,1.4.7,1.3,1.5,1.6,2.9,1.2,1.3-.4,2.4-1,3.4-2.3M220.3,68.4c1,3.1,2,6.1,3.1,9.3.7-.2,1.3-.4,1.8-.6,3-1.2,4.2-3.2,4-6.4-.2-2.1-.9-4.1-1.8-6-1.9-3.7-5.2-4.6-9-2.5.6,2,1.3,4,2,6.3Z"/>
  <path class="st15" d="M178.5,126.7c-3.1,2.1-6.2,4.2-9.3,6.3-.2-.3-.4-.5-.6-.7,0-.2.1-.4.2-.4,2.2-1.6,2-3.4.6-5.5-5.8-8.6-11.6-17.2-17.4-25.8-.2-.3-.4-.6-.7-.9-1.3-1.4-2.2-1.6-3.9-.9-.6.2-1.1.7-1.5-.4.3-.2.6-.5.9-.8,4.1-2.7,8.1-5.5,12.2-8.2,2.8-1.9,5.9-3.1,9.4-3.1,2.9,0,5.6.7,8,2.2,7.3,4.5,11.8,11,13.3,19.4,1.1,5.6-.8,10.5-5,14.3-1.9,1.7-4.1,3.1-6.2,4.6M169.4,93.1c-.5-.4-1-.8-1.5-1.1-3.5-2.2-7.4-1.6-10.3,1.5,0,.2.1.3.2.5,6.1,9.1,12.3,18.1,18.4,27.2.4.6.8,1.1,1.3,1.6.6.6,1.3.7,2.1.4,2.7-1.1,4.6-4.4,4.2-7.2-.2-1-.4-2-.7-2.9-3-7.5-7.4-14.2-13.7-19.8Z"/>
  <path class="st15" d="M555.2,309.9c-3.3-.2-6.2-.8-9-2.2-11.7-5.8-12.9-22.3-2.1-29.6,3.4-2.3,7.3-3.4,11.3-3.9,4.4-.5,8.7-.5,12.9.9,7.2,2.5,11.3,7.5,12,15.1.6,6.5-2.4,12.8-9.1,16.5-3.7,2-7.8,2.9-12,3.2-1.3,0-2.6,0-4.1,0M565.2,299.7c.5,0,1-.2,1.5-.3,2.8-.5,5.6-1.2,8.1-2.7,2.5-1.5,3.5-3.8,3.2-6.6-.3-2.8-1.8-4.6-4.3-5.6-1.6-.6-3.4-1-5.1-1.1-6.4-.5-12.7.1-18.9,1.2-2.4.4-4.8,1.1-7,2.4-2.6,1.5-3.9,3.7-3.6,6.8.3,3,2.1,4.9,4.9,5.8,1.6.5,3.4.8,5.1.9,5.3.3,10.6-.1,16.1-.9Z"/>
  <path class="st15" d="M63.7,359.6c-3.9,0-7.5-.6-10.8-2.3-10.7-5.5-12.4-20.5-3.1-28.2,3-2.5,6.5-3.9,10.2-4.7,4.9-1.1,9.8-1.3,14.8,0,7.7,2.1,11.8,8.3,12.5,14.3.9,7.7-2.4,14-9,17.6-4.5,2.4-9.3,3.3-14.6,3.4M46.4,345.1c.7,2.6,2.5,4,4.9,4.6,1.9.5,3.8.8,5.7.8,6.3,0,12.5-.8,18.7-2.2,2.4-.6,4.8-1.4,6.8-3,4-3.2,3.3-9.3-1.4-11.4-1.6-.7-3.3-1.1-5-1.2-5.7-.4-11.4.4-17.1,1.3-2.9.5-5.9,1.2-8.5,2.6-3.6,1.9-4.7,4.2-4,8.6Z"/>
  <path class="st15" d="M249.4,77.9c-1.8-5.1-2.6-10.2-2-15.5.9-8.9,7.3-15.4,16.2-15.9,6.1-.4,11.1,2.1,14.8,7,2.3,3,3.5,6.5,4.3,10.2,1,4.6,1.3,9.1,0,13.7-2.1,7.2-7,11.3-14.3,12.5-6.9,1.1-13.6-2.2-17.2-8.3-.7-1.1-1.2-2.3-1.8-3.6M259.6,80.5c.7,1.4,1.4,2.9,2.3,4.2,1.6,2.2,3.7,3.2,6.5,2.7,2.9-.5,4.8-2.1,5.5-4.9.5-2,.8-4,.7-6.1-.2-6.5-1.1-12.9-3-19.1-.6-2-1.5-3.9-2.6-5.7-1.6-2.5-4.1-3.4-7-2.8-2.7.5-4.5,2.2-5.2,4.8-.5,2-.8,4.2-.8,6.2.2,6.9,1.3,13.7,3.5,20.6Z"/>
  <path class="st15" d="M572,322.9c8.7,6.4,9.3,19,1.7,26.2-3,2.8-6.6,4.3-10.5,4.8-5.5.7-10.8.1-16-1.9-5.3-2-9.3-5.6-11.1-11.1-3.1-9.5,2.2-19.6,11.8-22,8.4-2.1,16.5-.9,24.1,3.9M539.3,339c1.7,1.8,3.8,2.8,6.1,3.4,3.9.9,7.8,1.7,11.7,2.2,3.6.4,7.2.4,10.8.5,1.8,0,3.6-.5,5.2-1.3,1.9-1,3.1-2.6,3.4-4.8.5-3-.5-5.2-3-6.9-1.9-1.3-4.1-2.1-6.3-2.6-5.8-1.4-11.7-2.2-17.7-2.2-2.3,0-4.6.3-6.8.9-4.9,1.5-6.5,6.4-3.4,10.9Z"/>
  <path class="st15" d="M440.1,125.1c-4.5-5.1-5.2-10.9-3-17,2.3-6.5,6.4-11.7,12.2-15.4,4.4-2.8,9.2-4,14.4-2.8,3.8.9,6.7,3.1,8.8,6.5.4.7.8,1.4,1.2,2.1.9,1.4,1.7,1.6,3.1.7.5-.3,1-1.1,1.9-.1-2.6,3.8-5.2,7.7-7.8,11.5-1.1-.1-.9-.7-.8-1.4.5-2,1-4,1.2-6,.3-2.5-.3-5-1.9-7.1-2.4-3.3-5.9-4.1-9.4-2.1-1.6.9-3.1,2.1-4.4,3.4-4.7,4.9-8.6,10.5-11.6,16.6-1,2-1.7,4-1.9,6.2-.2,3.1,1.4,5.6,4.2,6.8,1.8.8,2.4.6,3.5-1.1,1.5-2.2,3-4.4,4.5-6.7.3-.5.7-1.1.9-1.6.5-1.2.2-2.3-.7-3.2-.4-.4-.8-.7-1.3-1.2.3-.2.5-.5.8-.6.2,0,.4.2.6.3,4.2,2.8,8.3,5.6,12.5,8.4,0,.7-.3,1.2-.9.8-2-1.1-3.3,0-4.4,1.5-1.6,2.2-3.1,4.4-4.6,6.6-.4.6-.8,1.1-1.3,1.9-6.1-.5-11.5-2.6-16-7.2Z"/>
  <path class="st15" d="M152.3,126.5c-.3-.4-.6-.9-1-1.3-4-4.4-8-8.9-12-13.3,0,0,0,0-.1-.1-2.3-2.5-3-2.6-5.9-1-.6-.3-.8-.7-.2-1.3,2-1.8,4.1-3.7,6.1-5.5.6-.5,1-.5,1.3.3-1.8,2.6-1.8,3.2.4,5.6,7.7,8.6,15.4,17.1,23.1,25.6.5.6,1,1.1,1.5,1.7-.3,1-.9.9-1.6.7-3.1-.8-6.2-1.5-9.2-2.2-9.4-2.2-18.7-4.5-28.3-6.7-.3,0-.4,0-.5,0,0,.1,0,.2.1.4,2.3,2.6,4.6,5.2,6.9,7.8,3.4,3.8,6.7,7.5,10.1,11.2.4.4.7.8,1.1,1.2,1.7,1.7,2.9,1.8,4.9.5.2,0,.3-.2.5-.3.6.2.9.6.3,1.1-2.2,2.1-4.5,4.1-6.8,6.1-.2.2-.7,0-1.4,0,.7-.8,1-1.3,1.4-1.8.8-1,.8-2.1.2-3.1-.4-.7-1-1.3-1.5-1.9-6.4-7.2-12.9-14.3-19.3-21.5-.8-.8-1.6-1.4-2.7-1.5-1.4-.2-2.8-.7-4.2-.3-.2,0-.5-.2-.9-.4.4-.5.7-.8,1.1-1.2,1.7-1.6,3.5-3.1,5.2-4.8.8-.8,1.6-.9,2.7-.7,7.8,1.9,15.7,3.8,23.5,5.7,1.6.4,3.1.7,4.9,1.2.3,0,.4,0,.5,0,0-.1-.1-.2-.2-.3Z"/>
  <path class="st15" d="M46.9,313.6c-.5,0-.9,0-1.3,0-1.6,0-2.7.8-3.1,2.4-.1.6-.2,1.2-1.3.8.2-5,.3-10.1.5-15.2.6-.2.9-.3,1.2.4,1,2.8,1.4,3,4.3,3.1,8.6.3,17.3.6,25.9.9,1,0,2,0,3-.2,3.1-.4,5.2-2.5,5.6-5.6.2-1.3.2-2.8,0-4.1-.5-2.9-2-5.1-5.1-5.8-1.3-.3-2.6-.6-3.9-.6-8-.3-15.9-.6-23.9-.9-.9,0-1.7,0-2.6.1-1.4,0-2.5.7-2.8,2.2-.1.6-.4,1.1-1.3.6.1-2.9.3-6,.4-9.4.6.5,1,.7,1.1.9.8,2.6,1.4,3.1,4,3.2,7.6.3,15.3.5,22.9.8,2.1,0,4.2.2,6.3.7,3.6.8,6,3.2,7,6.8,1.3,4.4,1.1,8.8-.5,13-1.6,4.5-5.1,6.8-9.9,6.7-6.7-.1-13.3-.4-20-.6-2.1,0-4.2-.1-6.5-.2Z"/>
  <path class="st15" d="M503.9,187.6c-.2-.8-.2-1.4-.4-2-.4-1.3-1-1.8-2.5-1.7q-.9,0-1.6-.7c4.4-2.7,8.8-5.3,13.1-7.9.7.5.7.9.2,1.4-.7.7-1.5,1.3-2.1,2.1-2.5,2.8-4.2,6-4.1,9.9.1,3.7,2.5,6.4,5.7,6.8,2.8.3,7.4-1.6,7.9-5.7.2-2.3.2-4.7.4-7.1.2-2.9.1-5.9.7-8.7,1.3-5.9,8-10.2,13.9-9.3,4.6.8,8.1,4.6,8.7,9.7.1,1,.2,2.1.4,3.1.3,1.6.9,2,2.6,1.8q.8-.1,1.5.7c-3.8,2.4-7.5,4.8-11.2,7.2-.7-.4-.9-.8-.3-1.4.4-.4.8-.8,1.2-1.2,1.9-2.1,3.3-4.4,3.8-7.1.4-1.9,0-3.7-.8-5.4-1.2-2.3-3.7-3.6-6.2-3.3-2.6.4-4.7,2.3-5.1,5-.3,2.5-.2,5-.3,7.4,0,2.2,0,4.5-.1,6.7-.8,7.9-9.2,13.6-16.7,11.4-3.6-1-6.1-3.4-7.4-6.8-.6-1.5-.9-3.2-1.3-5Z"/>
  <path class="st15" d="M84,368.2c-2.4.6-3.9,2-4.6,4.1-.8,2.3-1.4,4.8-2.2,7.1-.7,2.2-1.3,4.4-2.3,6.5-3,6.6-10.6,7.9-15.1,6.5-4.7-1.5-7.8-6.4-7.1-11.6.1-1,.4-2.1.5-3.1.3-1.9-.3-2.6-2.2-2.8-.2,0-.7,0-.7,0-.1-.3-.2-.7-.1-1.1,0-.1.4-.2.6-.3,3.9-1.2,7.8-2.5,11.8-3.7.5.5.7.9,0,1.4-.7.4-1.4.8-2.1,1.3-2,1.4-3.8,3.1-4.8,5.3-1,2.1-1.3,4.3-.4,6.5.8,2.2,2.5,3.6,4.8,3.9,2.5.3,4.6-.5,5.9-2.8.9-1.6,1.4-3.4,1.9-5.2.8-2.7,1.3-5.6,2.2-8.3,2-5.7,6.3-8.6,12.2-9.1,7.4-.6,13,5.1,12.7,12.8,0,1.4-.3,2.9-.3,4.3,0,1.8.4,2.3,2.2,2.6.5,0,1,.1,1,.9-.3.1-.5.3-.9.4-4.3,1.2-8.6,2.5-12.9,3.7-.7.2-1.3.4-1.3-.8.5-.3,1.1-.6,1.7-.9,2.5-1.4,4.8-3.2,6.4-5.6,1.3-2,2-4.1,1.7-6.5-.5-3.9-3.5-6.1-7.4-5.6-.4,0-.7.2-1.2.3Z"/>
  <path class="st15" d="M337,72.8c-1.8-1.4-3.4-2.7-5.1-4-1.9-1.4-3.9-2.8-5.6-4.3-5.1-4.4-5.1-10.5-2.9-15.3,2.3-4.9,7.5-7.1,12.7-5.4,1.3.4,2.6,1.2,3.9,1.8.5.2,1,.5,1.5.7,1.2.4,1.8.2,2.4-1,.2-.3.2-.7.4-1,.1-.2.4-.3.6-.2.2,0,.3.3.5.5,0,0,0,.2,0,.4-.2,4.2-.3,8.4-.5,12.6-.7.3-1.1.1-1.2-.5-.2-1-.4-2-.6-2.9-.7-2.4-1.7-4.5-3.6-6.2-1.7-1.6-3.6-2.4-5.9-2.3-2.4.2-4.2,1.4-5.2,3.7-.9,2.3-.7,4.5,1,6.3,1.1,1.2,2.5,2.2,3.8,3.2,2.2,1.6,4.5,3,6.7,4.7,2.6,1.9,4.4,4.4,5,7.6.8,3.9.3,7.6-1.9,10.9-2.7,4.1-7.7,6-12.6,4.7-1.4-.4-2.7-1-4-1.5-.7-.3-1.3-.6-2-.9-1.6-.6-2.2-.4-3.1,1-.3.6-.5,1.2-1.5.7.4-5,.7-10.1,1.1-15.1.7-.2,1.1-.2,1.2.5.2,1.2.4,2.5.7,3.7.7,2.8,2,5.2,4.1,7.2,1.6,1.5,3.6,2.5,5.9,2.5,2.1,0,3.7-.9,4.9-2.6,2-2.9,1.8-6.6-.7-9.3Z"/>
  <path class="st15" d="M87.1,260.1c.2-.7.4-1.3.6-1.9,1.1,0,1,.4.9,1.1-.6,3.2-1.2,6.3-1.9,9.5-.3,1.6-.6,3.3-1,4.9-.1.6-.3,1.2-.5,2-.4-.3-.7-.5-.9-.7,0-.2,0-.5,0-.7.3-2.4-.4-3.5-2.8-4-2.2-.5-4.5-.9-6.8-1.4-8.9-1.7-17.8-3.5-26.7-5.2-.2,0-.4,0-.6,0-.4,1.5-.7,3.1-.5,4.7.2,2.1,1.2,3.7,3,4.7,1,.6,2.1,1,3.2,1.4.6.2,1,.5.5,1.4-3.4-.7-6.9-1.3-10.7-2.1,1.8-9.9,3.8-19.8,5.8-29.8,3.7.7,7.2,1.4,10.6,2.1.3.9,0,1.1-.8,1.1-1.2,0-2.4,0-3.5.2-2.4.3-4.1,1.7-5,4-.5,1.1-.8,2.3-1.2,3.7,2.3.5,4.4.9,6.5,1.3,8.8,1.7,17.6,3.4,26.4,5.1.7.1,1.4.2,2,.3,1.4.1,2.6-.3,3.3-1.8Z"/>
  <path class="st15" d="M559.7,203.4c1.5,2.6,2,5.3,1.9,8.2,0,.7,0,1.4,0,2,.2,1.6.6,1.9,2.2,1.8.3,0,.6-.2.9-.2.3,0,.6.4,1.2.8-4.5,2.1-8.6,4-12.8,6-.9-.5-.7-.9,0-1.4,1.3-1.1,2.6-2.2,3.7-3.4,1.5-1.8,2.5-3.9,2.5-6.3,0-3.4-1.8-6.2-5-7.3-2.4-.9-4.8-.9-7.2-.3-7.1,1.6-13.5,4.6-19.3,9-1.1.8-2,1.8-2.9,2.9-3.8,5-1.4,9.8,2,12,1.7,1.1,3.7,1.7,5.6,2.5.7.3,1.4.4,2.2.7-1.5,1.3-2.9,1.5-4.6,1-9.3-2.8-13.9-13.2-9.6-22.1,1.2-2.5,2.9-4.7,5-6.4,5.9-4.9,12.6-7.5,20.3-7.1,5.8.3,10.6,2.5,13.8,7.8Z"/>
  <path class="st15" d="M288.2,44c3.7,0,7.3-.2,10.8-.2.6,0,1.5-.4,1.5.9-.5.1-1,.2-1.6.3-1.7.4-2.1,1.1-1.5,2.7,0,.1,0,.2.1.4,2.2,5.5,4.5,11,6.8,16.6,0,.2.2.4.5.9.2-.5.4-.9.5-1.3,1.7-4.8,3.4-9.6,5.1-14.4.2-.6.4-1.3.5-2,.4-2,0-2.5-2-3q-.7-.2-.9-1.2h8.2c-.1.4-.1.9-.3,1-1.3.5-1.8,1.7-2.2,2.9-1.7,4.6-3.3,9.1-4.9,13.7-.7,1.9-1.4,3.7-1.9,5.6-.3,1.1-.5,2.3-.6,3.4,0,3,.1,6,.2,8.9,0,.6,0,1.1,0,1.7.2,2.3,1.1,3.2,3.4,3.4.5,0,1.1,0,2.1,0-.5.6-.7.9-.9,1.1-.2.1-.5,0-.7,0-5.5.1-10.9.2-16.4.3-.6,0-1.3.2-1.3-1,.8-.1,1.6-.2,2.3-.3,2-.3,2.8-1.1,2.9-3,0-3.6,0-7.2-.2-10.8,0-.5-.2-1-.4-1.4-2.8-6.7-5.5-13.4-8.3-20.2-.2-.5-.5-1-.7-1.5-.5-1.1-1.2-2.1-2.5-2.3-.6-.1-.8-.5-.6-1.3.9,0,1.9,0,3,0Z"/>
  <path class="st15" d="M557.2,365.8c3.4,1,6.7,1.9,10,2.8.5.1,1.1.3,1.6.3,1.5.2,2.5-.5,3.1-1.8.2-.4.2-.9.5-1.2.2-.2.5-.3,1-.6,0,.6,0,1,0,1.3-1.5,5.1-2.9,10.3-4.4,15.4-.2.6-.2,1.5-1.3.8.2-.8.4-1.6.5-2.3.2-1.5-.3-2.4-1.7-3-.6-.3-1.3-.5-1.9-.7-9.4-2.7-18.9-5.4-28.3-8.1-.8-.2-1.6-.4-2.4-.5-1.1-.2-2,.3-2.4,1.4-2.1,6.1-1.9,10.1,3,14.1,1.2.9,2.4,1.8,3.6,2.6.6.4,1,.7.4,1.6-4.3-1.8-8.7-3.5-13.2-5.3.1-.6.2-1.1.4-1.6,2.4-8.4,4.8-16.7,7.2-25.1.1-.4.2-.9.4-1.2.1-.2.6-.2,1.1-.3,0,.8-.2,1.4-.2,2-.2,1.9.3,2.7,2.1,3.4.9.4,1.9.6,2.8.9,6,1.7,11.9,3.4,18.1,5.2Z"/>
  <path class="st15" d="M112.9,192.8c1.1-3.1.7-5.9-1-8.5-1.1-1.6-2.3-3.1-3.5-4.6-.5-.7-.5-.6-.2-1.8,3.9,2.9,7.6,5.8,11.5,8.7-5.1,8.5-10.1,16.8-15.1,25.1-.7,0-1.1-.2-.8-.9,0-.2.2-.3.3-.5,1.1-2.6.9-3.6-1.6-5.1-3.4-2.1-6.8-4.1-10.2-6.2-5.4-3.2-10.8-6.5-16.1-9.7-.4-.2-.7-.5-1.1-.7-2.1-1.1-3.2-.8-4.7,1.1-.2.2-.3.5-.5.7-.1.1-.3.2-.5.1-.2,0-.3-.2-.6-.4,3.1-5.1,6.2-10.3,9.3-15.5.3.2.6.3.9.4-.4.8-.7,1.5-1,2.2-.6,1.5-.4,2.4.9,3.5.5.4,1,.7,1.5,1,8.5,5.1,16.9,10.2,25.4,15.3,3.2,1.9,4,1.7,5.8-1.6.5-.9.9-1.8,1.3-2.8Z"/>
  <path class="st15" d="M117.5,151.2c5.5,2.2,10.8,4.5,16.2,6.6.9.4,1.9.7,2.8,1,1,.3,2.1.4,3-.2.6-.4.9-.2,1.2.5-3,3.7-6,7.5-9.1,11.2-.7-.3-1-.5-.6-1.2,1.2-2.3,1.1-2.6-1.3-3.8-1.6-.8-3.3-1.5-5.1-2.2-2.2,2.7-4.3,5.3-6.5,8.1,1.1,1.6,2.1,3.2,3.3,4.8,1.3,1.8,2.1,1.8,3.8.4.1-.1.3-.2.5-.4.4.2,1,.4.5,1-1.6,2.1-3.3,4.1-5,6.2-.8-.2-1-.6-.7-1.2.6-1.2.2-2.3-.4-3.4-.8-1.4-1.6-2.8-2.5-4.1-6.3-9.5-12.6-19-18.9-28.4-.3-.5-.7-1-1-1.5.2-1.2.9-1,1.7-.6,3.2,1.3,6.4,2.7,9.6,4,2.8,1.1,5.5,2.3,8.4,3.4M112,161.8c1.6,2.4,3.2,4.8,4.9,7.3,1.7-2.1,3.4-4.1,5-6.1.2-.2.3-.5.5-.8-3.6-1.9-12.1-5.2-13.5-5.3,1,1.6,2,3,3.2,4.8Z"/>
  <path class="st15" d="M430.4,84.4c1.3-2.4,2.6-4.6,3.7-6.8.9-1.8.7-2.9-.5-4-.1-.1-.3-.2-.4-.4-.1-.1-.2-.3-.5-.6.4-.2.7-.4,1-.4.2,0,.4.2.7.3,3.9,2.2,7.8,4.3,11.7,6.5.5.3,1.3.5.7,1.3-.2,0-.3.1-.4.1-2.7-.8-3.7-.5-5,1.9-5.1,9.1-10.1,18.2-15.2,27.4-.2.3-.4.7-.5,1-.8,1.9-.6,2.7,1,4.1.2.2.4.3.6.5-.1,1-.6,1-1.3.6-4.1-2.3-8.1-4.5-12.2-6.8-.2-.1-.5-.3-.6-.4,0-.2,0-.5,0-.8.3,0,.4-.1.5-.1,2.6.8,3.5.5,5.1-2.3,3.6-6.5,7.2-13,10.8-19.6.2-.4.5-.9.8-1.4Z"/>
  <path class="st15" d="M358.6,63c-1.7,1-3.4,1.8-5.3,2.1-.6-1,.1-1.3.8-1.6,1.9-.8,3.6-2,4.8-3.7.6-.9,1-2,1.4-3,.1-.4,0-.9,0-1.5-.6,0-.9.1-1.3.2-2.7.5-4.9-1.5-4.6-4.3.2-2.2,1.5-3.9,3.5-4.4,1.9-.5,4.2.5,5.3,2.2,1.1,1.6,1.3,3.5,1,5.4-.6,3.6-2.4,6.5-5.6,8.6Z"/>
  <path class="st15" d="M501.9,531c1.8,5.2,3.5,10.5,5.3,15.7.3.8.6,1.5.7,2.3.3,1.2-.4,2.4-1.3,2.8-1,.4-2.2,0-2.9-1.2-.3-.4-.4-.9-.6-1.4-2.5-7.3-5-14.7-7.5-22,0-.2-.2-.5-.3-.7-.7-2.3-.3-3.5,1.5-4.4,2.2-1.1,3.9-.7,5.3,1.1.4.6.8,1.3,1.1,1.9,1.7,3.2,3.4,6.5,5.1,9.7.3.5.6,1.1,1.2,1.5-.2-1.2-.3-2.5-.6-3.7-.5-3.1-1.1-6.2-1.6-9.4-.1-.8-.2-1.6-.1-2.4,0-1.3.7-2.2,1.9-2.8,2.7-1.3,4.5-.7,5.5,2.3,2.4,7,4.8,14,7.1,21,.3.9.6,1.8.8,2.7.3,1.5-.2,2.6-1.3,3-1.2.4-2.4-.2-3-1.6-.2-.5-.4-1-.6-1.6-1.5-4.3-3-8.7-4.5-13-.3-1-.7-2-1.1-3.2-.2-.7-.4-1.1-.6-1.6,0,0-.2,0-.2,0,.1.5.3,1,.4,1.5.4,2.9.9,5.9,1.3,8.8.5,3.3,1.1,6.6,1.6,9.9,0,.6.2,1.3.1,1.8-.1.5-.5,1-.9,1.2-.4.2-1.1,0-1.5-.3-.5-.4-.8-1.1-1.1-1.7-2.9-5.4-5.8-10.8-8.9-16.5-.2-.4-.4-.6-.5-.8,0,0-.1,0-.2,0,0,.2.1.5.2.7M501.7,529.7c0-.1,0-.2-.1-.3,0,.1,0,.3.1.3Z"/>
  <path class="st15" d="M425,575.6c-3.3-6-6.5-11.9-9.7-17.8-.3-.6-.7-1.2-1-1.8-.8-1.7-.5-2.6,1.1-3.6,1.6-1,3.3-2,5-2.9,2.2-1.3,4.3-1.1,6.2.5,1.2,1,2.3,2.1,3.1,3.4,2.3,3.8,4.4,7.8,6.5,11.7,1,1.9,1.4,4.1,1.4,6.3,0,2-.9,3.6-2.6,4.7-1.7,1.1-3.4,2.1-5.1,3-1.5.8-2.5.5-3.4-1-.5-.8-.9-1.6-1.4-2.6M419.8,555.1c-.9.7,0,1.2.2,1.7,2.9,5.5,5.9,10.9,8.9,16.3.2.3.4.6.6.8,3.1-1.2,3.8-2.4,2.7-5.9,0,0,0-.1,0-.2-1.7-4.2-3.9-8.2-6.5-11.9-1.8-2.6-2.8-2.7-5.8-1Z"/>
  <path class="st15" d="M539,539.9c-1.1.6-2,1.3-3.1,1.6-2.7.9-5.2.4-7.1-1.9-.9-1-1.6-2.2-2.1-3.5-2.6-5.9-5-11.8-7.5-17.7-.2-.5-.4-.9-.5-1.4-.3-1.2.3-2.4,1.2-2.8,1-.4,2.2,0,2.9,1.1.4.6.6,1.2.9,1.8,2.3,5.4,4.5,10.8,6.8,16.1.5,1.1,1.1,2.1,1.8,3,.9,1,1.8,1.1,2.8.6,1.1-.5,1.6-1.5,1.4-2.6-.1-1.2-.5-2.3-1-3.4-2.3-5.5-4.7-11-7-16.5-.3-.8-.5-1.7-.6-2.5,0-.9.4-1.6,1.2-1.9.9-.3,1.8-.2,2.4.5.4.5.8,1.1,1.1,1.7,2.5,5.9,5,11.8,7.5,17.7.5,1.2.8,2.6,1,3.9.3,2.3-.4,4.3-2.3,5.9Z"/>
  <path class="st15" d="M551.4,506.1c.4.9.8,1.6,1,2.3.3,1.2-.2,2.2-1.3,2.8-1,.5-1.7.4-2.5-.5-.5-.6-.8-1.3-1.2-1.9-.8-1-1.5-1.3-2.6-.9-1,.3-1.6,1.2-1.7,2.2-.1,1.8,1,3.5,2.9,4.1,1.7.5,3.4.8,5.1,1.2,5.2,1.1,8.5,5.5,8.2,10.8-.3,4.5-5.1,7.4-8,7.3-.9,0-1.9-.3-2.6-.8-2-1.2-3.3-3-3.9-5.2-.1-.4-.2-.9-.2-1.3,0-1,.6-1.8,1.5-2.2.9-.4,1.7-.1,2.4.9.6.9,1,1.8,1.7,2.7.8,1.1,1.7,1.3,2.8,1,1.2-.5,1.9-1.5,1.9-2.7,0-.2,0-.4,0-.6-.5-1.9-1.4-3.4-3.5-4-1.9-.5-3.7-1-5.6-1.4-4.3-1.1-7.1-4.7-7-9.1,0-3.9,3.2-7.3,7.1-7.7,2.5-.2,4.3,1,5.8,3Z"/>
  <path class="st15" d="M465.9,559.2c-1,4.3-5,7-8.9,6.2-2.4-.5-3.8-2.2-4.9-4.2-.5-.9-.8-2-1-3-.3-1.4.3-2.3,1.4-2.7,1.1-.4,1.9,0,2.6,1.2.4.7.7,1.5,1.1,2.2.9,1.8,2.2,2.4,3.6,1.9,1.5-.6,1.9-2,1.4-3.9-.5-1.6-1.5-2.7-3-3.3-1.9-.8-3.8-1.5-5.7-2.2-4.1-1.6-6.6-5.7-6.2-10,.2-2.8,2.3-5.2,5.3-6.1,2.8-.8,5.4,0,7.1,2.3.7,1,1.3,2.1,1.7,3.3.4,1.3-.2,2.4-1.4,2.9-1.2.4-2,0-2.8-1.2-.3-.6-.6-1.2-1-1.8-.8-1.2-1.7-1.5-2.9-1-1.1.5-1.7,1.5-1.5,2.7.3,1.6,1.2,2.9,2.7,3.6,1.1.5,2.2.8,3.3,1.2.4.1.8.3,1.2.4,5.6,1.9,8.1,5.6,8,11.7Z"/>
  <path class="st15" d="M471.1,538.5c1.5,4.4,2.9,8.7,4.5,13,.3.9.9,1.8,1.5,2.5,1.3,1.5,3.3,1.1,3.8-.9.2-.7,0-1.5,0-2.2-.1-1-.5-1.9-.5-2.9,0-1.2.6-2,1.8-2.3,1-.3,1.7,0,2.4,1,2.8,3.9,1.5,9.7-2.7,11.9-.9.4-1.8.7-2.8,1-1.9.5-3.6,0-5-1.3-.9-.9-1.7-1.9-2.2-3-2.5-5.4-4.7-11-5.6-16.9-.8-5.2,3-9.4,8.2-9.2,3.3,0,6.4,3.5,6.2,6.8,0,1.1-.7,1.8-1.7,2.2-1.1.4-1.8.1-2.5-1-.5-.7-.8-1.5-1.3-2.2-.5-.7-1.1-1.3-2-1.1-1,.2-1.9.9-2,2,0,.8,0,1.7.2,2.7Z"/>
  <path class="st15" d="M490.6,530.9c2,6.6,4,13.1,6,19.6.2.7.3,1.5.3,2.2,0,1.1-1,2-2,2.2-.9.1-1.7-.4-2.3-1.3-.2-.4-.4-.9-.5-1.4-2.3-7.5-4.6-15-6.8-22.5-.2-.5-.3-1.1-.3-1.6,0-1.3.9-2.4,2-2.6,1-.2,2,.4,2.4,1.6.5,1.2.8,2.5,1.2,3.9Z"/>
  <path class="st15" d="M440.8,551.2c2.5,5.1,4.9,10.1,7.3,15,.5,1,.8,2,.2,3-.8,1.7-2.6,1.9-3.8.4-.2-.3-.4-.6-.6-1-3.5-7.2-7.1-14.4-10.5-21.6-.3-.6-.4-1.4-.4-2.1,0-1,.6-1.7,1.7-2,1-.3,1.9,0,2.5,1.1.3.5.6,1.1.9,1.7.9,1.8,1.7,3.6,2.7,5.5Z"/>
  <path class="st14" d="M511.9,527.6c-.2-.5-.3-1-.5-1.5,0,0,.2,0,.2,0,.2.4.3.9.5,1.5,0,.1-.2.1-.3.1Z"/>
  <path class="st14" d="M502.1,531c-.2-.3-.2-.5-.3-.8,0,0,.1,0,.2,0,.1.2.3.4.4.7,0,.1-.1.1-.3.1Z"/>
  <path class="st15" d="M64.8,503.7c1-1.7,1.9-3.4,2.8-5,.2-.3.4-.7.6-1,.9-1.3,1.9-1.7,2.9-1.2,1.2.5,1.8,2,1.4,3.3-.2.5-.4.9-.6,1.3-3.7,6.6-7.4,13.1-11,19.7-.1.2-.2.4-.4.6-.6,1-1.3,1.8-2.7,1.6-1.2-.2-2.5-1.6-2.6-2.9,0-.7,0-1.4.1-2,.9-5,1.8-9.9,2.7-14.9,0-.4,0-.9.2-1.7-.5.7-.8,1.1-1,1.5-2,3.6-4,7.2-6,10.7-.2.3-.3.7-.5,1-.8,1.2-1.8,1.6-2.8,1.2-.9-.4-1.7-1.6-1.5-2.7,0-.7.4-1.3.7-1.9,3.7-6.7,7.5-13.3,11.2-20,0-.1.1-.2.2-.3.5-1,1.2-1.9,2.4-1.7,1.3.2,2.3,1,2.7,2.3.2.8.2,1.7,0,2.6-.8,5-1.7,9.9-2.6,14.9,0,.4,0,.8.1,1.3,1.2-2.2,2.5-4.4,3.8-6.7Z"/>
  <path class="st15" d="M86.2,517c.9-2.1,1.7-4,2.7-5.9,1.1-2.1,3.5-2.3,4.7-.4.4.7.5,1.7.5,2.5-.1,2.4-.4,4.8-.7,7.2-.3,3.1-.6,6.3-.7,9.5.2-.4.5-.8.6-1.2,1.8-4,3.6-8,5.4-12.1.3-.6.5-1.1.9-1.6.7-.9,1.9-1.2,2.8-.8.8.4,1.3,1.5,1.1,2.6,0,.5-.3,1-.5,1.4-3.3,7.4-6.7,14.9-10,22.3-.2.4-.4.8-.6,1.1-.7,1.1-1.7,1.5-2.7,1.2-1.3-.3-2.3-1.3-2.2-2.6,0-2.3.4-4.6.6-6.9.4-3.5.7-7,.8-10.7-.2.4-.5.7-.7,1.1-1.8,4-3.6,7.9-5.4,11.9-.3.6-.6,1.2-1,1.7-.7.8-1.7,1-2.5.6-.9-.4-1.5-1.4-1.3-2.5.1-.7.4-1.4.7-2.1,2.5-5.5,4.9-11,7.5-16.6M89.2,522c0,0,0,.2,0,.3,0-.1,0-.3,0-.3Z"/>
  <path class="st15" d="M159.4,539.3c.8-1.3,1.4-2.6,2.3-3.7,1.5-1.9,3.5-2.4,5.9-1.7.8.2,1.7.5,2.4.9,2.5,1.2,3.8,3.2,3.8,5.9,0,2.1-.3,4.2-.8,6.2-.9,3.4-2,6.8-3.3,10.1-.6,1.7-1.5,3.4-2.6,4.9-1.7,2.4-3.7,3-6.5,2.2-.5-.2-1.1-.4-1.6-.6-3.4-1.4-4.6-3.6-4.5-7.3,0-1.4.3-2.9.7-4.2,1.3-4.2,2.7-8.4,4.1-12.7M165.8,538.6c-.6.9-1.5,1.7-1.8,2.7-1.6,4.7-3,9.5-4.5,14.2-.2.7-.2,1.5-.1,2.2,0,1.1.8,1.6,1.8,1.9,1,.3,1.8-.1,2.2-.9.6-1.1,1.3-2.3,1.7-3.5,1.2-3.5,2.3-7,3.3-10.5.4-1.2.5-2.4.6-3.7,0-2.1-.8-2.8-3.2-2.5Z"/>
  <path class="st15" d="M66.6,515.2c1.3-2.2,2.4-4.4,3.8-6.4,1.2-1.8,2.6-3.5,4.2-5,2-1.9,4.4-2.1,6.9-.8,2.5,1.4,4.4,3.2,4,6.3-.2,1.7-.6,3.5-1.4,5-2.4,4.5-5.1,9-7.7,13.4-.7,1.1-1.7,2.1-2.7,3-2.3,2.1-4.5,2.2-7.2.8,0,0-.1,0-.2,0-3.5-1.9-4.5-4.2-3.4-8.1.8-2.9,2.2-5.5,3.8-8.2M77.5,507.6c-.8.9-1.8,1.8-2.4,2.8-2.3,3.9-4.6,7.8-6.8,11.8-.4.8-.7,1.7-1,2.6-.4,1.3,0,2.1,1,2.7.9.5,1.7.4,2.7-.6.6-.7,1.3-1.4,1.7-2.2,2.3-3.9,4.6-7.8,6.8-11.8.5-.9.9-1.9,1.1-2.9.5-2-.8-3.1-3.1-2.4Z"/>
  <path class="st15" d="M147.4,555c.9-2.9,1.7-5.7,2.6-8.8-2-.5-3.8-1.1-5.8-1.6-1,3.3-1.9,6.5-2.8,9.6-.2.7-.4,1.4-.8,2.1-.6,1.1-1.6,1.5-2.7,1.2-1-.3-1.6-1.1-1.5-2.5,0-.6.2-1.1.3-1.6,2.2-7.6,4.4-15.1,6.7-22.7.2-.6.4-1.3.8-1.9.6-1,1.6-1.4,2.6-1.1,1,.3,1.7,1.3,1.6,2.5,0,.6-.2,1.2-.4,1.8-.8,2.7-1.6,5.4-2.4,8.2,1,.3,1.9.6,2.8.9.9.3,1.9.5,3,.8.8-2.8,1.6-5.5,2.4-8.1.2-.7.4-1.4.8-2.1.6-1,1.6-1.3,2.6-1.1.9.3,1.5,1.1,1.5,2.3,0,.5-.1,1.1-.3,1.6-2.3,7.8-4.5,15.5-6.8,23.3-.1.4-.2.8-.4,1.2-.6,1.2-1.8,1.8-2.9,1.4-1-.3-1.6-1.5-1.4-2.8.2-.9.5-1.7.7-2.7Z"/>
  <path class="st15" d="M189.9,569c-.9,1.3-1.8,2.6-2.7,3.8-1.1,1.4-2.2,1.7-3.3.9-1.1-.8-1.3-1.9-.5-3.5.4-.7.8-1.3,1.2-1.9,4.4-5.9,8.8-11.9,13.2-17.8.2-.3.4-.6.7-.9,1.3-1.6,2.3-1.9,3.8-1.3,2.1.9,2.9,1.9,2.6,4-.3,1.9-.8,3.8-1.3,5.6-1.6,6.2-3.2,12.4-4.8,18.6-.2.7-.4,1.4-.7,2.1-.5,1.2-1.5,1.7-2.5,1.4-1.2-.3-2.1-1.3-2-2.6,0-1,.4-1.9.6-2.9.3-1.1.6-2.2.9-3.2,0-.1,0-.2,0-.6-1.4-.8-2.8-1.6-4.3-2.3-.2-.1-.7.3-1.1.5M198.6,556.7c-1.8,2.6-3.6,5.1-5.4,7.8.7.4,1.2.7,1.8,1,.6.3,1.2.6,1.9,1,1.1-3.9,2.2-7.5,3.2-11.2,0,0-.2,0-.3-.1-.3.4-.7.9-1.1,1.5Z"/>
  <path class="st15" d="M109.5,537.5c.7,1,.6,1.9.4,2.8-.2.9-.4,1.7-.5,2.6,0,1.4.7,2.4,1.8,2.7,1.2.4,2.2,0,3-1.3,1.1-1.7,1.1-3.5.1-5.3-1-1.8-2-3.6-3.1-5.3-2.2-3.4-1.9-6.9,0-10.3,1.8-3.3,5.2-4.4,8.8-3.1,3.3,1.2,5.1,4.3,4.4,7.9-.2.8-.4,1.6-.7,2.3-.6,1.2-1.7,1.5-2.8,1.1-1.1-.4-1.6-1.1-1.4-2.5,0-.7.3-1.5.4-2.2,0-1.4-.5-2.2-1.7-2.5-1.1-.3-2.2.1-2.8,1.3-.9,1.5-.8,3.1,0,4.6.9,1.6,2,3,2.8,4.6.7,1.2,1.4,2.5,1.7,3.9.7,3.7-.4,7.1-3.1,9.7-2.3,2.3-5.2,2-8,.9-2.6-1-3.9-3-4-5.7,0-1.8,0-3.5.9-5.1.9-1.8,1.8-2.1,3.9-1.1Z"/>
  <path class="st15" d="M219.4,564.8c-2-1.1-3.9-2.2-6-3.3-1,2.1-1.9,4.1-3,6.2,1.5.9,3,1.7,4.5,2.6.5.3,1.1.6,1.6,1,1,.8,1,2.3.2,3.6-.8,1.1-1.6,1.3-2.9.6-1.8-.9-3.6-2-5.5-3.1-1.1,2.5-2.2,4.8-3.4,7.3.4.3.8.6,1.2.8,1.6.9,3.3,1.8,4.9,2.8,1.7,1,1.8,3.1.3,4.4-.7.6-1.5.7-2.2.3-2.9-1.6-5.8-3.2-8.6-4.9-1.1-.6-1.3-1.5-.9-2.8.2-.5.4-1.1.6-1.6,3.2-6.9,6.5-13.8,9.7-20.8.1-.2.2-.5.3-.7,1.1-2.1,1.9-2.4,4-1.3,2.4,1.3,4.8,2.6,7.1,4,1.7,1,2,2.6.8,4.1-.7,1-1.6,1.1-2.8.7Z"/>
  <path class="st15" d="M136.5,548.1c-.5,1.5-.9,2.9-1.6,4.1-1.4,2.5-3.8,3.4-6.5,2.9-.9-.2-1.8-.5-2.7-.8-2.6-1.1-4-3.2-4.1-5.9,0-1.5,0-3,.3-4.4,1-4.2,2.1-8.4,3.4-12.6.4-1.4,1.2-2.7,2-4,1.3-2.2,3.4-3.1,5.9-2.7,1,.2,2.1.4,3,.9,3.8,1.7,5.4,6.4,3.5,10.1-.6,1.1-1.3,1.5-2.4,1.3-1.2-.2-1.9-.9-2-2.1,0-.7,0-1.4.1-2,0-.6,0-1.2,0-1.9-.1-.9-.7-1.4-1.5-1.7-.8-.2-1.7-.1-2.2.6-.5.7-1,1.4-1.3,2.3-1.7,4.6-2.9,9.4-3.8,14.2-.1.8,0,1.6,0,2.4.2,1,.8,1.7,1.8,1.9,1.1.2,1.8-.4,2.3-1.2.2-.4.4-.8.5-1.2.3-.6.4-1.3.7-1.9.6-1.3,1.2-1.6,2.3-1.5,1.2.2,2,.9,2.2,2.2,0,.3,0,.6,0,1.1Z"/>
  <path class="st15" d="M178.5,553.2c-1.5,3.5-2.8,6.9-4.3,10.4,1.6.7,3.1,1.4,4.6,2,.5.2,1,.4,1.5.7,1.6.8,1.9,1.8,1.3,3.3-.6,1.5-1.7,2-3.3,1.3-2.7-1.1-5.4-2.3-8-3.4-1.4-.6-1.8-1.4-1.4-3,.1-.5.3-1.1.5-1.6,3-7.2,5.9-14.3,8.9-21.5.2-.6.5-1.2.8-1.7.7-1.1,1.7-1.4,2.7-1.1,1,.4,1.5,1.2,1.3,2.4,0,.7-.3,1.3-.5,2-1.4,3.3-2.7,6.7-4.2,10.1Z"/>
  <path class="st15" d="M293.1,617.3c-.4,1.2-.6,2.3-1.1,3.3-.8,1.7-2.2,2.7-4.1,3-2,.3-4.1.6-6.1.8-2,.2-2.8-.5-3-2.4-.6-5.9-1.2-11.8-1.8-17.6-.2-1.9-.4-3.8-.6-5.8-.3-2.5.4-3.4,2.9-3.7,1.6-.2,3.2-.4,4.8-.6,3.4-.5,5.5.6,6.8,3.8.7,1.7,1.2,3.5,1.4,5.4.5,3.6.7,7.3,1,10.9,0,.9-.2,1.9-.3,2.9M287.5,604c-.3-1.2-.6-2.4-1-3.6-.4-1.1-1.4-1.7-2.6-1.7-.8,0-1.7.3-2.6.4.7,6.9,1.4,13.6,2.1,20.4.6,0,.9,0,1.3,0,2.4-.2,3.2-.9,3.6-3.2.2-1,.3-2.1.2-3.1-.2-3-.6-5.9-1-9.2Z"/>
  <path class="st15" d="M360.4,601.5c.5,5.4.9,10.7,1.3,16,.2,2.3.3,4.6.5,6.9,0,.6,0,1.1,0,1.7-.2,1.3-.9,2-2,2.1-1.2,0-2.3-.5-2.6-1.7-.2-.8-.3-1.6-.4-2.4-.1-1.4-.2-2.8-.2-4.4-1.9-.3-3.7-.6-5.7-1-.6,1.9-1.1,3.7-1.7,5.4-.5,1.6-1.2,2-2.6,1.9-1.4-.2-2.3-1.2-2-2.6.1-.9.4-1.8.7-2.7,2.3-6.8,4.5-13.6,6.8-20.3.1-.4.3-.8.4-1.2.9-2.3,1.6-2.7,3.7-2.5,2.3.3,3.2,1.1,3.5,3.4,0,.4,0,.9.2,1.5M353.5,611.5c-.3.9-.5,1.9-.8,2.9,1.4.2,2.7.4,4.2.7-.2-3.9-.3-7.6-.5-11.4-.1,0-.3,0-.4,0-.8,2.5-1.6,5-2.4,7.8Z"/>
  <path class="st15" d="M246.1,629.9c-3.2-1.8-4.3-4.5-4.3-7.8,0-.7.4-1.5.9-1.9,1.1-1,2.6-.6,3.2.8.3.7.5,1.5.7,2.3.6,1.9,1.7,2.8,3.1,2.5,1.6-.3,2.3-1.6,2.2-3.6,0-1.7-.9-2.9-2.3-3.8-1.8-1-3.6-2-5.4-3-3.7-2.1-5.5-6.4-4.4-10.5,1-3.8,5.5-6.3,9.3-5.3,2.7.7,5.1,4,4.9,6.8-.1,1.3-.8,2.1-2,2.4-1.2.2-1.9,0-2.4-1.3-.3-.6-.4-1.3-.7-1.9-.5-1.3-1.3-1.8-2.4-1.6-1.2.2-2.1,1.1-2.2,2.4-.2,1.7.4,3.1,1.9,4,1,.6,2.1,1.2,3.1,1.7.7.4,1.3.7,2,1,4.2,2.2,6.2,6.6,5.2,11.3-1,4.5-5.7,7.1-10.4,5.7Z"/>
  <path class="st15" d="M272.3,608.1c1.7,2.5.9,4.2-1.9,4.7-1.9.3-3.8.7-5.8,1,.4,2.6.7,5,1.1,7.7,2.2-.4,4.2-.7,6.3-1,.2,0,.5-.1.7-.2,1.6-.2,2.5.3,2.8,1.7.4,1.6-.2,2.8-1.8,3.1-2.6.5-5.1.9-7.7,1.4-.6.1-1.2.2-1.8.3-1.7.2-2.6-.4-2.9-2.1-.3-1.7-.5-3.4-.7-5.2-.8-6.1-1.6-12.2-2.4-18.3-.3-2.6.3-3.4,2.8-3.8,2.8-.5,5.5-.9,8.3-1.4,2-.4,3.3,1.2,2.8,3.2-.2,1-1,1.5-2,1.7-2,.3-3.9.7-5.9,1-.3,0-.6.2-1,.3.3,2.1.6,4.2.9,6.4,1.6,0,3.1-.5,4.6-.6,1.2-.1,2.4-.8,3.7,0Z"/>
  <path class="st15" d="M381.5,607.6c-2.5-.6-4.8-1.1-7.3-1.7-.4,2.2-.8,4.3-1.2,6.5,1.9.5,3.8,1,5.6,1.4.5.1,1,.2,1.4.4,1.2.6,1.6,1.8,1.2,3.2-.4,1.3-1.2,1.7-2.6,1.4-2.1-.4-4.1-.9-6.4-1.5-.8,2.4-.9,4.9-1.5,7.5.5.2,1,.4,1.6.5,1.9.5,3.7.9,5.6,1.4,1.4.4,2,1.2,1.9,2.6,0,1.7-1.2,2.6-2.9,2.2-2.5-.6-5.1-1.2-7.6-1.9-.4-.1-.9-.2-1.3-.3-2.1-.5-2.7-1.4-2.3-3.5.4-2.4.8-4.8,1.3-7.2,1-5.3,1.9-10.5,2.9-15.8,0-.4.1-.7.2-1.1.4-1.3,1.1-1.7,2.4-1.6.2,0,.5,0,.7.1,2.9.7,5.8,1.4,8.7,2.2,1.4.4,2,1.2,2,2.5,0,1.5-.6,2.1-2.4,2.4Z"/>
  <path class="st15" d="M312,614.1c.9-6.3,1.8-12.5,2.7-18.6.3-1.8.9-2.5,2.1-2.6,1.4-.1,2.3.5,2.4,1.9,0,1,0,2-.2,3-1.3,7.5-2.7,15-4.1,22.5-.5,2.5-1.4,3.3-3.8,3.2-1.9,0-2.9-.8-3.3-2.7-.6-2.9-1.2-5.8-1.7-8.8-1-5.1-1.9-10.3-2.9-15.4,0-.4-.1-.7-.2-1.1,0-1.5.8-2.6,2.2-2.8,1.5-.2,2.3.5,2.6,2.2.4,2.3.8,4.7,1.1,7,.8,4.7,1.5,9.4,2.5,14.1.1-.7.3-1.3.4-2.1Z"/>
  <path class="st15" d="M345.6,600.4c-1.3-.1-2.4-.3-3.7-.4-.1.9-.2,1.7-.3,2.4-.4,5.9-.8,11.8-1.3,17.7,0,.9-.1,1.7-.3,2.6-.3,1.4-1.2,2.2-2.4,2.1-1.2,0-2-1-2.2-2.4,0-.6,0-1.1,0-1.7.5-6.1.9-12.3,1.4-18.4,0-.9,0-1.7.2-2.8-1.4-.2-2.6-.3-3.9-.5-1.1-.1-1.8-.8-2-1.9-.4-1.8.8-3.2,2.7-3,2.8.2,5.6.6,8.3.9,1.2.1,2.5.2,3.7.4,1.6.3,2.4,1.1,2.3,2.6,0,1.5-.7,2.1-2.6,2.4Z"/>
  <path class="st15" d="M322.9,612.8c.2-5.6.4-11,.6-16.4,0-.5,0-1,.1-1.5.3-1.1,1.2-1.9,2.2-1.9,1,0,2,.8,2.2,1.9.1.5,0,1,0,1.5-.2,8.1-.5,16.2-.8,24.2,0,.2,0,.4,0,.6-.2,1.5-1.1,2.4-2.3,2.4-1.3,0-2.2-.9-2.3-2.5,0-2.1,0-4.2.1-6.3,0-.6,0-1.2,0-2Z"/>
  <path class="st20" d="M329.7,425.3c0,35.3,0,70.4,0,105.5,0,.4,0,.9,0,1.3.1.9-.3,1.5-1.1,1.9-3.8,2.1-7.6,4.2-11.4,6.3-1.8,1-3.6,2-5.4,3-.7.4-1.3.4-2.1,0-5.6-3.2-11.3-6.4-16.9-9.5-1-.5-1-1.2-1-2.1,0-8.3,0-16.6,0-24.8,0-8,0-16.1,0-24.1,0-24.4-.2-48.8-.2-73.2,0-11.1-.1-22.3,0-33.4,0-1.3-.4-2.1-1.5-2.9-45.9-34.1-91.8-68.2-137.7-102.2-.4-.3-.9-.5-1.2-.9-.3-.3-.7-.8-.7-1.2-.1-6.8-.2-13.7-.3-20.5,0,0,0-.1.1-.4.5,0,1.1,0,1.7,0,10.5,0,21,0,31.6-.1,1.4,0,2.5.3,3.6,1.2,40.5,30,81.1,60.1,121.7,90.1.6.5,1.3,1,2.1,1.5.4-.3.9-.6,1.3-.9,36.5-27.2,72.9-54.4,109.4-81.5,4.2-3.1,8.4-6.2,12.6-9.4.7-.5,1.4-.9,2.4-.9,11,0,21.9,0,32.9,0,.3,0,.6,0,1,0,0,.5.1,1,.1,1.5,0,5.8,0,11.7.1,17.5,0,1.4-.5,2.2-1.6,3-35,26.2-69.9,52.4-104.8,78.6-11,8.3-22,16.5-33,24.7-1,.8-1.4,1.6-1.4,2.8,0,16.3,0,32.6,0,49.1Z"/>
  <path class="st15" d="M284.7,485.8c0,14.1,0,27.9,0,42-.5-.2-.9-.3-1.2-.5-32.3-21.1-60.3-46.8-82-79-13.1-19.6-23.4-40.6-31.1-62.9-5.8-16.7-10.1-33.7-13.1-51-1.9-10.8-3.5-21.7-4.5-32.7-.6-7.1-1.2-14.3-1.7-21.4,0-.2,0-.5,0-1.1.7.5,1.2.8,1.7,1.2,16.9,12.6,33.9,25.1,50.8,37.7,26.4,19.6,52.9,39.2,79.3,58.8,1.2.9,1.7,1.9,1.7,3.4,0,24.5,0,49,0,73.6,0,10.6,0,21.2,0,31.9M252.3,387.9c.3-.5.9-1,1-1.5.2-1.7,1.3-2.8,2.4-3.8,1.6-1.5,1.9-3,.8-4.8-.7-1.1-1.2-2,0-3.2.9-.8,1-2.3.3-3.5-.6-1.1-1.8-1.2-3-1.2-.6,0-1.2.2-1.9.2-2.4.3-3.4-.3-4.5-2.4-1.3-2.6-3.3-2.9-5.3-.8-1.3,1.4-2.9,1.8-4.7,1.4-.7-.2-1.4-.4-2.2-.5-1.9-.4-3.2,0-4.2,1.7-.9,1.4-2.2,2.4-3.4,3.3-.6.5-1.2.9-1.7,1.4-1.3,1.4-1.1,2.9.3,4,.5.4,1.1.8,1.7,1.2.6.5,1,1.1.5,1.9-.9,1.6-.7,2.9,1.1,3.9-2.4,1.8-4.8,2.7-7.6,3.1-1.7-6.1-2.9-12.2-3.1-18.8,1,0,1.8-.2,2.6,0,3.5.6,5.8-.7,6.6-4,.4-1.3,1.1-2.2,2.3-2.7.6-.3,1.2-.7,1.7-1.1,1.9-1.8,1.8-3.4-.2-5-1.4-1.1-1.4-1.3-.9-3,0-.2.2-.5.2-.7.4-1.8-.3-2.9-2.1-3.2-.5,0-1.1,0-1.7,0-1.6,0-2.7-.6-3.7-1.8-2.1-2.5-5.1-2.7-7.4-.3-1.2,1.3-2.6,1.7-4.2,1.4-3.2-.5-5.2,1.4-5.6,4.1-.2,1.2-.8,2-1.9,2.6-.5.2-1,.5-1.4.9-1.2,1.2-1.7,2.7-.8,3.8,1.1,1.4.8,2.4,0,3.7-.9,1.5-.3,2.8,1.3,3.4,1,.4,2.2.5,3.3.7,1.5.2,2.9.7,4.1,1.6,1,.8,2.1,1.5,3.1,2.1.5,5.7,1,11.6,1.5,17.6-2.9-.6-5.9-1.2-8.7-2.8,3.8-.6,4.8-2.5,3-5.5-.4-.6-.3-1.1-.2-1.8.3-1.3.6-2.5.7-3.8.1-2.6-1.2-3.8-3.7-3.3-1.9.4-3.1-.2-4.1-1.7-1.1-1.7-2.7-2.2-4.5-1.7-.8.2-1.7.4-2.5.8-1.6.6-3.1,1.2-4.9.6-.4-.1-.9-.1-1.3-.1-2,0-3.1.7-3.4,2.7-.3,2.2-1.6,3.2-3.6,3.7-.9.2-1.8.6-2.5,1.1-1.1.7-1.2,1.8-.5,2.9.3.5.8.9,1.2,1.4,1.2,1.5,1.2,2.7,0,4.2-1.4,1.7-1.2,2.9.9,3.7,1.4.5,2.9.7,4.3.9,1.4.2,1.8.4,2.2,1.8.2.7.4,1.5.7,2.1.7,1.4,1.9,2,3.4,1.5.9-.3,1.7-.8,2.4-1.3.7-.5,1.4-1.1,2.1-1.5,1-.5,2-1,3.2-.3,1.6.9,3.2,1,4.5-.3,4.2,1.1,8.2,2.2,12.2,3.2,1.6,4.1,3.2,8.4,4.8,12.7-4.5,1.1-8.8.9-12.7-1.9-.2-.1-.3-.3-.5-.3-.3-.1-.7-.1-1-.2,0,.4-.2.8-.1,1.2.6,1.7,1.2,3.4,1.9,5.1,2.4,5.3,6.5,8,12.4,8,1.7,0,3.5-.1,5.3-.2,2.5,3.5,5,7,7.6,10.7-.5.2-.7.2-.9.3-5.1,1-10.2,1.2-15.4.6-.5,0-1.1-.3-1.6.5.2.3.3.7.6,1,2.1,2.1,4.2,4.3,6.4,6.2,1.3,1.1,2.9,2,4.4,2.7,3.7,1.6,6.8.7,9.2-2.5.5-.7,1-1.4,1.5-2.3.5.6,1,1.1,1.4,1.6,4.2,5.2,8.4,10.3,12.6,15.5.8,1,1,1.6,2.7.2,1.4-1.2,2.1-2.9,2.7-4.6.3-1,.1-1.9-.7-2.7-3.3-3.5-6.5-7.1-9.7-10.6-.4-.4-.7-.8-1-1.3.7-.5,1.3-.9,1.9-1.4,2.3-1.8,3.4-4,3.3-6.9-.1-2-.8-3.9-1.7-5.7-1.2-2.3-2.4-4.6-3.6-7-.2-.5-.6-.9-1-1.6-3.6,3.5-4.1,8.2-6.1,12.5-1.9-2.8-3.6-5.3-5.3-7.9.8-.3,1.3-.5,1.8-.7,2.7-1.1,4.1-3.1,4.3-6,0-.7,0-1.5,0-2.2-.5-4.3-1-8.5-1.6-12.8,0-.6-.3-1.1-.5-1.6-.2,0-.3,0-.5,0-.4.6-.8,1.2-1.2,1.8-2,3.5-4.1,6.8-6.9,9.7-.3.3-.7.6-1.1,1-1.9-3.5-3.5-7-4.1-10.5,4-2.9,7.8-5.7,11.7-8.6.1,1.3.9,2.1,2,2.6,1.7.8,3.2.4,4.8-.4,2.1-1,4.2-1.7,6.6-1.2.7.2,1.6-.1,2.6-.4Z"/>
  <path class="st15" d="M341.7,374.3c42.7-31.7,85.3-63.3,128.2-95.1,0,.7,0,1,0,1.3-.5,6.5-.8,12.9-1.5,19.3-.9,8.5-2,16.9-3.2,25.3-1.8,12.4-4.4,24.7-7.6,36.9-7.4,28.1-18.3,54.8-33.7,79.5-14.6,23.2-32.5,43.5-53.4,61.2-10.2,8.7-21,16.6-32.1,24-.5.4-1.1.7-1.9,1.2,0-.7,0-1.1,0-1.5,0-25.1,0-50.3,0-75.4,0-23.6,0-47.2,0-70.8,0-1.5.4-2.6,1.7-3.4,1.2-.7,2.3-1.7,3.6-2.6M421.6,369.4c-2-3.5-4.9-5.5-8.9-6.2-4-.7-7.8,0-11.6,1.1-11.4,3.5-21.2,9.7-29.3,18.3-9.3,9.9-14,21.7-12.8,35.5.3,3.4,1.1,6.6,2.7,9.6,2,3.8,5,6.2,9.3,6.8,2.2.3,4.5.2,6.7,0,4.8-.6,9.2-2.6,13.5-4.6,18.9-8.5,31.1-28.2,32.7-45,.5-5.3.3-10.4-2.3-15.5Z"/>
  <path class="st15" d="M346,248.5h76.6c0,0,0,.2.1.3-37.3,27.6-74.6,55.1-112,82.8-37.2-27.5-74.5-55.1-111.7-82.6,0-.1,0-.2,0-.3,0,0,0,0,.1,0,1.9,0,3.7,0,5.6,0,47,0,94,0,141.2,0M346.3,284.2c.7-.5,1.4-1,2.1-1.5,2.4,1.8,4.8,3.5,7,5.2.8.6,1.3.6,1.9-.4-1-3-2-6.2-3-9.3,2.3-1.7,4.4-3.3,6.5-4.9.5-.4,1.5-.6,1.2-1.6-.3-1-1.3-.6-1.9-.6-2.7,0-5.3,0-8.1,0-1-3.1-2-6.2-2.9-9.1-1.1-.4-1.4,0-1.7.9-.9,2.7-1.8,5.4-2.7,8.2h-9.8c-.1.5-.3.9-.4,1.3,2.7,2,5.3,3.9,7.9,5.8-.1.5-.2.8-.3,1.2-.8,2.4-1.6,4.7-2.3,7.1-.2.5-.6,1.1.2,1.6.8.5,1.2-.1,1.6-.4,1.5-1.1,3-2.2,4.7-3.5M302.3,279.7q-.6,1.8.7,2.4c2.5-1.9,5.1-3.7,7.7-5.6,2.7,2,5.3,3.9,7.8,5.7,1.2-.3,1.2-.9.9-1.8-.9-2.8-1.8-5.5-2.7-8.3.7-.6,1.4-1.1,2-1.5,1.7-1.3,3.4-2.5,5.1-3.8.3-.3.6-.8.6-1.2,0-.7-.7-.7-1.3-.7-.8,0-1.6,0-2.4,0-2.1,0-4.2,0-6.3,0-.5-1.6-1-3.1-1.5-4.6-.4-1.3-.8-2.6-1.3-3.9-.1-.3-.6-.7-.9-.7-.3,0-.6.4-.9.7-.2.3-.3.7-.4,1-.8,2.4-1.6,4.8-2.4,7.3h-9.7c-.2.5-.3.9-.5,1.3,2.7,2,5.3,4,8,5.9-.9,2.6-1.7,5-2.5,7.7M270.5,268.6c-.3.8-.6,1.6-.9,2.5h-9.6c-.6,1.1,0,1.5.6,2,2.3,1.7,4.6,3.4,6.9,5.1-.9,2.7-1.7,5.3-2.6,7.9-.2.6-.9,1.4,0,2,.9.6,1.4-.3,1.9-.7,2.2-1.5,4.3-3.1,6.5-4.7.6.4,1.1.8,1.6,1.2,1.7,1.2,3.4,2.5,5.1,3.7.5.4,1,1.1,1.8.5.7-.6.2-1.2,0-1.9-.4-1.3-.8-2.6-1.2-3.9-.4-1.3-.9-2.7-1.3-4.1.7-.5,1.2-.9,1.7-1.3,1.7-1.3,3.5-2.6,5.2-3.9.7-.5,1-1,.3-1.9h-9.6c-.2-.6-.4-1-.5-1.5-.7-2.2-1.4-4.5-2.2-6.7-.1-.4-.5-.9-.9-1-.7-.2-.9.4-1.1,1-.6,1.8-1.2,3.7-1.9,5.8M308.1,295.3c-.3,1.1-.7,2.1-1.1,3.3-.7,0-1.3,0-1.9,0-2.3,0-4.6,0-6.9,0-.8,0-1.3.3-1.3,1.4,2.5,1.9,5.2,3.8,7.8,5.8-.3.9-.5,1.6-.8,2.4-.7,2.1-1.4,4.2-2.1,6.4,0,.3,0,.9.3,1.1.2.2.8.1,1.1,0,1.4-.9,2.7-2,4.1-3,1.1-.8,2.2-1.6,3.3-2.4,2.7,2,5.2,3.8,7.8,5.7,1.2-.7,1.2-.7.9-1.7-.6-1.8-1.2-3.5-1.7-5.3-.3-1-.7-2.1-1-3.2,1.3-1,2.5-1.9,3.7-2.8,1.2-.9,2.4-1.8,3.6-2.7.3-.2.5-.8.4-1.1,0-.3-.6-.5-1-.6-.5-.1-1,0-1.5,0-2.5,0-5,0-7.5,0-1-3.1-2-6.1-2.9-9-.9-.3-1.4-.2-1.7.7-.5,1.6-1,3.2-1.6,5.1Z"/>
  <path class="st7" d="M235.4,94.3c-.9,1.2-2,1.9-3.3,2.2-1.4.4-2.2.1-2.9-1.2-.2-.4-.4-.9-.6-1.4-1.4-4.4-2.9-8.7-4.3-13.1,0-.2,0-.5-.1-.7,3.2-1.8,6.9-1.1,8.9,1.3,2.3,2.7,3.4,5.9,3.4,9.5,0,1.1-.6,2.2-1,3.5Z"/>
  <path class="st9" d="M220.2,68.2c-.7-2.1-1.3-4.1-2-6.1,3.8-2.1,7.1-1.1,9,2.5,1,1.9,1.7,3.9,1.8,6,.3,3.2-1,5.2-4,6.4-.6.2-1.1.4-1.8.6-1-3.2-2.1-6.2-3.1-9.4Z"/>
  <path class="st11" d="M169.5,93.2c6.2,5.5,10.5,12.2,13.6,19.7.4.9.6,1.9.7,2.9.5,2.9-1.5,6.2-4.2,7.2-.8.3-1.5.2-2.1-.4-.5-.5-.9-1-1.3-1.6-6.1-9.1-12.3-18.1-18.4-27.2-.1-.1-.2-.3-.2-.5,2.9-3.1,6.8-3.6,10.3-1.5.5.3,1,.7,1.6,1.2Z"/>
  <path class="st13" d="M565.1,299.8c-5.4.7-10.7,1.2-16,.8-1.7-.1-3.5-.4-5.1-.9-2.8-.9-4.5-2.7-4.9-5.8-.3-3.1,1-5.3,3.6-6.8,2.2-1.3,4.6-2,7-2.4,6.3-1.1,12.6-1.8,18.9-1.2,1.7.1,3.4.6,5.1,1.1,2.5.9,4,2.8,4.3,5.6.3,2.9-.8,5.1-3.2,6.6-2.5,1.5-5.3,2.2-8.1,2.7-.5,0-1,.2-1.6.3Z"/>
  <path class="st2" d="M46.4,345c-.7-4.2.5-6.5,4.1-8.4,2.7-1.4,5.6-2.1,8.5-2.6,5.7-.9,11.3-1.7,17.1-1.3,1.7.1,3.5.5,5,1.2,4.7,2,5.4,8.2,1.4,11.4-2,1.6-4.3,2.4-6.8,3-6.1,1.5-12.4,2.3-18.7,2.2-1.9,0-3.9-.3-5.7-.8-2.4-.6-4.2-2-5-4.7Z"/>
  <path class="st2" d="M259.6,80.4c-2.2-6.7-3.3-13.5-3.5-20.4,0-2.1.3-4.2.8-6.2.6-2.6,2.4-4.3,5.2-4.8,2.9-.5,5.4.3,7,2.8,1.1,1.8,2,3.7,2.6,5.7,1.9,6.2,2.8,12.6,3,19.1,0,2-.2,4.1-.7,6.1-.7,2.8-2.6,4.4-5.5,4.9-2.8.5-4.9-.5-6.5-2.7-.9-1.3-1.5-2.8-2.3-4.4Z"/>
  <path class="st2" d="M539.2,338.9c-3-4.4-1.4-9.3,3.5-10.8,2.2-.7,4.5-.9,6.8-.9,6,0,11.9.8,17.7,2.2,2.2.5,4.4,1.3,6.3,2.6,2.4,1.7,3.5,4,3,6.9-.3,2.2-1.5,3.8-3.4,4.8-1.6.9-3.4,1.3-5.2,1.3-3.6,0-7.2,0-10.8-.5-3.9-.5-7.8-1.3-11.7-2.2-2.3-.5-4.4-1.6-6.2-3.5Z"/>
  <path class="st13" d="M152.2,126.6c.1,0,.2.1.3.2,0,0-.2,0-.4,0,0,0,0-.2,0-.3Z"/>
  <path class="st13" d="M126,129.3c-.1,0-.2-.2-.2-.3,0,0,.2,0,.4,0,0,.1,0,.2-.1.3Z"/>
  <path class="st9" d="M111.9,161.6c-1.1-1.6-2.1-3.1-3.1-4.7,1.4,0,10,3.4,13.5,5.3-.2.3-.3.5-.5.8-1.6,2-3.2,3.9-5,6.1-1.7-2.5-3.3-4.9-5-7.5Z"/>
  <path class="st14" d="M501.6,529.8c0,0,0-.2,0-.4,0,.1,0,.2,0,.4Z"/>
  <path class="st9" d="M420,555c2.9-1.7,3.9-1.6,5.7,1,2.6,3.7,4.7,7.7,6.5,11.9,0,0,0,.1,0,.2,1.1,3.4.4,4.6-2.7,5.9-.2-.3-.4-.5-.6-.8-3-5.4-6-10.9-8.9-16.3-.3-.5-1.1-1.1,0-1.8Z"/>
  <path class="st12" d="M89.2,522c0,0,0,.2,0,.3,0,0,0-.2,0-.3Z"/>
  <path class="st9" d="M165.9,538.5c2.3-.2,3.2.5,3.1,2.6,0,1.2-.2,2.5-.6,3.7-1,3.5-2.2,7-3.3,10.5-.4,1.2-1.1,2.4-1.7,3.5-.5.8-1.2,1.2-2.2.9-1-.3-1.7-.8-1.8-1.9,0-.7,0-1.5.1-2.2,1.4-4.8,2.9-9.5,4.5-14.2.3-1,1.2-1.8,2-2.8Z"/>
  <path class="st9" d="M77.6,507.5c2.2-.6,3.5.4,3,2.5-.2,1-.6,2-1.1,2.9-2.2,3.9-4.5,7.9-6.8,11.8-.5.8-1.1,1.5-1.7,2.2-.9,1-1.7,1.1-2.7.6-1-.5-1.4-1.4-1-2.7.3-.9.5-1.8,1-2.6,2.2-4,4.4-7.9,6.8-11.8.6-1,1.6-1.9,2.5-2.9Z"/>
  <path class="st19" d="M198.6,556.6c.4-.5.7-1,1.1-1.4,0,0,.2,0,.3.1-1.1,3.6-2.1,7.3-3.2,11.2-.7-.4-1.3-.7-1.9-1-.5-.3-1.1-.6-1.8-1,1.8-2.6,3.6-5.2,5.5-7.9Z"/>
  <path class="st9" d="M287.5,604.1c.3,3.1.7,6.1.9,9,0,1,0,2.1-.2,3.1-.4,2.4-1.2,3-3.6,3.2-.4,0-.7,0-1.3,0-.7-6.7-1.4-13.5-2.1-20.4,1-.2,1.8-.4,2.6-.4,1.2,0,2.2.5,2.6,1.7.4,1.1.7,2.4,1,3.7Z"/>
  <path class="st19" d="M353.5,611.3c.8-2.7,1.6-5.2,2.4-7.7.1,0,.3,0,.4,0,.2,3.7.3,7.5.5,11.4-1.5-.2-2.7-.4-4.2-.7.3-1.1.6-2,.9-3.1Z"/>
  <path class="st14" d="M252.1,387.9c-.9.2-1.8.5-2.5.3-2.4-.5-4.5.2-6.6,1.2-1.6.8-3.1,1.1-4.8.4-1.1-.5-1.9-1.4-2-2.6-3.9,2.9-7.7,5.6-11.7,8.6.5,3.6,2.1,7,4.1,10.5.4-.4.8-.6,1.1-1,2.8-2.9,5-6.2,6.9-9.7.4-.6.8-1.2,1.2-1.8.2,0,.3,0,.5,0,.2.5.4,1.1.5,1.6.5,4.3,1.1,8.5,1.6,12.8,0,.7,0,1.5,0,2.2-.2,2.9-1.6,4.9-4.3,6-.5.2-1,.4-1.8.7,1.8,2.6,3.4,5.1,5.3,7.9,2-4.4,2.5-9.1,6.1-12.5.4.7.8,1.2,1,1.6,1.2,2.3,2.4,4.6,3.6,7,.9,1.8,1.6,3.6,1.7,5.7.2,2.9-1,5.2-3.3,6.9-.6.5-1.2.9-1.9,1.4.4.4.7.9,1,1.3,3.2,3.6,6.4,7.1,9.7,10.6.8.8,1,1.6.7,2.7-.5,1.7-1.3,3.4-2.7,4.6-1.6,1.4-1.8.8-2.7-.2-4.2-5.2-8.4-10.4-12.6-15.5-.4-.5-.9-1-1.4-1.6-.6.8-1,1.6-1.5,2.3-2.4,3.2-5.5,4.1-9.2,2.5-1.6-.7-3.1-1.6-4.4-2.7-2.3-1.9-4.3-4.1-6.4-6.2-.3-.3-.4-.7-.6-1,.4-.8,1-.5,1.6-.5,5.2.6,10.3.5,15.4-.6.2,0,.4-.1.9-.3-2.6-3.7-5.1-7.2-7.6-10.7-1.8,0-3.5.2-5.3.2-5.8,0-10-2.7-12.4-8-.7-1.6-1.3-3.4-1.9-5.1-.1-.3,0-.8.1-1.2.3,0,.7.1,1,.2.2,0,.3.2.5.3,3.9,2.8,8.2,2.9,12.7,1.9-1.6-4.3-3.3-8.5-4.8-12.7-4-1.1-8-2.1-12.2-3.2-1.2,1.3-2.8,1.2-4.5.3-1.2-.6-2.2-.1-3.2.3-.8.4-1.4,1-2.1,1.5-.8.5-1.6,1-2.4,1.3-1.5.5-2.7-.1-3.4-1.5-.3-.7-.5-1.4-.7-2.1-.4-1.4-.8-1.6-2.2-1.8-1.5-.2-3-.4-4.3-.9-2.1-.8-2.3-1.9-.9-3.7,1.2-1.4,1.2-2.7,0-4.2-.4-.5-.9-.9-1.2-1.4-.7-1.1-.6-2.2.5-2.9.8-.5,1.6-.9,2.5-1.1,2-.4,3.3-1.5,3.6-3.7.3-2,1.4-2.7,3.4-2.7.4,0,.9,0,1.3.1,1.7.6,3.3,0,4.9-.6.8-.3,1.6-.6,2.5-.8,1.9-.4,3.4,0,4.5,1.7,1,1.5,2.2,2.1,4.1,1.7,2.5-.5,3.8.8,3.7,3.3,0,1.3-.4,2.6-.7,3.8-.1.6-.2,1.1.2,1.8,1.7,3,.8,4.9-3,5.5,2.9,1.6,5.8,2.2,8.7,2.8-.5-6-1-11.9-1.5-17.6-1-.7-2.1-1.4-3.1-2.1-1.2-1-2.6-1.4-4.1-1.6-1.1-.1-2.2-.3-3.3-.7-1.6-.6-2.2-2-1.3-3.4.8-1.3,1.1-2.3,0-3.7-.9-1.1-.4-2.7.8-3.8.4-.4.9-.7,1.4-.9,1.1-.5,1.8-1.3,1.9-2.6.3-2.7,2.3-4.6,5.6-4.1,1.6.2,3-.2,4.2-1.4,2.3-2.4,5.3-2.2,7.4.3,1,1.2,2.1,1.9,3.7,1.8.6,0,1.1,0,1.7,0,1.8.3,2.5,1.4,2.1,3.2,0,.2-.2.5-.2.7-.5,1.7-.5,1.9.9,3,2,1.6,2.1,3.2.2,5-.5.5-1.1.8-1.7,1.1-1.2.6-1.9,1.4-2.3,2.7-.9,3.3-3.2,4.6-6.6,4-.8-.1-1.7,0-2.6,0,.2,6.6,1.3,12.7,3.1,18.8,2.9-.4,5.3-1.3,7.6-3.1-1.8-1-2-2.3-1.1-3.9.5-.8.2-1.4-.5-1.9-.5-.4-1.1-.8-1.7-1.2-1.5-1.2-1.6-2.6-.3-4,.5-.5,1.1-.9,1.7-1.4,1.3-1,2.6-1.9,3.4-3.3.9-1.6,2.3-2.1,4.2-1.7.7.2,1.4.4,2.2.5,1.8.5,3.4,0,4.7-1.4,2-2.1,4-1.8,5.3.8,1.1,2.1,2.1,2.7,4.5,2.4.6,0,1.2-.2,1.9-.2,1.1,0,2.3,0,3,1.2.7,1.2.5,2.7-.3,3.5-1.3,1.2-.8,2,0,3.2,1.1,1.9.8,3.3-.8,4.8-1.1,1.1-2.2,2.1-2.4,3.8,0,.5-.6,1-1.1,1.6M238,400.2c-.1-1-.3-2-.5-3.5-2.7,4.4-5.3,8.4-9.2,11.6-2.7-4.3-4.6-8.6-5.3-13.6,4.3-2.4,8.3-5,11.9-8.6-1.9-.5-3.4-.7-5,.4-1.4,1-3.1,1.6-4.7,2.3-1.3.5-2.7.9-4.2.7-2-6.1-2.9-12.3-3.5-18.7-.7.3-1.2.5-1.7.8,0,2-.2,4,0,6,.4,4,.9,7.9,1.4,11.8.2,1.4,0,1.6-1.5,1.4-3.1-.5-6.2-1.3-9.1-2.7-.4-.2-.8-.3-1.4-.5,0,1.3-.2,2.4-.2,3.6.6.2,1.1.4,1.7.6,3.2.8,6.4,1.7,9.6,2.4,1.1.3,1.6.8,2,1.8,1.4,4,3,7.9,4.6,11.8.2.4.3.8.5,1.4-2.4.9-4.8,1.2-7.2,1.1-2.4,0-4.7-.8-7-1.7.5,1.6,1.1,3.1,1.9,4.5,1.8,3.2,4.5,5,8.1,5.6,2.2.4,4.5.3,6.7,0,1-.1,1.6,0,2.2.9,2.4,3.5,5,7,7.5,10.5.3.4.4.8.7,1.4-5.8,1.6-11.4,2-17.2,1.4,1.5,2.5,5.8,6.2,8.7,7.6.6.3,1.1.5,1.7.7,2.2.7,4.1.1,5.6-1.4.9-1,1.6-2.2,2.4-3.3.3-.4.6-.9,1-1.6,5.3,6.5,10.4,12.7,15.5,19,1.9-1.4,2.5-3.2,3-5.2-1-1.2-2-2.3-3-3.4-1-1.2-2.1-2.3-3.1-3.5-1-1.1-2-2.2-3-3.3-1-1.2-2.3-2.1-3-3.7.9-.6,1.8-1.1,2.6-1.6,2.9-2,3.8-4.6,2.9-8-.3-1.2-.8-2.3-1.4-3.5-.9-1.9-1.9-3.8-2.9-5.7-.2-.4-.5-.8-.8-1.3-2.8,3.8-3.1,8.6-5.5,12.5-1.4-1.1-7-9.4-7.3-10.9.9-.3,1.7-.5,2.6-.8,2.3-.8,3.6-2.4,3.9-4.8,0-.8,0-1.6,0-2.4-.3-2.6-.6-5.2-1-8.1M187.4,389.5c1.3.5,1.9,1.5,2.2,2.8,0,.4.2.7.3,1.1.6,1.4,1.4,1.8,2.8,1.2.6-.3,1.1-.8,1.7-1.1,1.1-.7,2.2-1.4,3.4-1.9.9-.4,1.9-.3,2.9.1,2.3,1,3.2.5,3.4-2,0-.2,0-.5,0-.7.1-2.3.9-3.2,3.2-3.5,2.4-.4,3.1-1.6,1.6-3.5-.7-.9-.7-1.6-.4-2.5.4-1.3.7-2.7.7-4,0-1.5-.6-2-2.1-1.9-.3,0-.6,0-.9.2-1.3.5-2.3,0-3.2-.9-.5-.5-1-1-1.4-1.5-.7-1-1.6-1.3-2.8-1.2-.8.1-1.7.3-2.5.7-1.9.8-3.8,1.3-5.9.7-2-.6-2.8,0-3.2,2.2-.3,1.8-1.4,3-3.1,3.6-.6.2-1.2.3-1.8.5-.8.3-1.7.5-2,1.4.8,1.4,1.8,2.7,2.4,4.2.6,1.8-.6,3.1-1.8,4.6.8.4,1.3.8,1.9.9,1.4.3,2.8.5,4.5.8M231.9,359.9c.5-1,0-1.7-.8-2.2-1.8-1.1-2.1-2.7-1.3-4.5,0-.2.1-.5.2-.7.2-.8-.1-1.3-1-1.5-.4,0-.9,0-1.3,0-2.1,0-3.7-.7-5-2.3-1.5-1.8-3.7-2.1-5.3-.4-1.6,1.7-3.5,2.1-5.7,2-2.5-.2-3.5.7-3.9,3.2-.2,1.4-1,2.4-2.2,3.1-.4.3-.9.4-1.3.7-1.2.9-1.3,1.8-.5,3,.8,1.1.8,2.2.3,3.3-.3.7-.6,1.3-.9,2,.9,1.1,2,1.2,3.1,1.3,2.1.2,4.1.7,5.8,2.2,1.7,1.6,2.8,1.7,4.8.3,1.5-1.1,3.1-1.5,4.9-1.1,2.6.5,4.4-.5,5-3.1.4-1.7,1.4-2.7,2.8-3.5.7-.4,1.4-1,2.2-1.8M246.6,368.5c-1.2-2.2-1.9-2.3-3.6-.5-1.6,1.6-3.5,1.9-5.7,1.6-.7-.1-1.4-.4-2.2-.6-1-.2-2.1-.2-2.7.8-1.1,1.9-2.9,3.2-4.7,4.4-1.8,1.2-1.8,2.1,0,3.4.2.1.4.3.6.4,1.8,1.4,2,1.9,1.1,4.1-.4,1.1-.3,1.6.9,1.9,1,.3,2.1.3,3.1.5,1.6.3,3.1.7,3.9,2.4.9,2.1,2.4,2.6,4.5,1.5,2.6-1.3,5.2-2.1,8.2-1.5,1.3.3,1.7-.2,2.1-1.6.2-.6.4-1.3.8-1.8.6-.8,1.3-1.5,2-2.2.9-.8.9-1.7.6-2.7-.2-.5-.5-.9-.7-1.3-.8-1.3-.7-2,.2-3.2.3-.4.7-.9.8-1.4.3-1-.1-1.6-1.2-1.6-.7,0-1.5,0-2.2.1-2.6.5-4.5-.3-5.9-2.8Z"/>
  <path class="st3" d="M421.7,369.5c2.5,5,2.7,10.2,2.2,15.4-1.6,16.7-13.7,36.4-32.7,45-4.4,2-8.7,4-13.5,4.6-2.2.3-4.5.4-6.7,0-4.2-.6-7.3-3-9.3-6.8-1.6-3-2.4-6.3-2.7-9.6-1.2-13.8,3.5-25.6,12.8-35.5,8.1-8.6,17.9-14.8,29.3-18.3,3.8-1.2,7.6-1.7,11.6-1.1,3.9.7,6.9,2.7,8.9,6.3M360.6,418.7c.4,3,1.1,6,2.7,8.7,1.8,3.2,4.6,5.2,8.3,5.8,2.2.4,4.5.3,6.7-.2,10.1-2.3,19-7,26.7-13.9,6.4-5.8,10.9-13,14.3-21,2.7-6.4,3.9-13.2,3.4-20.2-.2-2.5-.7-4.9-1.9-7.2-1.6-3.1-4-5.2-7.5-5.9-3.2-.7-6.4-.5-9.6.3-8.5,2.2-16,6.3-23,11.6-5.6,4.3-10.5,9.1-14.1,15.3-4.7,8.2-7.2,16.9-5.9,26.8Z"/>
  <path class="st1" d="M346.2,284.2c-1.6,1.2-3.1,2.3-4.6,3.4-.5.3-.9.9-1.6.4-.8-.5-.3-1.1-.2-1.6.8-2.4,1.6-4.7,2.3-7.1.1-.3.2-.7.3-1.2-2.6-1.9-5.2-3.9-7.9-5.8.1-.4.2-.8.4-1.3h9.8c.9-2.8,1.8-5.5,2.7-8.2.2-.8.6-1.2,1.7-.9.9,2.9,1.9,6,2.9,9.1,2.8,0,5.4,0,8.1,0,.7,0,1.6-.4,1.9.6.3,1-.7,1.2-1.2,1.6-2.1,1.6-4.3,3.2-6.5,4.9,1,3.2,2,6.3,3,9.3-.6.9-1.1.9-1.9.4-2.3-1.7-4.6-3.4-7-5.2-.7.5-1.4,1-2.2,1.6M340.6,272.4c-1,0-2-.2-3.2.2,2.4,1.8,4.5,3.4,6.7,5-.7,2.6-1.8,5-2.3,7.6l.3.2c2.1-1.5,4.2-3,6.3-4.6,2.2,1.7,4.3,3.2,6.4,4.7,0,0,.2-.1.3-.2-.8-2.6-1.6-5.1-2.4-7.8,2.1-1.8,4.4-3.2,6.7-5.3h-8.4c-.8-2.5-1.6-5-2.6-7.9-1,2.9-1.8,5.4-2.7,7.9-1.7,0-3.2,0-5,0Z"/>
  <path class="st8" d="M302.3,279.6c.8-2.6,1.6-5,2.5-7.6-2.6-2-5.3-3.9-8-5.9.2-.4.3-.8.5-1.3h9.7c.8-2.5,1.6-4.9,2.4-7.3.1-.4.2-.8.4-1,.2-.3.6-.7.9-.7.3,0,.8.4.9.7.5,1.3.8,2.6,1.3,3.9.5,1.5.9,2.9,1.5,4.6,2.1,0,4.2,0,6.3,0,.8,0,1.6,0,2.4,0,.6,0,1.2,0,1.3.7,0,.4-.3.9-.6,1.2-1.7,1.3-3.4,2.5-5.1,3.8-.6.5-1.3,1-2,1.5.9,2.8,1.8,5.6,2.7,8.3.3.8.3,1.5-.9,1.8-2.5-1.8-5.1-3.7-7.8-5.7-2.6,1.9-5.1,3.8-7.7,5.6q-1.3-.6-.7-2.5M301.4,267.7c1.7,1.2,3.4,2.5,5,3.7-.7,2.7-1.8,5.1-2.1,7.8,2.1-1.5,4.2-3,6.3-4.6,2.2,1.6,4.3,3.1,6.4,4.7,0,0,.2-.1.3-.2-.8-2.6-1.6-5.1-2.4-7.7,2.3-1.7,4.4-3.4,6.6-5,0-.1,0-.2-.1-.3h-8.1c-.8-2.6-1.6-5-2.5-7.9-1,2.9-1.8,5.4-2.7,8h-8.4c.7.6,1.1.9,1.8,1.4Z"/>
  <path class="st1" d="M270.6,268.4c.6-2,1.2-3.8,1.8-5.6.2-.6.3-1.2,1.1-1,.4.1.8.6.9,1,.8,2.2,1.5,4.5,2.2,6.7.2.5.3.9.5,1.5h9.6c.7.9.4,1.4-.3,1.9-1.8,1.3-3.5,2.6-5.2,3.9-.5.4-1.1.8-1.7,1.3.4,1.4.9,2.7,1.3,4.1.4,1.3.8,2.6,1.2,3.9.2.6.7,1.3,0,1.9-.8.6-1.3,0-1.8-.5-1.7-1.2-3.4-2.5-5.1-3.7-.5-.4-1-.7-1.6-1.2-2.1,1.6-4.3,3.2-6.5,4.7-.5.4-1,1.3-1.9.7-.9-.6-.2-1.4,0-2,.8-2.6,1.7-5.2,2.6-7.9-2.4-1.8-4.6-3.5-6.9-5.1-.7-.5-1.2-.9-.6-2h9.6c.3-.9.6-1.7.9-2.6M279.9,285.6c0,0,.2,0,.3,0,0,0-.1-.2-.2-.5-.8-2.4-1.5-4.8-2.3-7.3,2.2-1.6,4.3-3.2,6.4-4.8,0-.1,0-.2-.1-.4h-7.9c-.9-2.6-1.7-5.1-2.6-8-.9,2.9-1.7,5.3-2.6,8h-7.9c0,.1,0,.2-.1.4,2.1,1.6,4.3,3.2,6.4,4.8-.3.9-.5,1.6-.7,2.3-.5,1.8-1.1,3.6-1.7,5.4,0,0,0,0,.1.1,0,0,0-.2.2,0,2.1-1.5,4.2-3,6.3-4.5,2.2,1.5,4.3,3,6.5,4.6Z"/>
  <path class="st19" d="M308.1,295.2c.6-1.7,1.1-3.3,1.6-4.9.3-.9.8-1,1.7-.7.9,2.9,1.9,5.9,2.9,9,2.6,0,5.1,0,7.5,0,.5,0,1,0,1.5,0,.4,0,.9.3,1,.6,0,.3-.1.8-.4,1.1-1.2.9-2.4,1.8-3.6,2.7-1.2.9-2.4,1.8-3.7,2.8.3,1.1.7,2.1,1,3.2.6,1.8,1.2,3.5,1.7,5.3.3.9.3,1-.9,1.7-2.5-1.8-5.1-3.7-7.8-5.7-1.1.8-2.2,1.6-3.3,2.4-1.4,1-2.7,2-4.1,3-.3.2-.9.2-1.1,0-.2-.2-.4-.8-.3-1.1.6-2.1,1.4-4.3,2.1-6.4.2-.8.5-1.5.8-2.4-2.7-2-5.3-3.9-7.8-5.8,0-1.1.4-1.4,1.3-1.4,2.3,0,4.6,0,6.9,0,.6,0,1.2,0,1.9,0,.4-1.2.7-2.2,1.1-3.4M304.5,312.9c2-1.5,4.1-3,6.2-4.5,1.8,1.3,3.6,2.7,5.4,3.9.3.2.8.3,1.1.6,0,0,.1,0,.2,0,0,0,0,0,0-.4-.8-2.5-1.6-4.9-2.3-7.4,1.2-.9,2.3-1.7,3.4-2.5,1.1-.9,2.4-1.4,3.3-2.8h-8.4c-.8-2.5-1.6-4.9-2.4-7.4-.1,0-.2,0-.3,0-.8,2.4-1.6,4.9-2.5,7.5h-8.1c0,.1,0,.2,0,.3,2.2,1.7,4.4,3.3,6.6,5-.3.8-.5,1.4-.7,2.1-.6,1.8-1.1,3.7-1.8,5.6,0,0,0,.2,0,.3,0,0,.1-.2.5-.3Z"/>
  <path class="st10" d="M238,400.4c.3,2.8.7,5.3,1,7.9,0,.8.1,1.6,0,2.4-.2,2.4-1.6,4-3.9,4.8-.9.3-1.7.5-2.6.8.4,1.6,5.9,9.8,7.3,10.9,2.4-3.9,2.7-8.7,5.5-12.5.3.5.6.9.8,1.3,1,1.9,2,3.7,2.9,5.7.5,1.1,1,2.3,1.4,3.5.9,3.3,0,5.9-2.9,8-.8.6-1.6,1.1-2.6,1.6.7,1.6,2,2.5,3,3.7,1,1.1,2,2.2,3,3.3,1,1.2,2.1,2.3,3.1,3.5,1,1.1,2,2.2,3,3.4-.5,2-1.1,3.8-3,5.2-5.1-6.3-10.2-12.5-15.5-19-.4.7-.7,1.1-1,1.6-.8,1.1-1.5,2.3-2.4,3.3-1.5,1.6-3.5,2.1-5.6,1.4-.6-.2-1.2-.4-1.7-.7-2.9-1.4-7.2-5.1-8.7-7.6,5.8.6,11.4.2,17.2-1.4-.3-.6-.5-1.1-.7-1.4-2.5-3.5-5-7-7.5-10.5-.6-.9-1.3-1-2.2-.9-2.2.3-4.4.5-6.7,0-3.6-.6-6.4-2.4-8.1-5.6-.8-1.4-1.4-2.9-1.9-4.5,2.3.9,4.6,1.6,7,1.7,2.4,0,4.8-.2,7.2-1.1-.2-.6-.3-1-.5-1.4-1.5-3.9-3.1-7.8-4.6-11.8-.4-1.1-.8-1.6-2-1.8-3.2-.7-6.4-1.6-9.6-2.4-.5-.1-1-.4-1.7-.6,0-1.2.1-2.2.2-3.6.6.2,1,.4,1.4.5,2.9,1.4,5.9,2.2,9.1,2.7,1.5.2,1.6,0,1.5-1.4-.5-3.9-1-7.9-1.4-11.8-.2-2,0-4,0-6,.5-.2,1-.5,1.7-.8.5,6.4,1.5,12.6,3.5,18.7,1.5.3,2.9-.1,4.2-.7,1.6-.6,3.3-1.3,4.7-2.3,1.6-1.1,3.1-.9,5-.4-3.6,3.6-7.6,6.2-11.9,8.6.7,4.9,2.6,9.3,5.3,13.6,3.9-3.2,6.5-7.2,9.2-11.6.2,1.5.4,2.5.5,3.7Z"/>
  <path class="st20" d="M187.2,389.4c-1.5-.3-3-.4-4.3-.7-.6-.1-1.2-.6-1.9-.9,1.3-1.4,2.5-2.8,1.8-4.6-.5-1.5-1.5-2.8-2.4-4.2.3-.9,1.2-1,2-1.4.6-.2,1.2-.3,1.8-.5,1.7-.6,2.8-1.8,3.1-3.6.4-2.1,1.2-2.7,3.2-2.2,2.1.6,4,0,5.9-.7.8-.3,1.6-.5,2.5-.7,1.1-.2,2.1.2,2.8,1.2.4.6.9,1,1.4,1.5.9.9,1.9,1.4,3.2.9.3-.1.6-.1.9-.2,1.5-.1,2.2.4,2.1,1.9,0,1.3-.4,2.7-.7,4-.3,1-.3,1.7.4,2.5,1.4,1.9.8,3.2-1.6,3.5-2.3.3-3.1,1.2-3.2,3.5,0,.2,0,.5,0,.7-.3,2.5-1.1,3.1-3.4,2-1-.4-2-.5-2.9-.1-1.2.5-2.3,1.2-3.4,1.9-.6.3-1.1.9-1.7,1.1-1.4.6-2.2.2-2.8-1.2-.1-.3-.2-.7-.3-1.1-.2-1.3-.9-2.3-2.3-2.8Z"/>
  <path class="st20" d="M231.9,360c-.8.6-1.4,1.3-2.1,1.7-1.5.8-2.4,1.8-2.8,3.5-.6,2.6-2.3,3.6-5,3.1-1.8-.4-3.4,0-4.9,1.1-1.9,1.4-3.1,1.3-4.8-.3-1.6-1.6-3.6-2.1-5.8-2.2-1.1,0-2.2-.2-3.1-1.3.3-.6.6-1.3.9-2,.5-1.2.5-2.2-.3-3.3-.9-1.2-.7-2.1.5-3,.4-.3.9-.5,1.3-.7,1.2-.7,1.9-1.7,2.2-3.1.4-2.5,1.4-3.3,3.9-3.2,2.2.1,4.1-.3,5.7-2,1.6-1.7,3.8-1.5,5.3.4,1.3,1.6,3,2.4,5,2.3.4,0,.9,0,1.3,0,.8.1,1.2.6,1,1.5,0,.2-.1.5-.2.7-.8,1.9-.5,3.4,1.3,4.5.8.5,1.3,1.2.7,2.3Z"/>
  <path class="st20" d="M246.6,368.6c1.4,2.4,3.3,3.2,5.9,2.7.7-.1,1.5-.2,2.2-.1,1.1,0,1.5.6,1.2,1.6-.1.5-.5,1-.8,1.4-.9,1.2-1,1.9-.2,3.2.2.4.6.8.7,1.3.4,1,.3,1.9-.6,2.7-.7.7-1.4,1.4-2,2.2-.4.5-.6,1.2-.8,1.8-.4,1.3-.8,1.8-2.1,1.6-3-.6-5.6.2-8.2,1.5-2.1,1.1-3.6.5-4.5-1.5-.8-1.7-2.3-2.2-3.9-2.4-1-.2-2.1-.2-3.1-.5-1.2-.4-1.4-.8-.9-1.9.8-2.2.7-2.7-1.1-4.1-.2-.1-.4-.3-.6-.4-1.7-1.2-1.7-2.2,0-3.4,1.8-1.2,3.5-2.5,4.7-4.4.6-1,1.6-1,2.7-.8.7.2,1.4.5,2.2.6,2.1.4,4.1,0,5.7-1.6,1.7-1.8,2.4-1.7,3.6.6Z"/>
  <path class="st18" d="M360.6,418.5c-1.2-9.7,1.3-18.4,6-26.6,3.5-6.2,8.4-11,14.1-15.3,7-5.3,14.5-9.4,23-11.6,3.2-.8,6.4-1.1,9.6-.3,3.4.8,5.9,2.8,7.5,5.9,1.1,2.3,1.7,4.7,1.9,7.2.5,7-.7,13.8-3.4,20.2-3.4,7.9-7.9,15.1-14.3,21-7.7,7-16.6,11.6-26.7,13.9-2.2.5-4.4.6-6.7.2-3.7-.6-6.4-2.5-8.3-5.8-1.5-2.7-2.2-5.7-2.7-8.9M374.5,390.3c.9.5,1.9,1.1,2.9,1.7-.4.8-.9,1.5-1.2,2.3-.4.8-1,1-1.8.7-.5-.2-1.1-.4-1.6-.5-.6-.1-1.3-.6-1.6.3-.2.7.7.7,1.1.9.3.1.7.2,1.1.3.5.1.9.3,1.5.6-.7,1.4-1.3,2.8-2,4.2-.8,0-1.6-.2-2.3-.2-.7,0-1.6-.4-2.2.8,1.4.4,2.6.7,3.8,1-.3.9-.6,1.5-.7,2.1,0,.4,0,1.1.4,1.3.3.2,1,0,1.4-.2.3-.2.6-.6.8-1,.3-.5.4-1,.7-1.6,1.1.4,2.1.8,3.1,1.1.4.2,1,.6,1.3-.1.1-.3-.2-.9-.5-1.2-.3-.3-.9-.4-1.3-.6-.6-.2-1.2-.5-1.9-.8.6-1.4,1.1-2.6,1.7-3.8,1.6,0,2.6,1.7,4.3,1.3-.2-2.1-2.5-1.6-3.5-3,.5-.9,1.1-1.9,1.7-3.1,1.3.7,2.5,1.4,3.6,2,.1-.2.3-.3.4-.5,0-1.8-2.3-1.6-3.3-2.8.8-1.2,1.7-2.3,2.5-3.4,1.5,0,2.1,1.9,3.7,1.3,0-1.7-1.9-1.5-2.5-2.7,1-1.2,1.9-2.5,3.3-3.3.8.6,1.6,1.1,2.5,1.7.4-1.6-1.5-1.7-1.4-3,1.1-.8,2.2-1.8,3.2-2.5,1.1.1,1.2,1.5,2.3,1.3.5-1.1-.9-1.3-.8-2.1.7-1.1,2.8-1.2,2.3-3.5-1.4.8-2.7,1.5-3.9,2.2-.7-.5-1.4-.9-2-1.3-.1.1-.2.2-.4.4.4.5.8,1.1,1.3,1.7-.9.7-1.8,1.4-2.7,2.2-.8.7-1.5.8-2.3.1-.5-.4-1-.7-1.8,0,.7.6,1.3,1.1,2,1.6-1.2,1.2-2.3,2.4-3.3,3.4-1.3.2-2.1-1.5-3.7-.5,1,.6,1.8,1.1,2.7,1.7-1,1.4-1.9,2.6-2.8,3.9-.8-.2-1.5-.5-2.2-.7-.5-.1-.9,0-1.5.2Z"/>
  <path class="st20" d="M340.8,272.4c1.7,0,3.2,0,4.9,0,.8-2.5,1.7-5,2.7-7.9.9,2.9,1.8,5.4,2.6,7.9h8.4c-2.3,2.1-4.6,3.5-6.7,5.3.8,2.6,1.6,5.2,2.4,7.8,0,0-.2.1-.3.2-2.1-1.5-4.2-3.1-6.4-4.7-2.1,1.5-4.2,3-6.3,4.6l-.3-.2c.6-2.6,1.7-5,2.3-7.6-2.2-1.6-4.3-3.2-6.7-5,1.2-.4,2.2-.1,3.4-.2Z"/>
  <path class="st20" d="M301.3,267.6c-.5-.4-1-.8-1.7-1.3h8.4c.9-2.6,1.7-5.1,2.7-8,.9,2.8,1.7,5.3,2.5,7.9h8.1c0,.1,0,.2.1.3-2.1,1.6-4.3,3.3-6.6,5,.8,2.6,1.6,5.1,2.4,7.7,0,0-.2.1-.3.2-2.1-1.5-4.2-3.1-6.4-4.7-2.1,1.5-4.2,3-6.3,4.6.3-2.7,1.3-5.1,2.1-7.8-1.7-1.2-3.3-2.5-5.1-3.8Z"/>
  <path class="st20" d="M279.8,285.4c-2.1-1.5-4.2-3-6.4-4.5-2.1,1.5-4.2,3-6.4,4.4-.1,0,0,0,0,0,.5-1.8,1-3.6,1.6-5.3.2-.7.5-1.4.7-2.3-2.1-1.6-4.3-3.2-6.4-4.8,0-.1,0-.2.1-.4h7.9c.9-2.6,1.7-5.1,2.6-8,.9,2.9,1.8,5.4,2.6,8h7.9c0,.1,0,.2.1.4-2.1,1.6-4.2,3.2-6.4,4.8.8,2.5,1.5,4.9,2.2,7.5,0,.2-.2.3-.2.3Z"/>
  <path class="st0" d="M266.8,285.3c0,0,0,.2,0,.2,0,0,0,0,0-.2,0,0,0,0,0,0Z"/>
  <path class="st0" d="M279.9,285.3c.1,0,.2.1.3.2,0,0-.2,0-.3,0,0,0,0-.2,0-.2Z"/>
  <path class="st20" d="M317.3,312.9c-.4-.2-.9-.2-1.2-.5-1.8-1.3-3.6-2.6-5.4-3.9-2.1,1.5-4.1,3-6.3,4.5-.2,0-.2,0-.2,0,.5-1.8,1.1-3.7,1.7-5.5.2-.6.4-1.3.7-2.1-2.2-1.7-4.4-3.3-6.6-5,0-.1,0-.2,0-.3h8.1c.8-2.6,1.6-5,2.5-7.5.1,0,.2,0,.3,0,.8,2.4,1.6,4.8,2.4,7.4h8.4c-1,1.4-2.3,2-3.3,2.8-1.1.9-2.2,1.6-3.4,2.5.8,2.5,1.6,4.9,2.3,7.5,0,.1,0,.1,0,.1Z"/>
  <path class="st21" d="M317.3,312.9s0,0,.1.1c0,0-.1,0-.1,0,0,0,0,0,0,0Z"/>
  <path class="st21" d="M304.2,312.9c0,.1-.1.2-.2.3,0,0,0-.2,0-.3,0,0,.1,0,.2,0Z"/>
  <path class="st6" d="M374.5,390.2c.5-.1,1-.2,1.4,0,.7.2,1.4.4,2.2.7,1-1.3,1.9-2.6,2.8-3.9-.9-.6-1.7-1.1-2.7-1.7,1.6-1.1,2.4.7,3.7.5,1-1,2.1-2.2,3.3-3.4-.7-.6-1.3-1.1-2-1.6.8-.7,1.4-.4,1.8,0,.8.6,1.5.6,2.3-.1.9-.8,1.8-1.5,2.7-2.2-.5-.6-.9-1.2-1.3-1.7.1-.1.2-.2.4-.4.7.4,1.3.9,2,1.3,1.2-.7,2.4-1.4,3.9-2.2.5,2.3-1.6,2.4-2.3,3.5,0,.8,1.3,1.1.8,2.1-1.1.2-1.2-1.2-2.3-1.3-1,.8-2.1,1.7-3.2,2.5,0,1.3,1.8,1.4,1.4,3-.9-.6-1.7-1.2-2.5-1.7-1.5.8-2.4,2.1-3.3,3.3.6,1.3,2.5,1.1,2.5,2.7-1.6.6-2.2-1.2-3.7-1.3-.8,1.1-1.7,2.3-2.5,3.4,1,1.2,3.2,1,3.3,2.8-.1.2-.3.3-.4.5-1.2-.7-2.3-1.3-3.6-2-.6,1.1-1.2,2.1-1.7,3.1.9,1.4,3.2.9,3.5,3-1.7.4-2.7-1.3-4.3-1.3-.5,1.2-1.1,2.4-1.7,3.8.7.3,1.3.5,1.9.8.5.2,1,.3,1.3.6.3.3.7.9.5,1.2-.2.7-.8.3-1.3.1-1-.3-2-.7-3.1-1.1-.2.6-.4,1.1-.7,1.6-.2.4-.4.8-.8,1-.4.2-1,.4-1.4.2-.3-.2-.4-.9-.4-1.3,0-.7.4-1.3.7-2.1-1.2-.3-2.5-.6-3.8-1,.6-1.1,1.5-.8,2.2-.8.7,0,1.5.2,2.3.2.7-1.4,1.3-2.7,2-4.2-.6-.2-1-.4-1.5-.6-.4-.1-.7-.1-1.1-.3-.5-.2-1.3-.2-1.1-.9.2-.9,1-.4,1.6-.3.5.1,1.1.3,1.6.5.8.3,1.4,0,1.8-.7.4-.8.8-1.5,1.2-2.3-1-.6-2-1.1-2.9-1.8Z"/>
</svg>